<svg width="33" height="32" viewBox="0 0 33 32" fill="none" xmlns="http://www.w3.org/2000/svg">
<g clip-path="url(#clip0_147_262)">
<path d="M31.1667 25.3333C31.1667 26.0406 30.8858 26.7189 30.3857 27.219C29.8856 27.719 29.2073 28 28.5 28H4.50004C3.7928 28 3.11452 27.719 2.61442 27.219C2.11433 26.7189 1.83337 26.0406 1.83337 25.3333V10.6667C1.83337 9.95942 2.11433 9.28115 2.61442 8.78105C3.11452 8.28095 3.7928 8 4.50004 8H9.83337L12.5 4H20.5L23.1667 8H28.5C29.2073 8 29.8856 8.28095 30.3857 8.78105C30.8858 9.28115 31.1667 9.95942 31.1667 10.6667V25.3333Z" stroke="#044C3B" stroke-width="2.5" stroke-linecap="round" stroke-linejoin="round"/>
<path d="M16.5 22.6667C19.4456 22.6667 21.8334 20.2789 21.8334 17.3333C21.8334 14.3878 19.4456 12 16.5 12C13.5545 12 11.1667 14.3878 11.1667 17.3333C11.1667 20.2789 13.5545 22.6667 16.5 22.6667Z" stroke="#044C3B" stroke-width="2.5" stroke-linecap="round" stroke-linejoin="round"/>
</g>
<defs>
<clipPath id="clip0_147_262">
<rect width="32" height="32" fill="white" transform="translate(0.5)"/>
</clipPath>
</defs>
</svg>
