<svg width="20" height="21" viewBox="0 0 20 21" fill="none" xmlns="http://www.w3.org/2000/svg">
<g clip-path="url(#clip0_729_257)">
<path d="M8.75303 12.4949C9.01277 12.7546 9.2201 13.0624 9.36241 13.4011C9.50704 13.7455 9.58283 14.1155 9.58409 14.489C9.5853 14.8624 9.51247 15.2326 9.37022 15.5779C9.34902 15.6293 9.3221 15.6783 9.29796 15.7283C9.21327 15.8267 9.12635 15.9233 9.03428 16.0154C8.54944 16.5002 7.97386 16.8849 7.33995 17.1462C7.16959 17.2165 6.99562 17.2763 6.81944 17.3279C6.79339 17.3285 6.7674 17.3319 6.74132 17.3318C6.36786 17.3305 5.99775 17.2547 5.65342 17.1101C5.31023 16.9659 4.99827 16.7555 4.73643 16.491C4.40243 16.1415 4.16733 15.7153 4.046 15.2556C4.07044 15.2666 4.09451 15.2784 4.11925 15.2888C4.50816 15.4522 4.92592 15.5374 5.34776 15.5388C5.76954 15.5402 6.1873 15.4574 6.57725 15.2966C6.96731 15.1358 7.32189 14.8996 7.62022 14.6013C7.91853 14.303 8.15474 13.9484 8.31553 13.5583L8.37217 13.4109C8.49551 13.0639 8.55893 12.6979 8.55772 12.3288C8.55772 12.3272 8.55675 12.3256 8.55675 12.324L8.75303 12.4949ZM15.0128 1.23803C15.4055 0.917386 15.9854 0.940308 16.3517 1.30639C16.5662 1.52103 16.6611 1.80899 16.6398 2.08959L12.1573 6.57299L9.77647 8.95287C8.84788 8.45504 7.80155 8.19071 6.7296 8.19994C5.06935 8.21437 3.48093 8.88062 2.30675 10.0544C1.23331 11.1279 0.584448 12.548 0.469831 14.0525C0.281728 13.5019 0.185385 12.9185 0.190534 12.3259C0.202518 10.963 0.749249 9.65887 1.713 8.69506C2.67691 7.73117 3.98172 7.18447 5.34483 7.1726C6.3749 7.16373 7.37662 7.46097 8.22764 8.01537L10.7384 5.50561L13.4103 2.83276L14.9376 1.30639L15.0128 1.23803Z" fill="inherit"/>
<path d="M17.9774 3.22729L16.3107 4.89396M16.3107 4.89396L18.8107 7.39396L15.8941 10.3106L13.3941 7.81063M16.3107 4.89396L13.3941 7.81063M9.96907 11.2356C10.3994 11.6602 10.7414 12.1657 10.9755 12.723C11.2097 13.2802 11.3312 13.8783 11.3333 14.4828C11.3353 15.0873 11.2177 15.6862 10.9873 16.245C10.7569 16.8039 10.4183 17.3117 9.99086 17.7391C9.56343 18.1665 9.05567 18.5052 8.49682 18.7356C7.93797 18.9659 7.33907 19.0835 6.7346 19.0815C6.13012 19.0795 5.53202 18.9579 4.97473 18.7238C4.41743 18.4896 3.91196 18.1476 3.4874 17.7173C2.65251 16.8529 2.19054 15.6951 2.20098 14.4934C2.21142 13.2916 2.69345 12.1421 3.54323 11.2923C4.39302 10.4425 5.54258 9.96048 6.74431 9.95004C7.94605 9.9396 9.10381 10.4016 9.96824 11.2365L9.96907 11.2356ZM9.96907 11.2356L13.3941 7.81063" stroke="inherit" stroke-width="2" stroke-linecap="round" stroke-linejoin="round"/>
</g>
<defs>
<clipPath id="clip0_729_257">
<rect width="20" height="20" fill="white" transform="translate(0 0.5)"/>
</clipPath>
</defs>
</svg>
