<svg width="20" height="21" viewBox="0 0 20 21" fill="none" xmlns="http://www.w3.org/2000/svg">
<path d="M5.83333 9.66663V6.33329C5.83333 5.22822 6.27232 4.16842 7.05372 3.38701C7.83512 2.60561 8.89493 2.16663 10 2.16663C11.1051 2.16663 12.1649 2.60561 12.9463 3.38701C13.7277 4.16842 14.1667 5.22822 14.1667 6.33329V9.66663M4.16667 9.66663H15.8333C16.7538 9.66663 17.5 10.4128 17.5 11.3333V17.1666C17.5 18.0871 16.7538 18.8333 15.8333 18.8333H4.16667C3.24619 18.8333 2.5 18.0871 2.5 17.1666V11.3333C2.5 10.4128 3.24619 9.66663 4.16667 9.66663Z" stroke="inherit" stroke-width="2" stroke-linecap="round" stroke-linejoin="round"/>
</svg>
