<svg width="33" height="32" viewBox="0 0 33 32" fill="none" xmlns="http://www.w3.org/2000/svg">
<path d="M17.1667 8C17.1667 7.44771 16.719 7 16.1667 7C15.6144 7 15.1667 7.44771 15.1667 8H17.1667ZM16.1667 16H15.1667C15.1667 16.3788 15.3807 16.725 15.7195 16.8944L16.1667 16ZM21.0528 19.5611C21.5468 19.8081 22.1474 19.6079 22.3944 19.1139C22.6414 18.6199 22.4412 18.0192 21.9472 17.7722L21.0528 19.5611ZM30.5 16C30.5 15.4477 30.0523 15 29.5 15C28.9477 15 28.5 15.4477 28.5 16H30.5ZM26.3218 24.6401L27.0835 25.2881L26.3218 24.6401ZM9.26487 27.408L8.74723 28.2636L9.26487 27.408ZM3.51757 20.2164L4.46625 19.9002L3.51757 20.2164ZM9.97859 4.18963L9.51448 3.30385L9.97859 4.18963ZM26.8333 8V9C27.1178 9 27.3888 8.87887 27.5785 8.66692C27.7682 8.45497 27.8586 8.17227 27.8272 7.88957L26.8333 8ZM20.8333 7C20.2811 7 19.8333 7.44771 19.8333 8C19.8333 8.55228 20.2811 9 20.8333 9V7ZM27.1606 1.88957C27.0996 1.34066 26.6052 0.945127 26.0562 1.00612C25.5073 1.06711 25.1118 1.56152 25.1728 2.11043L27.1606 1.88957ZM15.1667 8V16H17.1667V8H15.1667ZM15.7195 16.8944L21.0528 19.5611L21.9472 17.7722L16.6139 15.1056L15.7195 16.8944ZM28.5 16C28.5 18.9286 27.4579 21.7616 25.5602 23.9921L27.0835 25.2881C29.2889 22.6959 30.5 19.4035 30.5 16H28.5ZM25.5602 23.9921C23.6625 26.2226 21.033 27.705 18.1423 28.1741L18.4626 30.1483C21.8221 29.6031 24.878 27.8803 27.0835 25.2881L25.5602 23.9921ZM18.1423 28.1741C15.2515 28.6432 12.2882 28.0684 9.78251 26.5524L8.74723 28.2636C11.6592 30.0254 15.1031 30.6934 18.4626 30.1483L18.1423 28.1741ZM9.78251 26.5524C7.27683 25.0365 5.39234 22.6784 4.46625 19.9002L2.56888 20.5326C3.64515 23.7614 5.83523 26.5019 8.74723 28.2636L9.78251 26.5524ZM4.46625 19.9002C3.54016 17.1219 3.63291 14.1047 4.72789 11.3886L2.87295 10.6408C1.6004 13.7974 1.49262 17.3038 2.56888 20.5326L4.46625 19.9002ZM4.72789 11.3886C5.82288 8.67245 7.84864 6.43457 10.4427 5.07541L9.51448 3.30385C6.49977 4.88342 4.1455 7.48419 2.87295 10.6408L4.72789 11.3886ZM10.4427 5.07541C13.0367 3.71625 16.0298 3.3245 18.8863 3.97027L19.3273 2.0195C16.0076 1.26901 12.5292 1.72428 9.51448 3.30385L10.4427 5.07541ZM18.8863 3.97027C21.7427 4.61604 24.2762 6.25716 26.0333 8.6L27.6333 7.4C25.5913 4.67723 22.647 2.76998 19.3273 2.0195L18.8863 3.97027ZM26.8333 7H20.8333V9H26.8333V7ZM27.8272 7.88957L27.1606 1.88957L25.1728 2.11043L25.8395 8.11043L27.8272 7.88957Z" fill="#044C3B"/>
</svg>
