<svg width="160" height="55" viewBox="0 0 160 55" fill="none" xmlns="http://www.w3.org/2000/svg">
<path d="M50.105 13.6077C51.04 13.1493 51.9933 12.8193 52.965 12.6177C53.955 12.3977 55.055 12.2877 56.265 12.2877C57.4383 12.2877 58.41 12.3793 59.18 12.5627C59.95 12.746 60.5642 13.0118 61.0225 13.3602C61.4808 13.7085 61.8017 14.121 61.985 14.5977C62.1683 15.0743 62.26 15.6152 62.26 16.2202C62.26 16.5685 62.2325 16.9443 62.1775 17.3477C62.1408 17.751 62.095 18.0902 62.04 18.3652L60.7475 24.4152H56.32L55.825 22.6552H55.66C55.0733 23.2968 54.3858 23.7918 53.5975 24.1402C52.8275 24.4702 52.0575 24.6352 51.2875 24.6352C50.8475 24.6352 50.4167 24.571 49.995 24.4427C49.5733 24.3143 49.1975 24.1218 48.8675 23.8652C48.5375 23.5902 48.2717 23.251 48.07 22.8477C47.8683 22.426 47.7675 21.9218 47.7675 21.3352C47.7675 20.3818 48.0242 19.6302 48.5375 19.0802C49.0692 18.5118 49.7567 18.0902 50.6 17.8152C51.4617 17.5218 52.4242 17.3385 53.4875 17.2652C54.5692 17.1918 55.6508 17.1552 56.7325 17.1552C56.7692 16.9718 56.815 16.7152 56.87 16.3852C56.925 16.0368 56.9525 15.7343 56.9525 15.4777C56.9525 15.1477 56.8608 14.8452 56.6775 14.5702C56.5125 14.2768 56.155 14.1302 55.605 14.1302C54.9633 14.1302 54.4867 14.3227 54.175 14.7077C53.8817 15.0743 53.6892 15.5235 53.5975 16.0552H49.5825L50.105 13.6077ZM56.43 18.4477H55.935C55.4033 18.4477 54.945 18.521 54.56 18.6677C54.1933 18.796 53.8908 18.9702 53.6525 19.1902C53.4325 19.4102 53.2675 19.6577 53.1575 19.9327C53.0475 20.2077 52.9925 20.4827 52.9925 20.7577C52.9925 21.1977 53.1025 21.5277 53.3225 21.7477C53.5608 21.9677 53.8358 22.0777 54.1475 22.0777C54.5325 22.0777 54.9083 21.9402 55.275 21.6652C55.66 21.3902 55.8983 21.0235 55.99 20.5652L56.43 18.4477ZM70.6683 14.3502C71.0533 13.9835 71.4842 13.6443 71.9608 13.3327C72.3825 13.076 72.8867 12.8377 73.4733 12.6177C74.06 12.3977 74.72 12.2877 75.4533 12.2877C76.3333 12.2877 76.9842 12.4893 77.4058 12.8927C77.8458 13.296 78.0933 13.791 78.1483 14.3777H78.3133C78.735 13.9927 79.1933 13.6443 79.6883 13.3327C80.11 13.076 80.605 12.8377 81.1733 12.6177C81.7417 12.3977 82.3467 12.2877 82.9883 12.2877C83.9417 12.2877 84.7117 12.5535 85.2983 13.0852C85.9033 13.5985 86.2058 14.2677 86.2058 15.0927C86.2058 15.5143 86.1325 16.0735 85.9858 16.7702C85.8392 17.4668 85.6742 18.2277 85.4908 19.0527L84.3358 24.4152H78.9183L80.4033 17.2377C80.4583 16.9627 80.5133 16.6968 80.5683 16.4402C80.6233 16.1835 80.6508 15.9727 80.6508 15.8077C80.6508 15.551 80.5775 15.3402 80.4308 15.1752C80.2842 14.9918 80.0733 14.9002 79.7983 14.9002C79.45 14.9002 79.12 15.0285 78.8083 15.2852C78.515 15.5235 78.2858 15.7252 78.1208 15.8902L76.3333 24.4152H71.1908L72.7033 17.2377C72.74 16.9993 72.7858 16.761 72.8408 16.5227C72.8958 16.266 72.9233 16.0368 72.9233 15.8352C72.9233 15.5602 72.85 15.3402 72.7033 15.1752C72.575 14.9918 72.3733 14.9002 72.0983 14.9002C71.7683 14.9002 71.4475 15.0193 71.1358 15.2577C70.8425 15.496 70.6133 15.6977 70.4483 15.8627L68.6333 24.4152H63.0233L65.5258 12.5902H70.0083L70.5033 14.3502H70.6683ZM91.3299 29.0352H85.7199L89.1849 12.5902H93.6674L94.1624 14.3502H94.3274C94.9874 13.6535 95.7207 13.1585 96.5274 12.8652C97.3524 12.5535 98.159 12.3977 98.9474 12.3977C99.589 12.3977 100.121 12.4985 100.542 12.7002C100.982 12.8835 101.331 13.1402 101.587 13.4702C101.844 13.8002 102.027 14.1943 102.137 14.6527C102.247 15.111 102.302 15.5968 102.302 16.1102C102.302 16.3668 102.284 16.7518 102.247 17.2652C102.211 17.7785 102.128 18.356 102 18.9977C101.872 19.621 101.688 20.2718 101.45 20.9502C101.212 21.6102 100.891 22.2152 100.487 22.7652C100.102 23.3152 99.6074 23.7643 99.0024 24.1127C98.4157 24.461 97.7099 24.6352 96.8849 24.6352C96.4265 24.6352 95.9774 24.5802 95.5374 24.4702C95.1157 24.3602 94.7307 24.2135 94.3824 24.0302C94.034 23.8468 93.7224 23.636 93.4474 23.3977C93.1907 23.141 92.9982 22.8843 92.8699 22.6277H92.7049L91.3299 29.0352ZM94.2449 21.9677C94.6849 21.9677 95.0515 21.7385 95.3449 21.2802C95.6382 20.8035 95.8765 20.2535 96.0599 19.6302C96.2432 18.9885 96.3715 18.356 96.4449 17.7327C96.5365 17.091 96.5824 16.6143 96.5824 16.3027C96.5824 15.936 96.5182 15.6335 96.3899 15.3952C96.2799 15.1568 96.069 15.0377 95.7574 15.0377C95.409 15.0377 95.079 15.166 94.7674 15.4227C94.4557 15.661 94.2265 15.8718 94.0799 16.0552L93.0074 21.0877C93.154 21.2893 93.3282 21.491 93.5299 21.6927C93.7315 21.876 93.9699 21.9677 94.2449 21.9677ZM113.302 12.5902H118.912L116.382 24.4152H111.927L111.432 22.6552H111.267C110.79 23.2235 110.139 23.7002 109.314 24.0852C108.508 24.4518 107.692 24.6352 106.867 24.6352C105.767 24.6352 104.905 24.3602 104.282 23.8102C103.659 23.2418 103.347 22.5085 103.347 21.6102C103.347 21.1518 103.42 20.5835 103.567 19.9052C103.732 19.2085 103.879 18.5577 104.007 17.9527L105.162 12.5902H110.744L109.369 19.0252C109.333 19.1718 109.296 19.346 109.259 19.5477C109.223 19.7493 109.186 19.951 109.149 20.1527C109.113 20.336 109.076 20.5193 109.039 20.7027C109.021 20.8677 109.012 21.0052 109.012 21.1152C109.012 21.3902 109.067 21.6285 109.177 21.8302C109.305 22.0135 109.525 22.1052 109.837 22.1052C110.167 22.1052 110.479 21.9952 110.772 21.7752C111.065 21.5552 111.294 21.3443 111.459 21.1427L113.302 12.5902ZM127.573 16.0552C127.592 15.9635 127.61 15.8718 127.628 15.7802C127.647 15.6885 127.656 15.5877 127.656 15.4777C127.656 15.1477 127.592 14.8452 127.463 14.5702C127.353 14.2768 127.124 14.1302 126.776 14.1302C126.464 14.1302 126.153 14.2677 125.841 14.5427C125.529 14.7993 125.373 15.1477 125.373 15.5877C125.373 15.881 125.447 16.1193 125.593 16.3027C125.758 16.4677 125.969 16.6052 126.226 16.7152C126.483 16.8252 126.767 16.9168 127.078 16.9902C127.408 17.0635 127.729 17.1368 128.041 17.2102C128.481 17.3202 128.893 17.4577 129.278 17.6227C129.682 17.7693 130.039 17.971 130.351 18.2277C130.663 18.4843 130.91 18.8052 131.093 19.1902C131.277 19.5568 131.368 20.0152 131.368 20.5652C131.368 21.3352 131.185 21.986 130.818 22.5177C130.47 23.031 129.975 23.4527 129.333 23.7827C128.71 24.0943 127.968 24.3143 127.106 24.4427C126.263 24.571 125.355 24.6352 124.383 24.6352C122.898 24.6352 121.67 24.5252 120.698 24.3052C119.727 24.0852 119.048 23.8743 118.663 23.6727L119.241 20.9227H122.953C122.935 21.0143 122.926 21.106 122.926 21.1977C122.926 21.271 122.926 21.3535 122.926 21.4452C122.926 21.8668 123.018 22.206 123.201 22.4627C123.403 22.701 123.742 22.8202 124.218 22.8202C124.75 22.8202 125.126 22.6735 125.346 22.3802C125.584 22.0685 125.703 21.7843 125.703 21.5277C125.703 21.271 125.603 21.051 125.401 20.8677C125.218 20.666 124.979 20.501 124.686 20.3727C124.393 20.226 124.063 20.1068 123.696 20.0152C123.348 19.9052 123.008 19.8043 122.678 19.7127C122.44 19.6577 122.165 19.566 121.853 19.4377C121.56 19.3093 121.276 19.126 121.001 18.8877C120.726 18.6493 120.497 18.3468 120.313 17.9802C120.13 17.5952 120.038 17.1185 120.038 16.5502C120.038 15.7435 120.231 15.0743 120.616 14.5427C121.019 13.9927 121.533 13.5527 122.156 13.2227C122.798 12.8927 123.513 12.6543 124.301 12.5077C125.108 12.361 125.914 12.2877 126.721 12.2877C127.729 12.2877 128.683 12.3793 129.581 12.5627C130.479 12.746 131.213 12.9843 131.781 13.2777L131.148 16.0552H127.573Z" fill="#F56960"/>
<path d="M51.8976 36.5676C54.0793 36.5676 55.6651 36.9526 56.6551 37.7226C57.7001 38.5293 58.2226 39.8676 58.2226 41.7376C58.2226 42.8926 58.0301 43.9376 57.6451 44.8726C57.2601 45.7893 56.7193 46.5501 56.0226 47.1551C54.6293 48.3285 52.6126 48.9151 49.9726 48.9151C47.7176 48.9151 46.1043 48.4843 45.1326 47.6226C44.0876 46.7243 43.5651 45.3768 43.5651 43.5801C43.5651 42.3885 43.8034 41.3068 44.2801 40.3351C44.7751 39.3635 45.4809 38.5568 46.3976 37.9151C47.7359 37.0168 49.5693 36.5676 51.8976 36.5676ZM50.0276 47.0451C50.4859 47.0451 50.8801 46.7885 51.2101 46.2751C51.5584 45.7618 51.8334 45.1385 52.0351 44.4051C52.2368 43.6535 52.3834 42.8835 52.4751 42.0951C52.5851 41.2885 52.6401 40.5918 52.6401 40.0051C52.6401 39.4918 52.5851 39.1068 52.4751 38.8501C52.3834 38.5751 52.1726 38.4376 51.8426 38.4376C51.3476 38.4376 50.9168 38.7035 50.5501 39.2351C50.2018 39.7668 49.9176 40.3993 49.6976 41.1326C49.4776 41.866 49.3126 42.6176 49.2026 43.3876C49.1109 44.1576 49.0651 44.781 49.0651 45.2576C49.0651 46.4493 49.3859 47.0451 50.0276 47.0451ZM64.388 48.6951H58.778L62.683 30.2151H68.3205L64.388 48.6951ZM72.4446 48.6951H66.8346L70.7396 30.2151H76.3771L72.4446 48.6951ZM81.1613 43.1676C81.0879 43.571 81.0329 43.956 80.9963 44.3226C80.9779 44.6893 80.9688 45.0193 80.9688 45.3126C80.9688 45.4776 80.9779 45.661 80.9963 45.8626C81.0146 46.0643 81.0513 46.2568 81.1063 46.4401C81.1796 46.6051 81.2713 46.7518 81.3813 46.8801C81.5096 46.9901 81.6838 47.0451 81.9038 47.0451C82.0688 47.0451 82.2521 46.9901 82.4538 46.8801C82.6738 46.7701 82.8846 46.6143 83.0863 46.4126C83.3063 46.211 83.5079 45.9635 83.6913 45.6701C83.8929 45.3768 84.0488 45.0468 84.1588 44.6801H88.6688L87.9538 47.6226C87.5871 47.861 87.1654 48.0626 86.6888 48.2276C86.2121 48.3926 85.7079 48.5301 85.1763 48.6401C84.6446 48.7318 84.1038 48.796 83.5538 48.8326C83.0038 48.8876 82.4813 48.9151 81.9863 48.9151C81.0696 48.9151 80.2171 48.8326 79.4288 48.6676C78.6404 48.5026 77.9529 48.2185 77.3663 47.8151C76.7796 47.4118 76.3121 46.8801 75.9638 46.2201C75.6338 45.5418 75.4688 44.7076 75.4688 43.7176C75.4688 42.8193 75.6063 41.9393 75.8813 41.0776C76.1746 40.216 76.6513 39.4551 77.3113 38.7951C77.9896 38.1168 78.8879 37.576 80.0063 37.1726C81.1429 36.7693 82.5546 36.5676 84.2413 36.5676C86.0746 36.5676 87.4496 36.8518 88.3663 37.4201C89.3013 37.9885 89.7688 38.8776 89.7688 40.0876C89.7688 40.5826 89.6954 41.1235 89.5488 41.7101C89.4021 42.2785 89.1821 42.7643 88.8888 43.1676H81.1613ZM84.8188 39.8951C84.8188 39.3268 84.7271 38.9418 84.5438 38.7401C84.3604 38.5385 84.1404 38.4376 83.8838 38.4376C83.5904 38.4376 83.3154 38.5385 83.0588 38.7401C82.8204 38.9235 82.6004 39.1801 82.3988 39.5101C82.1971 39.8218 82.0138 40.1885 81.8488 40.6101C81.6838 41.0135 81.5463 41.4443 81.4363 41.9026H84.5713C84.6079 41.6826 84.6446 41.4535 84.6813 41.2151C84.7179 41.0135 84.7454 40.7935 84.7638 40.5551C84.8004 40.3168 84.8188 40.0968 84.8188 39.8951ZM102.415 48.0351C101.645 48.3468 100.829 48.5668 99.9678 48.6951C99.1245 48.8418 98.162 48.9151 97.0803 48.9151C96.127 48.9151 95.247 48.8235 94.4403 48.6401C93.652 48.4385 92.9645 48.1268 92.3778 47.7051C91.7912 47.2835 91.3328 46.7426 91.0028 46.0826C90.6728 45.4043 90.5078 44.5885 90.5078 43.6351C90.5078 42.6451 90.6728 41.7285 91.0028 40.8851C91.3512 40.0235 91.8645 39.2718 92.5428 38.6301C93.2395 37.9885 94.1195 37.4843 95.1828 37.1176C96.2462 36.751 97.5112 36.5676 98.9778 36.5676C100.169 36.5676 101.205 36.6685 102.085 36.8701C102.965 37.0535 103.689 37.4843 104.258 38.1626L103.488 41.6826H99.7478C99.7662 41.371 99.7845 41.096 99.8028 40.8576C99.8212 40.6193 99.8303 40.3535 99.8303 40.0601C99.8303 39.4735 99.7662 39.061 99.6378 38.8226C99.5095 38.566 99.2987 38.4376 99.0053 38.4376C98.492 38.4376 98.0428 38.6943 97.6578 39.2076C97.2728 39.7026 96.952 40.3076 96.6953 41.0226C96.457 41.7193 96.2737 42.4618 96.1453 43.2501C96.0353 44.0201 95.9803 44.6801 95.9803 45.2301C95.9803 45.4318 95.9895 45.6426 96.0078 45.8626C96.0262 46.0643 96.0628 46.2568 96.1178 46.4401C96.1912 46.6235 96.2828 46.7701 96.3928 46.8801C96.5028 46.9901 96.6587 47.0451 96.8603 47.0451C97.0437 47.0451 97.2545 46.9901 97.4928 46.8801C97.7312 46.7701 97.9603 46.6051 98.1803 46.3851C98.4003 46.1468 98.6112 45.8443 98.8128 45.4776C99.0145 45.111 99.1703 44.671 99.2803 44.1576H103.213L102.415 48.0351ZM105.704 36.8701C106.382 36.7235 106.978 36.5585 107.491 36.3751C108.005 36.1918 108.472 35.9626 108.894 35.6876C109.334 35.4126 109.746 35.0735 110.131 34.6701C110.535 34.2668 110.965 33.7718 111.424 33.1851H114.256L113.459 36.8701H115.604L115.246 38.7126H113.074L111.946 44.0751C111.855 44.4968 111.781 44.8726 111.726 45.2026C111.671 45.5326 111.644 45.7893 111.644 45.9726C111.644 46.3393 111.772 46.5685 112.029 46.6601C112.304 46.7518 112.808 46.7976 113.541 46.7976L113.129 48.6951C113 48.7318 112.799 48.7593 112.524 48.7776C112.267 48.796 111.974 48.8143 111.644 48.8326C111.332 48.8693 111.002 48.8876 110.654 48.8876C110.324 48.906 110.03 48.9151 109.774 48.9151C109.315 48.9151 108.866 48.8785 108.426 48.8051C107.986 48.7501 107.592 48.631 107.244 48.4476C106.895 48.246 106.611 47.9618 106.391 47.5951C106.19 47.2285 106.089 46.7335 106.089 46.1101C106.089 45.8901 106.098 45.6151 106.116 45.2851C106.153 44.9551 106.217 44.5885 106.309 44.1851L107.464 38.7126H105.319L105.704 36.8701ZM120.515 48.6951H114.933L117.435 36.8701H123.073L120.515 48.6951ZM123.788 33.2676C123.788 33.6893 123.696 34.056 123.513 34.3676C123.348 34.6793 123.119 34.9451 122.825 35.1651C122.55 35.3851 122.229 35.5501 121.863 35.6601C121.496 35.7701 121.12 35.8251 120.735 35.8251C120.002 35.8251 119.388 35.651 118.893 35.3026C118.398 34.9543 118.15 34.4043 118.15 33.6526C118.15 33.2493 118.233 32.8918 118.398 32.5801C118.563 32.2501 118.783 31.9843 119.058 31.7826C119.351 31.5626 119.681 31.3976 120.048 31.2876C120.433 31.1776 120.827 31.1226 121.23 31.1226C121.945 31.1226 122.55 31.2968 123.045 31.6451C123.54 31.9935 123.788 32.5343 123.788 33.2676ZM124.282 36.8701H130.112L131.239 44.9551L135.254 36.8701H138.169L131.927 48.6951H126.179L124.282 36.8701ZM143.171 43.1676C143.097 43.571 143.042 43.956 143.006 44.3226C142.987 44.6893 142.978 45.0193 142.978 45.3126C142.978 45.4776 142.987 45.661 143.006 45.8626C143.024 46.0643 143.061 46.2568 143.116 46.4401C143.189 46.6051 143.281 46.7518 143.391 46.8801C143.519 46.9901 143.693 47.0451 143.913 47.0451C144.078 47.0451 144.261 46.9901 144.463 46.8801C144.683 46.7701 144.894 46.6143 145.096 46.4126C145.316 46.211 145.517 45.9635 145.701 45.6701C145.902 45.3768 146.058 45.0468 146.168 44.6801H150.678L149.963 47.6226C149.596 47.861 149.175 48.0626 148.698 48.2276C148.221 48.3926 147.717 48.5301 147.186 48.6401C146.654 48.7318 146.113 48.796 145.563 48.8326C145.013 48.8876 144.491 48.9151 143.996 48.9151C143.079 48.9151 142.226 48.8326 141.438 48.6676C140.65 48.5026 139.962 48.2185 139.376 47.8151C138.789 47.4118 138.321 46.8801 137.973 46.2201C137.643 45.5418 137.478 44.7076 137.478 43.7176C137.478 42.8193 137.616 41.9393 137.891 41.0776C138.184 40.216 138.661 39.4551 139.321 38.7951C139.999 38.1168 140.897 37.576 142.016 37.1726C143.152 36.7693 144.564 36.5676 146.251 36.5676C148.084 36.5676 149.459 36.8518 150.376 37.4201C151.311 37.9885 151.778 38.8776 151.778 40.0876C151.778 40.5826 151.705 41.1235 151.558 41.7101C151.411 42.2785 151.191 42.7643 150.898 43.1676H143.171ZM146.828 39.8951C146.828 39.3268 146.736 38.9418 146.553 38.7401C146.37 38.5385 146.15 38.4376 145.893 38.4376C145.6 38.4376 145.325 38.5385 145.068 38.7401C144.83 38.9235 144.61 39.1801 144.408 39.5101C144.206 39.8218 144.023 40.1885 143.858 40.6101C143.693 41.0135 143.556 41.4443 143.446 41.9026H146.581C146.617 41.6826 146.654 41.4535 146.691 41.2151C146.727 41.0135 146.755 40.7935 146.773 40.5551C146.81 40.3168 146.828 40.0968 146.828 39.8951Z" fill="#F56960"/>
<path d="M38.775 47.7027C37.6292 48.2527 36.4375 48.8027 35.2 49.3527C34.0083 49.8568 32.725 50.3152 31.35 50.7277C29.975 51.0943 28.4625 51.3922 26.8125 51.6214C25.2083 51.8506 23.4438 51.9652 21.5188 51.9652C15.3771 51.9652 10.6333 50.5902 7.2875 47.8402C3.9875 45.0902 2.3375 40.5068 2.3375 34.0902C2.3375 30.3777 2.91042 26.8943 4.05625 23.6402C5.20208 20.3402 6.89792 17.4756 9.14375 15.0464C11.3896 12.5714 14.1625 10.6235 17.4625 9.20266C20.7625 7.78183 24.5438 7.07141 28.8063 7.07141C30.8229 7.07141 32.6563 7.20891 34.3063 7.48391C36.0021 7.75891 37.5146 8.12558 38.8437 8.58391C40.2188 8.99641 41.4333 9.45474 42.4875 9.95891C43.5875 10.4631 44.5729 10.9443 45.4438 11.4027L42.9688 24.1902H30.5938C30.6396 23.7318 30.6854 23.136 30.7313 22.4027C30.8229 21.6693 30.8917 20.936 30.9375 20.2027C30.9833 19.4235 31.0292 18.6672 31.075 17.9339C31.1208 17.2006 31.1438 16.5818 31.1438 16.0777C31.1438 15.711 31.1208 15.2985 31.075 14.8402C31.0292 14.336 30.9146 13.8547 30.7313 13.3964C30.5479 12.9381 30.25 12.5714 29.8375 12.2964C29.4708 11.9756 28.9667 11.8152 28.325 11.8152C27.1333 11.8152 26.0333 12.3193 25.025 13.3277C24.0625 14.2902 23.1917 15.5964 22.4125 17.2464C21.6333 18.8506 20.9458 20.6839 20.35 22.7464C19.7542 24.8089 19.25 26.9172 18.8375 29.0714C18.4708 31.1797 18.1729 33.2652 17.9438 35.3277C17.7604 37.3902 17.6687 39.2006 17.6687 40.7589C17.6687 41.2172 17.6917 41.7902 17.7375 42.4777C17.7833 43.1652 17.9208 43.8297 18.15 44.4714C18.3792 45.1131 18.7229 45.6631 19.1813 46.1214C19.6854 46.5797 20.35 46.8089 21.175 46.8089C22.5958 46.8089 23.9708 45.9381 25.3 44.1964C26.6292 42.4089 27.7979 39.2464 28.8063 34.7089H41.525L38.775 47.7027Z" fill="#F56960"/>
<path d="M137.632 20.95V22.8979H141.527V20.95H137.632ZM139.58 7.31503H137.632V20.95H139.58H141.527V7.31503H139.58Z" fill="#F56960"/>
<path fill-rule="evenodd" clip-rule="evenodd" d="M154.161 13.4033L136.63 3.66406L135.684 3.13867L134.738 3.66406L120.353 11.6558L119.765 13.964C120.911 11.6542 125.953 10.9269 128.764 11.44L135.684 7.5957L149.476 15.2578L146.291 17.3818C145.396 17.9786 145.153 19.1879 145.75 20.083C146.347 20.9779 147.556 21.2194 148.451 20.623L154.295 16.7275L156.953 14.9551L154.161 13.4033Z" fill="#F56960"/>
<path fill-rule="evenodd" clip-rule="evenodd" d="M122.049 25.2907V28.0919L123.248 28.5919L134.934 33.4611L135.684 33.7736L136.433 33.4611L148.12 28.5919L149.319 28.0919V18.5421L149.113 18.131L147.371 19.0021L149.111 18.1281C149.111 18.1278 149.111 18.1273 149.111 18.1267C149.111 18.1259 149.11 18.1248 149.11 18.1241L149.098 18.1007C149.093 18.0897 149.086 18.0775 149.079 18.0646C149.065 18.0389 149.048 18.0094 149.029 17.9767C148.991 17.9111 148.942 17.8318 148.881 17.7413C148.757 17.5595 148.584 17.3323 148.35 17.0773C147.881 16.565 147.175 15.9513 146.146 15.3634C144.085 14.1854 140.812 13.1584 135.684 13.1583C134.635 13.1583 133.664 13.2013 132.765 13.2797L131.967 16.8056C131.967 16.8056 132.003 16.9801 132.054 17.2749C133.094 17.1373 134.297 17.0538 135.684 17.0538C140.295 17.0539 142.866 17.9754 144.214 18.7452C144.834 19.0997 145.211 19.4345 145.424 19.6554V25.4952L135.683 29.5538L125.945 25.4952V25.3498C124.666 25.4267 123.323 25.4029 122.049 25.2907Z" fill="#F56960"/>
</svg>
