<svg width="160" height="55" viewBox="0 0 160 55" fill="none" xmlns="http://www.w3.org/2000/svg">
<path d="M50.105 13.6077C51.04 13.1494 51.9933 12.8194 52.965 12.6177C53.955 12.3977 55.055 12.2877 56.265 12.2877C57.4383 12.2877 58.41 12.3794 59.18 12.5627C59.95 12.746 60.5642 13.0118 61.0225 13.3602C61.4808 13.7085 61.8017 14.121 61.985 14.5977C62.1683 15.0743 62.26 15.6152 62.26 16.2202C62.26 16.5685 62.2325 16.9444 62.1775 17.3477C62.1408 17.751 62.095 18.0902 62.04 18.3652L60.7475 24.4152H56.32L55.825 22.6552H55.66C55.0733 23.2969 54.3858 23.7919 53.5975 24.1402C52.8275 24.4702 52.0575 24.6352 51.2875 24.6352C50.8475 24.6352 50.4167 24.571 49.995 24.4427C49.5733 24.3144 49.1975 24.1219 48.8675 23.8652C48.5375 23.5902 48.2717 23.251 48.07 22.8477C47.8683 22.426 47.7675 21.9219 47.7675 21.3352C47.7675 20.3819 48.0242 19.6302 48.5375 19.0802C49.0692 18.5119 49.7567 18.0902 50.6 17.8152C51.4617 17.5219 52.4242 17.3385 53.4875 17.2652C54.5692 17.1919 55.6508 17.1552 56.7325 17.1552C56.7692 16.9719 56.815 16.7152 56.87 16.3852C56.925 16.0369 56.9525 15.7344 56.9525 15.4777C56.9525 15.1477 56.8608 14.8452 56.6775 14.5702C56.5125 14.2769 56.155 14.1302 55.605 14.1302C54.9633 14.1302 54.4867 14.3227 54.175 14.7077C53.8817 15.0744 53.6892 15.5235 53.5975 16.0552H49.5825L50.105 13.6077ZM56.43 18.4477H55.935C55.4033 18.4477 54.945 18.521 54.56 18.6677C54.1933 18.796 53.8908 18.9702 53.6525 19.1902C53.4325 19.4102 53.2675 19.6577 53.1575 19.9327C53.0475 20.2077 52.9925 20.4827 52.9925 20.7577C52.9925 21.1977 53.1025 21.5277 53.3225 21.7477C53.5608 21.9677 53.8358 22.0777 54.1475 22.0777C54.5325 22.0777 54.9083 21.9402 55.275 21.6652C55.66 21.3902 55.8983 21.0235 55.99 20.5652L56.43 18.4477ZM70.6683 14.3502C71.0533 13.9835 71.4842 13.6444 71.9608 13.3327C72.3825 13.076 72.8867 12.8377 73.4733 12.6177C74.06 12.3977 74.72 12.2877 75.4533 12.2877C76.3333 12.2877 76.9842 12.4894 77.4058 12.8927C77.8458 13.296 78.0933 13.791 78.1483 14.3777H78.3133C78.735 13.9927 79.1933 13.6444 79.6883 13.3327C80.11 13.076 80.605 12.8377 81.1733 12.6177C81.7417 12.3977 82.3467 12.2877 82.9883 12.2877C83.9417 12.2877 84.7117 12.5535 85.2983 13.0852C85.9033 13.5985 86.2058 14.2677 86.2058 15.0927C86.2058 15.5144 86.1325 16.0735 85.9858 16.7702C85.8392 17.4669 85.6742 18.2277 85.4908 19.0527L84.3358 24.4152H78.9183L80.4033 17.2377C80.4583 16.9627 80.5133 16.6969 80.5683 16.4402C80.6233 16.1835 80.6508 15.9727 80.6508 15.8077C80.6508 15.551 80.5775 15.3402 80.4308 15.1752C80.2842 14.9919 80.0733 14.9002 79.7983 14.9002C79.45 14.9002 79.12 15.0285 78.8083 15.2852C78.515 15.5235 78.2858 15.7252 78.1208 15.8902L76.3333 24.4152H71.1908L72.7033 17.2377C72.74 16.9994 72.7858 16.761 72.8408 16.5227C72.8958 16.266 72.9233 16.0369 72.9233 15.8352C72.9233 15.5602 72.85 15.3402 72.7033 15.1752C72.575 14.9919 72.3733 14.9002 72.0983 14.9002C71.7683 14.9002 71.4475 15.0194 71.1358 15.2577C70.8425 15.496 70.6133 15.6977 70.4483 15.8627L68.6333 24.4152H63.0233L65.5258 12.5902H70.0083L70.5033 14.3502H70.6683ZM91.3299 29.0352H85.7199L89.1849 12.5902H93.6674L94.1624 14.3502H94.3274C94.9874 13.6535 95.7207 13.1585 96.5274 12.8652C97.3524 12.5535 98.159 12.3977 98.9474 12.3977C99.589 12.3977 100.121 12.4985 100.542 12.7002C100.982 12.8835 101.331 13.1402 101.587 13.4702C101.844 13.8002 102.027 14.1944 102.137 14.6527C102.247 15.111 102.302 15.5969 102.302 16.1102C102.302 16.3669 102.284 16.7519 102.247 17.2652C102.211 17.7785 102.128 18.356 102 18.9977C101.872 19.621 101.688 20.2719 101.45 20.9502C101.212 21.6102 100.891 22.2152 100.487 22.7652C100.102 23.3152 99.6074 23.7644 99.0024 24.1127C98.4157 24.461 97.7099 24.6352 96.8849 24.6352C96.4265 24.6352 95.9774 24.5802 95.5374 24.4702C95.1157 24.3602 94.7307 24.2135 94.3824 24.0302C94.034 23.8469 93.7224 23.636 93.4474 23.3977C93.1907 23.141 92.9982 22.8844 92.8699 22.6277H92.7049L91.3299 29.0352ZM94.2449 21.9677C94.6849 21.9677 95.0515 21.7385 95.3449 21.2802C95.6382 20.8035 95.8765 20.2535 96.0599 19.6302C96.2432 18.9885 96.3715 18.356 96.4449 17.7327C96.5365 17.091 96.5824 16.6144 96.5824 16.3027C96.5824 15.936 96.5182 15.6335 96.3899 15.3952C96.2799 15.1569 96.069 15.0377 95.7574 15.0377C95.409 15.0377 95.079 15.166 94.7674 15.4227C94.4557 15.661 94.2265 15.8719 94.0799 16.0552L93.0074 21.0877C93.154 21.2894 93.3282 21.491 93.5299 21.6927C93.7315 21.876 93.9699 21.9677 94.2449 21.9677ZM113.302 12.5902H118.912L116.382 24.4152H111.927L111.432 22.6552H111.267C110.79 23.2235 110.139 23.7002 109.314 24.0852C108.508 24.4519 107.692 24.6352 106.867 24.6352C105.767 24.6352 104.905 24.3602 104.282 23.8102C103.659 23.2419 103.347 22.5085 103.347 21.6102C103.347 21.1519 103.42 20.5835 103.567 19.9052C103.732 19.2085 103.879 18.5577 104.007 17.9527L105.162 12.5902H110.744L109.369 19.0252C109.333 19.1719 109.296 19.346 109.259 19.5477C109.223 19.7494 109.186 19.951 109.149 20.1527C109.113 20.336 109.076 20.5194 109.039 20.7027C109.021 20.8677 109.012 21.0052 109.012 21.1152C109.012 21.3902 109.067 21.6285 109.177 21.8302C109.305 22.0135 109.525 22.1052 109.837 22.1052C110.167 22.1052 110.479 21.9952 110.772 21.7752C111.065 21.5552 111.294 21.3444 111.459 21.1427L113.302 12.5902ZM127.573 16.0552C127.592 15.9635 127.61 15.8719 127.628 15.7802C127.647 15.6885 127.656 15.5877 127.656 15.4777C127.656 15.1477 127.592 14.8452 127.463 14.5702C127.353 14.2769 127.124 14.1302 126.776 14.1302C126.464 14.1302 126.153 14.2677 125.841 14.5427C125.529 14.7993 125.373 15.1477 125.373 15.5877C125.373 15.881 125.447 16.1194 125.593 16.3027C125.758 16.4677 125.969 16.6052 126.226 16.7152C126.483 16.8252 126.767 16.9169 127.078 16.9902C127.408 17.0635 127.729 17.1369 128.041 17.2102C128.481 17.3202 128.893 17.4577 129.278 17.6227C129.682 17.7694 130.039 17.971 130.351 18.2277C130.663 18.4844 130.91 18.8052 131.093 19.1902C131.277 19.5569 131.368 20.0152 131.368 20.5652C131.368 21.3352 131.185 21.986 130.818 22.5177C130.47 23.031 129.975 23.4527 129.333 23.7827C128.71 24.0944 127.968 24.3144 127.106 24.4427C126.263 24.571 125.355 24.6352 124.383 24.6352C122.898 24.6352 121.67 24.5252 120.698 24.3052C119.727 24.0852 119.048 23.8744 118.663 23.6727L119.241 20.9227H122.953C122.935 21.0144 122.926 21.106 122.926 21.1977C122.926 21.271 122.926 21.3535 122.926 21.4452C122.926 21.8669 123.018 22.206 123.201 22.4627C123.403 22.701 123.742 22.8202 124.218 22.8202C124.75 22.8202 125.126 22.6735 125.346 22.3802C125.584 22.0685 125.703 21.7844 125.703 21.5277C125.703 21.271 125.603 21.051 125.401 20.8677C125.218 20.666 124.979 20.501 124.686 20.3727C124.393 20.226 124.063 20.1069 123.696 20.0152C123.348 19.9052 123.008 19.8044 122.678 19.7127C122.44 19.6577 122.165 19.566 121.853 19.4377C121.56 19.3094 121.276 19.126 121.001 18.8877C120.726 18.6494 120.497 18.3469 120.313 17.9802C120.13 17.5952 120.038 17.1185 120.038 16.5502C120.038 15.7435 120.231 15.0744 120.616 14.5427C121.019 13.9927 121.533 13.5527 122.156 13.2227C122.798 12.8927 123.513 12.6544 124.301 12.5077C125.108 12.361 125.914 12.2877 126.721 12.2877C127.729 12.2877 128.683 12.3794 129.581 12.5627C130.479 12.746 131.213 12.9843 131.781 13.2777L131.148 16.0552H127.573Z" fill="#F56960"/>
<path d="M51.8975 39.8041C54.0792 39.8041 55.665 40.1891 56.655 40.9591C57.7 41.7658 58.2225 43.1041 58.2225 44.9741C58.2225 46.1291 58.03 47.1741 57.645 48.1091C57.26 49.0258 56.7192 49.7866 56.0225 50.3916C54.6292 51.5649 52.6125 52.1516 49.9725 52.1516C47.7175 52.1516 46.1042 51.7208 45.1325 50.8591C44.0875 49.9608 43.565 48.6133 43.565 46.8166C43.565 45.6249 43.8033 44.5433 44.28 43.5716C44.775 42.5999 45.4808 41.7933 46.3975 41.1516C47.7358 40.2533 49.5692 39.8041 51.8975 39.8041ZM50.0275 50.2816C50.4858 50.2816 50.88 50.0249 51.21 49.5116C51.5583 48.9983 51.8333 48.3749 52.035 47.6416C52.2367 46.8899 52.3833 46.1199 52.475 45.3316C52.585 44.5249 52.64 43.8283 52.64 43.2416C52.64 42.7283 52.585 42.3433 52.475 42.0866C52.3833 41.8116 52.1725 41.6741 51.8425 41.6741C51.3475 41.6741 50.9167 41.9399 50.55 42.4716C50.2017 43.0033 49.9175 43.6358 49.6975 44.3691C49.4775 45.1024 49.3125 45.8541 49.2025 46.6241C49.1108 47.3941 49.065 48.0174 49.065 48.4941C49.065 49.6858 49.3858 50.2816 50.0275 50.2816ZM64.3879 51.9316H58.7779L62.6829 33.4516H68.3204L64.3879 51.9316ZM72.4445 51.9316H66.8345L70.7395 33.4516H76.377L72.4445 51.9316ZM81.1611 46.4041C81.0878 46.8074 81.0328 47.1924 80.9961 47.5591C80.9778 47.9258 80.9686 48.2558 80.9686 48.5491C80.9686 48.7141 80.9778 48.8974 80.9961 49.0991C81.0145 49.3008 81.0511 49.4933 81.1061 49.6766C81.1795 49.8416 81.2711 49.9883 81.3811 50.1166C81.5095 50.2266 81.6836 50.2816 81.9036 50.2816C82.0686 50.2816 82.252 50.2266 82.4536 50.1166C82.6736 50.0066 82.8845 49.8508 83.0861 49.6491C83.3061 49.4474 83.5078 49.1999 83.6911 48.9066C83.8928 48.6133 84.0486 48.2833 84.1586 47.9166H88.6686L87.9536 50.8591C87.587 51.0974 87.1653 51.2991 86.6886 51.4641C86.212 51.6291 85.7078 51.7666 85.1761 51.8766C84.6445 51.9683 84.1036 52.0324 83.5536 52.0691C83.0036 52.1241 82.4811 52.1516 81.9861 52.1516C81.0695 52.1516 80.217 52.0691 79.4286 51.9041C78.6403 51.7391 77.9528 51.4549 77.3661 51.0516C76.7795 50.6483 76.312 50.1166 75.9636 49.4566C75.6336 48.7783 75.4686 47.9441 75.4686 46.9541C75.4686 46.0558 75.6061 45.1758 75.8811 44.3141C76.1745 43.4524 76.6511 42.6916 77.3111 42.0316C77.9895 41.3533 78.8878 40.8124 80.0061 40.4091C81.1428 40.0058 82.5545 39.8041 84.2411 39.8041C86.0745 39.8041 87.4495 40.0883 88.3661 40.6566C89.3011 41.2249 89.7686 42.1141 89.7686 43.3241C89.7686 43.8191 89.6953 44.3599 89.5486 44.9466C89.402 45.5149 89.182 46.0008 88.8886 46.4041H81.1611ZM84.8186 43.1316C84.8186 42.5633 84.727 42.1783 84.5436 41.9766C84.3603 41.7749 84.1403 41.6741 83.8836 41.6741C83.5903 41.6741 83.3153 41.7749 83.0586 41.9766C82.8203 42.1599 82.6003 42.4166 82.3986 42.7466C82.197 43.0583 82.0136 43.4249 81.8486 43.8466C81.6836 44.2499 81.5461 44.6808 81.4361 45.1391H84.5711C84.6078 44.9191 84.6445 44.6899 84.6811 44.4516C84.7178 44.2499 84.7453 44.0299 84.7636 43.7916C84.8003 43.5533 84.8186 43.3333 84.8186 43.1316ZM102.415 51.2716C101.645 51.5833 100.829 51.8033 99.9677 51.9316C99.1244 52.0783 98.1619 52.1516 97.0802 52.1516C96.1269 52.1516 95.2469 52.0599 94.4402 51.8766C93.6519 51.6749 92.9644 51.3633 92.3777 50.9416C91.791 50.5199 91.3327 49.9791 91.0027 49.3191C90.6727 48.6408 90.5077 47.8249 90.5077 46.8716C90.5077 45.8816 90.6727 44.9649 91.0027 44.1216C91.351 43.2599 91.8644 42.5083 92.5427 41.8666C93.2394 41.2249 94.1194 40.7208 95.1827 40.3541C96.246 39.9874 97.511 39.8041 98.9777 39.8041C100.169 39.8041 101.205 39.9049 102.085 40.1066C102.965 40.2899 103.689 40.7208 104.258 41.3991L103.488 44.9191H99.7477C99.766 44.6074 99.7844 44.3324 99.8027 44.0941C99.821 43.8558 99.8302 43.5899 99.8302 43.2966C99.8302 42.7099 99.766 42.2974 99.6377 42.0591C99.5094 41.8024 99.2985 41.6741 99.0052 41.6741C98.4919 41.6741 98.0427 41.9308 97.6577 42.4441C97.2727 42.9391 96.9519 43.5441 96.6952 44.2591C96.4569 44.9558 96.2735 45.6983 96.1452 46.4866C96.0352 47.2566 95.9802 47.9166 95.9802 48.4666C95.9802 48.6683 95.9894 48.8791 96.0077 49.0991C96.026 49.3008 96.0627 49.4933 96.1177 49.6766C96.191 49.8599 96.2827 50.0066 96.3927 50.1166C96.5027 50.2266 96.6585 50.2816 96.8602 50.2816C97.0435 50.2816 97.2544 50.2266 97.4927 50.1166C97.731 50.0066 97.9602 49.8416 98.1802 49.6216C98.4002 49.3833 98.611 49.0808 98.8127 48.7141C99.0144 48.3474 99.1702 47.9074 99.2802 47.3941H103.213L102.415 51.2716ZM105.704 40.1066C106.382 39.9599 106.978 39.7949 107.491 39.6116C108.004 39.4283 108.472 39.1991 108.894 38.9241C109.334 38.6491 109.746 38.3099 110.131 37.9066C110.534 37.5033 110.965 37.0083 111.424 36.4216H114.256L113.459 40.1066H115.604L115.246 41.9491H113.074L111.946 47.3116C111.854 47.7333 111.781 48.1091 111.726 48.4391C111.671 48.7691 111.644 49.0258 111.644 49.2091C111.644 49.5758 111.772 49.8049 112.029 49.8966C112.304 49.9883 112.808 50.0341 113.541 50.0341L113.129 51.9316C113 51.9683 112.799 51.9958 112.524 52.0141C112.267 52.0324 111.974 52.0508 111.644 52.0691C111.332 52.1058 111.002 52.1241 110.654 52.1241C110.324 52.1424 110.03 52.1516 109.774 52.1516C109.315 52.1516 108.866 52.1149 108.426 52.0416C107.986 51.9866 107.592 51.8674 107.244 51.6841C106.895 51.4824 106.611 51.1983 106.391 50.8316C106.189 50.4649 106.089 49.9699 106.089 49.3466C106.089 49.1266 106.098 48.8516 106.116 48.5216C106.153 48.1916 106.217 47.8249 106.309 47.4216L107.464 41.9491H105.319L105.704 40.1066ZM120.515 51.9316H114.933L117.435 40.1066H123.073L120.515 51.9316ZM123.788 36.5041C123.788 36.9258 123.696 37.2924 123.513 37.6041C123.348 37.9158 123.118 38.1816 122.825 38.4016C122.55 38.6216 122.229 38.7866 121.863 38.8966C121.496 39.0066 121.12 39.0616 120.735 39.0616C120.002 39.0616 119.388 38.8874 118.893 38.5391C118.398 38.1908 118.15 37.6408 118.15 36.8891C118.15 36.4858 118.233 36.1283 118.398 35.8166C118.563 35.4866 118.783 35.2208 119.058 35.0191C119.351 34.7991 119.681 34.6341 120.048 34.5241C120.433 34.4141 120.827 34.3591 121.23 34.3591C121.945 34.3591 122.55 34.5333 123.045 34.8816C123.54 35.2299 123.788 35.7708 123.788 36.5041ZM124.282 40.1066H130.112L131.239 48.1916L135.254 40.1066H138.169L131.927 51.9316H126.179L124.282 40.1066ZM143.17 46.4041C143.097 46.8074 143.042 47.1924 143.005 47.5591C142.987 47.9258 142.978 48.2558 142.978 48.5491C142.978 48.7141 142.987 48.8974 143.005 49.0991C143.024 49.3008 143.06 49.4933 143.115 49.6766C143.189 49.8416 143.28 49.9883 143.39 50.1166C143.519 50.2266 143.693 50.2816 143.913 50.2816C144.078 50.2816 144.261 50.2266 144.463 50.1166C144.683 50.0066 144.894 49.8508 145.095 49.6491C145.315 49.4474 145.517 49.1999 145.7 48.9066C145.902 48.6133 146.058 48.2833 146.168 47.9166H150.678L149.963 50.8591C149.596 51.0974 149.175 51.2991 148.698 51.4641C148.221 51.6291 147.717 51.7666 147.185 51.8766C146.654 51.9683 146.113 52.0324 145.563 52.0691C145.013 52.1241 144.49 52.1516 143.995 52.1516C143.079 52.1516 142.226 52.0691 141.438 51.9041C140.65 51.7391 139.962 51.4549 139.375 51.0516C138.789 50.6483 138.321 50.1166 137.973 49.4566C137.643 48.7783 137.478 47.9441 137.478 46.9541C137.478 46.0558 137.615 45.1758 137.89 44.3141C138.184 43.4524 138.66 42.6916 139.32 42.0316C139.999 41.3533 140.897 40.8124 142.015 40.4091C143.152 40.0058 144.564 39.8041 146.25 39.8041C148.084 39.8041 149.459 40.0883 150.375 40.6566C151.31 41.2249 151.778 42.1141 151.778 43.3241C151.778 43.8191 151.705 44.3599 151.558 44.9466C151.411 45.5149 151.191 46.0008 150.898 46.4041H143.17ZM146.828 43.1316C146.828 42.5633 146.736 42.1783 146.553 41.9766C146.37 41.7749 146.15 41.6741 145.893 41.6741C145.6 41.6741 145.325 41.7749 145.068 41.9766C144.83 42.1599 144.61 42.4166 144.408 42.7466C144.206 43.0583 144.023 43.4249 143.858 43.8466C143.693 44.2499 143.555 44.6808 143.445 45.1391H146.58C146.617 44.9191 146.654 44.6899 146.69 44.4516C146.727 44.2499 146.755 44.0299 146.773 43.7916C146.81 43.5533 146.828 43.3333 146.828 43.1316Z" fill="#F56960"/>
<path d="M38.775 47.7027C37.6292 48.2527 36.4375 48.8027 35.2 49.3527C34.0083 49.8569 32.725 50.3152 31.35 50.7277C29.975 51.0944 28.4625 51.3923 26.8125 51.6214C25.2083 51.8506 23.4438 51.9652 21.5188 51.9652C15.3771 51.9652 10.6333 50.5902 7.2875 47.8402C3.9875 45.0902 2.3375 40.5069 2.3375 34.0902C2.3375 30.3777 2.91042 26.8944 4.05625 23.6402C5.20208 20.3402 6.89792 17.4756 9.14375 15.0464C11.3896 12.5714 14.1625 10.6235 17.4625 9.20268C20.7625 7.78185 24.5438 7.07143 28.8063 7.07143C30.8229 7.07143 32.6563 7.20893 34.3063 7.48393C36.0021 7.75893 37.5146 8.1256 38.8437 8.58393C40.2188 8.99643 41.4333 9.45477 42.4875 9.95893C43.5875 10.4631 44.5729 10.9443 45.4438 11.4027L42.9688 24.1902H30.5938C30.6396 23.7318 30.6854 23.136 30.7313 22.4027C30.8229 21.6693 30.8917 20.936 30.9375 20.2027C30.9833 19.4235 31.0292 18.6673 31.075 17.9339C31.1208 17.2006 31.1438 16.5818 31.1438 16.0777C31.1438 15.711 31.1208 15.2985 31.075 14.8402C31.0292 14.336 30.9146 13.8548 30.7313 13.3964C30.5479 12.9381 30.25 12.5714 29.8375 12.2964C29.4708 11.9756 28.9667 11.8152 28.325 11.8152C27.1333 11.8152 26.0333 12.3193 25.025 13.3277C24.0625 14.2902 23.1917 15.5964 22.4125 17.2464C21.6333 18.8506 20.9458 20.6839 20.35 22.7464C19.7542 24.8089 19.25 26.9173 18.8375 29.0714C18.4708 31.1798 18.1729 33.2652 17.9438 35.3277C17.7604 37.3902 17.6687 39.2006 17.6687 40.7589C17.6687 41.2173 17.6917 41.7902 17.7375 42.4777C17.7833 43.1652 17.9208 43.8298 18.15 44.4714C18.3792 45.1131 18.7229 45.6631 19.1813 46.1214C19.6854 46.5798 20.35 46.8089 21.175 46.8089C22.5958 46.8089 23.9708 45.9381 25.3 44.1964C26.6292 42.4089 27.7979 39.2464 28.8063 34.7089H41.525L38.775 47.7027Z" fill="#F56960"/>
<path d="M137.632 20.9501V22.8979H141.527V20.9501H137.632ZM137.632 7.31507V20.9501H141.527V7.31507H137.632Z" fill="#F56960"/>
<path fill-rule="evenodd" clip-rule="evenodd" d="M136.63 3.66449L135.684 3.13896L134.738 3.66449L120.352 11.6565L119.765 13.964C120.911 11.6542 125.953 10.9268 128.764 11.44L135.684 7.59549L149.476 15.2578L146.291 17.3815C145.396 17.9782 145.154 19.1876 145.75 20.0827C146.347 20.9778 147.557 21.2197 148.452 20.6229L154.295 16.7272L156.953 14.9552L154.161 13.4038L136.63 3.66449Z" fill="#F56960"/>
<path fill-rule="evenodd" clip-rule="evenodd" d="M122.049 25.2908V26.7936V28.0922L123.248 28.5917L134.935 33.4613L135.684 33.7735L136.433 33.4613L148.12 28.5917L149.319 28.0922V26.7936V19.0022V18.5424L149.113 18.1311L147.371 19.0022C149.113 18.1311 149.112 18.1294 149.111 18.1277L149.11 18.1241L149.106 18.1168L149.098 18.101C149.092 18.0899 149.086 18.078 149.079 18.0651C149.065 18.0393 149.048 18.0099 149.029 17.977C148.991 17.9113 148.942 17.8319 148.88 17.7411C148.757 17.5593 148.584 17.3324 148.35 17.0773C147.881 16.565 147.175 15.951 146.146 15.3631C144.084 14.1851 140.812 13.1587 135.684 13.1587C134.635 13.1587 133.664 13.2016 132.764 13.28L131.967 16.8057C131.967 16.8057 132.003 16.9803 132.054 17.2754C133.094 17.1378 134.296 17.0544 135.684 17.0544C140.295 17.0544 142.866 17.9758 144.213 18.7456C144.831 19.0986 145.21 19.4299 145.423 19.6508V25.4951L135.684 29.5531L125.945 25.4951V25.3499C124.666 25.4267 123.323 25.403 122.049 25.2908Z" fill="#F56960"/>
</svg>
