<svg width="234" height="168" viewBox="0 0 234 168" fill="none" xmlns="http://www.w3.org/2000/svg">
<path d="M123 96.9999V111H151V96.9999H123ZM117 17L123.799 4.7618L117 0.984575L110.201 4.7618L117 17ZM27 67L20.201 54.7618L0.129822 65.9125L19.2342 78.6487L27 67ZM207 67L214.766 78.6487L233.87 65.9125L213.799 54.7618L207 67ZM57.0001 127L43.0001 127L43.0001 136.333L51.6155 139.923L57.0001 127ZM177 127L182.385 139.923L191 136.333L191 127L177 127ZM117 152L111.615 164.923L117 167.167L122.385 164.923L117 152ZM123 26.9999V96.9999H151V26.9999H123ZM110.201 4.7618L20.201 54.7618L33.799 79.2382L123.799 29.2382L110.201 4.7618ZM213.799 54.7618L123.799 4.7618L110.201 29.2382L200.201 79.2382L213.799 54.7618ZM19.2342 78.6487L49.2342 98.6487L64.7658 75.3513L34.7658 55.3513L19.2342 78.6487ZM184.766 98.6487L214.766 78.6487L199.234 55.3513L169.234 75.3513L184.766 98.6487ZM71.0001 127L71 87L43 87L43.0001 127L71.0001 127ZM57 87C69.522 93.261 69.5159 93.2732 69.5098 93.2853C69.5078 93.2892 69.5018 93.3012 69.4978 93.3091C69.4899 93.3248 69.482 93.3402 69.4743 93.3554C69.4589 93.3857 69.4438 93.4149 69.4293 93.4429C69.4001 93.499 69.3727 93.5506 69.3472 93.5978C69.2962 93.6923 69.2527 93.7692 69.2174 93.8296C69.1469 93.9506 69.1096 94.0052 69.112 94.0017C69.1159 93.9958 69.282 93.7518 69.6639 93.3352C70.4136 92.5173 72.0905 90.9299 75.196 89.1554C81.3787 85.6224 93.857 81 117 81V53C90.1432 53 72.6214 58.3775 61.3041 64.8446C55.6596 68.07 51.7114 71.4827 49.0236 74.4148C47.6868 75.8732 46.6809 77.1917 45.9427 78.2796C45.574 78.8229 45.2731 79.3073 45.0316 79.7212C44.9109 79.9281 44.8051 80.1173 44.7132 80.2874C44.6673 80.3725 44.6248 80.4528 44.5856 80.5281C44.566 80.5658 44.5473 80.6022 44.5294 80.6373C44.5204 80.6549 44.5116 80.6722 44.5031 80.6891C44.4988 80.6976 44.4925 80.7101 44.4904 80.7143C44.4842 80.7267 44.478 80.739 57 87ZM117 81C140.143 81 152.621 85.6224 158.804 89.1554C161.91 90.9299 163.586 92.5173 164.336 93.3351C164.718 93.7518 164.884 93.9958 164.888 94.0016C164.89 94.0051 164.853 93.9505 164.783 93.8295C164.747 93.7691 164.704 93.6922 164.653 93.5977C164.627 93.5505 164.6 93.4989 164.571 93.4428C164.556 93.4148 164.541 93.3856 164.526 93.3553C164.518 93.3401 164.51 93.3247 164.502 93.309C164.498 93.3011 164.492 93.2891 164.49 93.2852C164.484 93.2731 164.478 93.2609 177 87C189.522 80.7391 189.516 80.7268 189.51 80.7144C189.507 80.7102 189.501 80.6977 189.497 80.6892C189.488 80.6723 189.48 80.655 189.471 80.6374C189.453 80.6023 189.434 80.5659 189.414 80.5282C189.375 80.4529 189.333 80.3726 189.287 80.2875C189.195 80.1174 189.089 79.9282 188.968 79.7213C188.727 79.3074 188.426 78.823 188.057 78.2797C187.319 77.1917 186.313 75.8732 184.976 74.4149C182.289 71.4827 178.341 68.0701 172.696 64.8446C161.379 58.3775 143.857 53 117 53V81ZM163 87L163 127L191 127L191 87L163 87ZM171.615 114.077L111.615 139.077L122.385 164.923L182.385 139.923L171.615 114.077ZM122.385 139.077L62.3847 114.077L51.6155 139.923L111.615 164.923L122.385 139.077Z" fill="#1DA8FF"/>
<path d="M127 96.9999V107H147V96.9999H127ZM117 17L121.856 8.25843L117 5.56041L112.144 8.25843L117 17ZM27 67L22.1436 58.2584L7.80702 66.2232L21.453 75.3205L27 67ZM207 67L212.547 75.3205L226.193 66.2232L211.856 58.2584L207 67ZM57.0001 127L47.0001 127L47.0001 133.667L53.1539 136.231L57.0001 127ZM177 127L180.846 136.231L187 133.667L187 127L177 127ZM117 152L113.154 161.231L117 162.833L120.846 161.231L117 152ZM127 26.9999V96.9999H147V26.9999H127ZM112.144 8.25843L22.1436 58.2584L31.8564 75.7416L121.856 25.7416L112.144 8.25843ZM211.856 58.2584L121.856 8.25843L112.144 25.7416L202.144 75.7416L211.856 58.2584ZM21.453 75.3205L51.453 95.3205L62.547 78.6795L32.547 58.6795L21.453 75.3205ZM182.547 95.3205L212.547 75.3205L201.453 58.6795L171.453 78.6795L182.547 95.3205ZM67.0001 127L67 87L47 87L47.0001 127L67.0001 127ZM57 87C65.9443 91.4722 65.9399 91.4808 65.9356 91.4894C65.9342 91.4922 65.9299 91.5007 65.9271 91.5062C65.9216 91.5173 65.9161 91.5281 65.9108 91.5385C65.9001 91.5595 65.8899 91.5793 65.8802 91.598C65.8608 91.6353 65.8434 91.668 65.8281 91.6963C65.7975 91.753 65.7753 91.7919 65.7623 91.8141C65.7363 91.8587 65.7474 91.8363 65.8021 91.7557C65.9109 91.5952 66.1969 91.1977 66.7153 90.6323C67.7419 89.5124 69.7432 87.6642 73.2114 85.6824C80.1277 81.7303 93.3264 77 117 77V57C90.6738 57 73.8725 62.2697 63.2887 68.3176C58.0068 71.3357 54.3832 74.4876 51.9722 77.1177C50.7718 78.4273 49.8859 79.5923 49.2526 80.5256C48.9362 80.9918 48.6836 81.3992 48.4867 81.7367C48.3883 81.9054 48.3039 82.0566 48.2324 82.1889C48.1966 82.2551 48.1641 82.3165 48.1347 82.3731C48.12 82.4013 48.1061 82.4284 48.0929 82.4542C48.0864 82.4671 48.08 82.4797 48.0738 82.492C48.0707 82.4981 48.0662 82.5071 48.0646 82.5101C48.0602 82.519 48.0557 82.5278 57 87ZM117 77C140.674 77 153.872 81.7303 160.789 85.6824C164.257 87.6642 166.258 89.5123 167.285 90.6322C167.803 91.1977 168.089 91.5952 168.198 91.7556C168.253 91.8362 168.264 91.8586 168.238 91.8141C168.225 91.7918 168.202 91.7529 168.172 91.6963C168.157 91.668 168.139 91.6352 168.12 91.5979C168.11 91.5792 168.1 91.5594 168.089 91.5385C168.084 91.528 168.078 91.5172 168.073 91.5062C168.07 91.5006 168.066 91.4921 168.064 91.4893C168.06 91.4808 168.056 91.4721 177 87C185.944 82.5279 185.94 82.5191 185.935 82.5102C185.934 82.5071 185.929 82.4982 185.926 82.492C185.92 82.4798 185.914 82.4672 185.907 82.4543C185.894 82.4285 185.88 82.4014 185.865 82.3731C185.836 82.3166 185.803 82.2552 185.768 82.189C185.696 82.0567 185.612 81.9055 185.513 81.7367C185.316 81.3992 185.064 80.9919 184.747 80.5257C184.114 79.5923 183.228 78.4273 182.028 77.1178C179.617 74.4877 175.993 71.3358 170.711 68.3176C160.128 62.2697 143.326 57 117 57V77ZM167 87L167 127L187 127L187 87L167 87ZM173.154 117.769L113.154 142.769L120.846 161.231L180.846 136.231L173.154 117.769ZM120.846 142.769L60.8462 117.769L53.1539 136.231L113.154 161.231L120.846 142.769Z" fill="#D8D4F9"/>
</svg>
