<svg width="20" height="20" viewBox="0 0 20 20" fill="none" xmlns="http://www.w3.org/2000/svg">
<path d="M17.5 1.66663L15.8333 3.33329M15.8333 3.33329L18.3333 5.83329L15.4167 8.74996L12.9167 6.24996M15.8333 3.33329L12.9167 6.24996M9.49168 9.67496C9.92197 10.0995 10.264 10.605 10.4981 11.1623C10.7323 11.7196 10.8538 12.3177 10.8559 12.9222C10.8579 13.5266 10.7403 14.1255 10.5099 14.6844C10.2796 15.2432 9.9409 15.751 9.51347 16.1784C9.08604 16.6058 8.57828 16.9445 8.01943 17.1749C7.46058 17.4053 6.86168 17.5228 6.25721 17.5208C5.65274 17.5188 5.05463 17.3972 4.49734 17.1631C3.94005 16.929 3.43457 16.5869 3.01002 16.1566C2.17512 15.2922 1.71315 14.1344 1.72359 12.9327C1.73404 11.731 2.21606 10.5814 3.06585 9.73162C3.91563 8.88184 5.06519 8.39981 6.26693 8.38937C7.46866 8.37893 8.62642 8.8409 9.49085 9.67579L9.49168 9.67496ZM9.49168 9.67496L12.9167 6.24996" stroke="current" stroke-width="2" stroke-linecap="round" stroke-linejoin="round"/>
</svg>
