<svg width="225" height="76" viewBox="0 0 225 76" fill="none" xmlns="http://www.w3.org/2000/svg">
<g clip-path="url(#clip0_225_581)">
<path fill-rule="evenodd" clip-rule="evenodd" d="M38.1693 76.0202C59.2618 76.0202 76.3588 59.0034 76.3588 38.0101C76.3588 17.0167 59.282 0 38.1896 0C17.0971 0 0 17.0369 0 38.0101C0 58.9833 17.0768 76.0202 38.1693 76.0202ZM57.254 18.3288V23.0321C60.5192 27.1501 62.4662 32.358 62.4662 37.9697C62.4662 46.1854 58.3491 53.4523 52.062 57.8125C51.6361 58.1153 51.2101 58.3777 50.7437 58.6199L38.1896 65.2409L25.6355 58.6199C25.2096 58.3979 24.804 58.1556 24.3984 57.873C18.0706 53.5129 13.913 46.2258 13.913 37.9899C13.913 32.3378 15.86 27.1501 19.1252 23.0321V18.3288H24.0941C28.0693 15.5028 32.9368 13.8475 38.1896 13.8475C43.4424 13.8475 48.3099 15.5028 52.285 18.3288H57.254Z" fill="#00C896"/>
<path d="M56.2399 47.9416V19.3987H20.1393V47.9416C20.1393 52.0797 22.4311 55.8948 26.1222 57.8327L38.1896 64.1912L50.2569 57.8327C53.9278 55.8746 56.2399 52.0797 56.2399 47.9416ZM44.6796 57.1867C44.6796 56.561 45.1866 56.0361 45.8356 56.0361C46.4643 56.0361 46.9916 56.5408 46.9916 57.1867C46.9916 57.8125 46.4846 58.3373 45.8356 58.3373C45.2069 58.3373 44.6796 57.8327 44.6796 57.1867ZM36.9727 60.9413C36.9727 60.3155 37.4797 59.7907 38.1287 59.7907C38.7575 59.7907 39.2848 60.2954 39.2848 60.9413C39.2848 61.5873 38.7777 62.0919 38.1287 62.0919C37.4797 62.0919 36.9727 61.5671 36.9727 60.9413ZM33.3424 55.7535L38.1896 53.1495L43.0165 55.7535L38.1693 58.297L33.3424 55.7535ZM29.2861 57.1867C29.2861 56.561 29.7931 56.0361 30.4421 56.0361C31.0709 56.0361 31.5982 56.5408 31.5982 57.1867C31.5982 57.8125 31.0709 58.3373 30.4421 58.3373C29.8134 58.3171 29.2861 57.8125 29.2861 57.1867ZM25.3516 46.246L33.7074 50.7474L28.8196 53.3716L28.556 53.2303C27.5825 52.7256 26.7712 51.9586 26.2237 51.03C25.6558 50.1015 25.3516 49.0316 25.3516 47.9416V46.246ZM21.5792 45.4183C21.5792 44.7926 22.0863 44.2677 22.7353 44.2677C23.364 44.2677 23.8913 44.7724 23.8913 45.4183C23.8913 46.0441 23.364 46.5689 22.7353 46.5689C22.0863 46.5689 21.5792 46.0441 21.5792 45.4183ZM21.5792 37.6871C21.5792 37.0614 22.0863 36.5365 22.7353 36.5365C23.364 36.5365 23.8913 37.0412 23.8913 37.6871C23.8913 38.3129 23.364 38.8377 22.7353 38.8377C22.0863 38.8377 21.5792 38.3129 21.5792 37.6871ZM21.5792 29.9559C21.5792 29.3302 22.0863 28.8053 22.7353 28.8053C23.364 28.8053 23.8913 29.31 23.8913 29.9559C23.8913 30.5817 23.364 31.1065 22.7353 31.1065C22.0863 31.0863 21.5792 30.5817 21.5792 29.9559ZM23.9116 22.0229C23.9116 22.6486 23.4046 23.1735 22.7556 23.1735C22.1268 23.1735 21.5995 22.6688 21.5995 22.0229C21.5995 21.3971 22.1268 20.8723 22.7556 20.8723C23.4046 20.8723 23.9116 21.3971 23.9116 22.0229ZM25.169 52.3219C25.169 52.9477 24.662 53.4725 24.013 53.4725C23.364 53.4725 22.857 52.9679 22.857 52.3219C22.857 51.6962 23.364 51.1713 24.013 51.1713C24.662 51.1713 25.169 51.6962 25.169 52.3219ZM34.1739 22.0229C34.1739 22.6486 33.6669 23.1735 33.0179 23.1735C32.3891 23.1735 31.8618 22.6688 31.8618 22.0229C31.8618 21.3971 32.3689 20.8723 33.0179 20.8723C33.6466 20.8723 34.1739 21.3971 34.1739 22.0229ZM44.4159 22.0229C44.4159 22.6486 43.9089 23.1735 43.2599 23.1735C42.6312 23.1735 42.1039 22.6688 42.1039 22.0229C42.1039 21.3971 42.6109 20.8723 43.2599 20.8723C43.9089 20.8723 44.4159 21.3971 44.4159 22.0229ZM51.0276 41.4417L38.1896 48.3251L25.3516 41.4215V24.5865H51.0276V41.4417ZM51.0276 47.9416C51.0276 49.0316 50.7234 50.1015 50.1758 51.03C49.6079 51.9586 48.7967 52.7256 47.8434 53.2303L47.5798 53.3716L42.692 50.7474L51.0276 46.2661V47.9416ZM52.3459 51.2117C52.9746 51.2117 53.5019 51.7163 53.5019 52.3623C53.5019 52.9881 52.9949 53.5129 52.3459 53.5129C51.7172 53.5129 51.1898 53.0082 51.1898 52.3623C51.2101 51.7163 51.7172 51.2117 52.3459 51.2117ZM54.6782 22.0229C54.6782 22.6486 54.1712 23.1735 53.5222 23.1735C52.8935 23.1735 52.3662 22.6688 52.3662 22.0229C52.3662 21.3971 52.8732 20.8723 53.5222 20.8723C54.1712 20.8723 54.6782 21.3971 54.6782 22.0229ZM54.6782 29.9761C54.6782 30.6019 54.1712 31.1267 53.5222 31.1267C52.8935 31.1267 52.3662 30.6221 52.3662 29.9761C52.3662 29.3503 52.8732 28.8255 53.5222 28.8255C54.1712 28.8255 54.6782 29.3503 54.6782 29.9761ZM54.6782 37.7073C54.6782 38.3331 54.1712 38.8579 53.5222 38.8579C52.8935 38.8579 52.3662 38.3533 52.3662 37.7073C52.3662 37.0816 52.8732 36.5567 53.5222 36.5567C54.1712 36.5567 54.6782 37.0816 54.6782 37.7073ZM54.6782 45.4385C54.6782 46.0643 54.1712 46.5891 53.5222 46.5891C52.8935 46.5891 52.3662 46.0845 52.3662 45.4385C52.3662 44.8128 52.8732 44.2879 53.5222 44.2879C54.1712 44.2879 54.6782 44.8128 54.6782 45.4385ZM38.1896 44.1264L38.6763 44.4696H41.8808L42.4689 44.1668V40.1498L42.1444 39.8268V43.9044L41.3534 43.5209C40.8667 43.2786 40.4002 43.1575 39.9743 43.1575C39.5484 43.1575 39.082 43.2786 38.5952 43.5209L38.1896 43.7227L37.784 43.5209C37.2972 43.2786 36.8307 43.1575 36.4048 43.1575C35.9789 43.1575 35.5125 43.2786 35.0257 43.5209L34.2347 43.9044V39.7865L33.9305 40.1498V44.187L34.5187 44.4898H37.7231L38.1896 44.1264ZM40.9681 37.0008L43.4221 38.8579C43.5844 37.5458 43.7466 36.2539 43.8886 35.0428L40.38 32.3984C40.5625 33.872 40.745 35.4263 40.9478 36.9806L40.9681 37.0008ZM44.4565 32.459C44.1523 35.0226 43.848 37.5862 43.5235 40.1296C45.146 40.9169 46.9916 40.9169 48.6141 40.1296C48.2896 37.566 47.9651 35.0226 47.6812 32.459C46.6063 32.2975 45.5314 32.2975 44.4565 32.459ZM45.8153 34.74C45.8153 34.5583 45.8762 34.3766 45.9776 34.2151C46.0181 34.1546 46.0384 34.1344 46.079 34.0738C46.1195 34.1344 46.1398 34.1546 46.1804 34.2151C46.2818 34.3766 46.3426 34.5381 46.3426 34.74V35.9915C46.1804 35.9915 46.0181 35.9915 45.8356 35.9915L45.8153 34.74ZM47.6812 32.1966C47.8434 31.9745 47.9854 31.7525 48.1679 31.5304C46.7888 31.1671 45.3691 31.1671 44.0103 31.5304C44.1725 31.7525 44.3348 31.9745 44.497 32.1966C45.5314 32.0149 46.6063 32.0149 47.6812 32.1966ZM46.2007 30.9854C46.8497 30.9854 47.5189 31.0863 48.1477 31.2882V30.0367C47.9043 29.9357 47.6812 29.8752 47.4378 29.8146C47.3567 29.9761 47.2756 30.1376 47.1944 30.2991C47.0322 30.2789 46.8699 30.2385 46.7077 30.2183C46.6266 30.0367 46.5454 29.8348 46.4643 29.6531C46.2209 29.6329 45.9573 29.6329 45.7139 29.6531C45.6328 29.8348 45.5517 30.0367 45.4705 30.2183C45.3083 30.2385 45.146 30.2587 44.9838 30.2991C44.9027 30.1376 44.8215 29.9761 44.7404 29.8146C44.497 29.8752 44.2537 29.9559 44.0306 30.0367V31.2882C44.6999 31.0661 45.4503 30.9652 46.2007 30.9854ZM44.0711 33.7711L43.6249 33.4481L43.5235 33.7307L43.1179 33.4279L42.9557 32.9434L42.55 32.6406L42.3878 32.8829L41.9822 32.5801L41.8199 32.0956L41.4143 31.7928L41.252 32.0351L40.8464 31.7323L40.6842 31.2478L40.238 30.9248C40.238 30.9248 40.3394 31.7727 40.38 32.0956L43.9697 34.7804C43.9697 34.5583 44.0711 33.7711 44.0711 33.7711ZM39.7918 29.0476C39.954 28.8255 40.096 28.6035 40.2785 28.3814C38.8994 28.0181 37.4797 28.0181 36.1209 28.3814C36.2831 28.6035 36.4454 28.8255 36.6076 29.0476C37.642 28.8861 38.7169 28.8861 39.7918 29.0476ZM38.0476 27.8364C38.7777 27.8162 39.5484 27.9171 40.2583 28.1392V26.8877C40.0149 26.7867 39.7918 26.7262 39.5281 26.6656C39.447 26.8271 39.3659 26.9886 39.2848 27.1501C39.1225 27.1299 38.9603 27.0895 38.798 27.0693C38.7169 26.8877 38.6358 26.6858 38.5546 26.5041C38.3113 26.4839 38.0679 26.4839 37.8042 26.5041C37.7231 26.6858 37.642 26.8877 37.5609 27.0693C37.3986 27.0895 37.2364 27.1097 37.0741 27.1501C36.993 26.9886 36.9119 26.8271 36.8307 26.6656C36.5874 26.7262 36.344 26.8069 36.1006 26.8877V28.1392C36.7293 27.9575 37.3986 27.8566 38.0476 27.8364ZM36.1412 30.8845L35.695 31.2074L35.5327 31.6919L35.1271 31.9947L34.9649 31.7525L34.5592 32.0553L34.397 32.5397L33.9914 32.8425L33.8291 32.6003L33.4235 32.9031L33.2612 33.3875L32.8556 33.6903L32.7339 33.4077L32.2877 33.7307C32.2877 33.7307 32.3891 34.5179 32.4094 34.6996L35.9992 32.0149C36.0398 31.7323 36.1412 30.8845 36.1412 30.8845ZM31.9024 32.1966C32.0646 31.9745 32.2066 31.7525 32.3891 31.5304C31.01 31.1671 29.5903 31.1671 28.2315 31.5304C28.3937 31.7525 28.556 31.9745 28.7182 32.1966C29.7526 32.0149 30.8275 32.0149 31.9024 32.1966ZM30.1785 30.9854C30.9086 30.9652 31.6793 31.0661 32.3891 31.2882V30.0367C32.1458 29.9357 31.9227 29.8752 31.659 29.8146C31.5779 29.9761 31.4968 30.1376 31.4156 30.2991C31.2534 30.2789 31.0911 30.2385 30.9289 30.2183C30.8478 30.0367 30.7666 29.8348 30.6855 29.6531C30.4421 29.6329 30.1988 29.6329 29.9351 29.6531C29.854 29.8348 29.7729 30.0367 29.6917 30.2183C29.5295 30.2385 29.3672 30.2587 29.205 30.2991C29.1239 30.1376 29.0427 29.9761 28.9616 29.8146C28.7182 29.8752 28.4749 29.9559 28.2315 30.0367V31.2882C28.8399 31.0863 29.5092 30.9854 30.1785 30.9854ZM28.698 32.459C28.3937 35.0226 28.0895 37.5862 27.765 40.1296C29.3875 40.9169 31.2331 40.9169 32.8556 40.1296C32.5311 37.566 32.2269 35.0226 31.9227 32.459C30.8275 32.2975 29.7526 32.2975 28.698 32.459ZM30.0365 34.74C30.0365 34.5583 30.0974 34.3766 30.1988 34.2151C30.2393 34.1546 30.2596 34.1344 30.2799 34.0738C30.3205 34.1344 30.3407 34.1546 30.361 34.2151C30.4624 34.3766 30.5233 34.5381 30.5233 34.74V35.9915C30.361 35.9915 30.1988 35.9915 30.0162 35.9915L30.0365 34.74ZM32.9165 38.8377L35.3705 36.9806V36.9402C35.5733 35.3859 35.7558 33.8316 35.9384 32.358L32.45 35.0226C32.592 36.2539 32.7542 37.5458 32.9165 38.8377ZM37.8854 43.2786L38.007 43.3392V38.8983C37.4189 38.6157 36.9119 38.4744 36.3845 38.4744C35.8167 38.4744 35.2691 38.6359 34.6404 38.9588L34.4984 39.0396V43.4603L34.8837 43.2584C35.411 42.996 35.9181 42.8749 36.3845 42.8749C36.8713 42.8951 37.358 43.0162 37.8854 43.2786ZM39.954 38.4946C39.4267 38.4946 38.9197 38.6359 38.3315 38.9185V43.3594L38.4532 43.2988C38.9805 43.0364 39.4876 42.9153 39.954 42.9153C40.4205 42.9153 40.9275 43.0364 41.4549 43.2988L41.8402 43.5007V39.08L41.6982 38.9992C41.0695 38.6359 40.5016 38.4946 39.954 38.4946ZM38.1693 34.6189C38.5344 34.8409 38.8386 35.1437 39.0617 35.5272C39.2645 35.8906 39.3862 36.3145 39.3862 36.7384V37.1219C39.5281 37.2229 39.589 37.2632 39.7309 37.3843C40.0757 37.2834 40.4002 37.1623 40.7247 37.0008C40.4002 34.4372 40.0757 31.8736 39.7918 29.3302C38.7169 29.1687 37.642 29.1687 36.5874 29.3302C36.2831 31.8938 35.9789 34.4574 35.6544 37.0008C35.9789 37.1623 36.3034 37.2834 36.6482 37.3843C36.7902 37.2834 36.851 37.243 36.993 37.1219V36.7384C36.9727 35.8704 37.4392 35.063 38.1693 34.6189ZM38.433 32.8627C38.2707 32.8627 38.1085 32.8627 37.9259 32.8627V31.6112C37.9259 31.4295 37.9868 31.2478 38.0882 31.0863C38.1287 31.0258 38.149 31.0056 38.1693 30.945C38.2099 31.0056 38.2301 31.0258 38.2504 31.0863C38.3518 31.2276 38.4127 31.4093 38.4127 31.6112L38.433 32.8627Z" fill="#003C3C"/>
<path d="M69.3821 44.1466C69.3618 44.2677 69.2807 44.3687 69.1793 44.4494C69.0779 44.5302 68.9562 44.5302 68.8345 44.51C68.7128 44.4898 68.6114 44.4292 68.5303 44.3081C68.4492 44.2072 68.4289 44.0861 68.4694 43.965C68.4897 43.8438 68.5709 43.7429 68.6723 43.6622C68.7737 43.6016 68.8953 43.5814 69.017 43.6016C69.1387 43.6218 69.2401 43.6824 69.3213 43.7833C69.3821 43.8842 69.4024 44.0053 69.3821 44.1466ZM65.3867 50.3235L65.7315 49.4959C65.8126 49.294 65.9343 49.1527 66.1168 49.0922C66.2791 49.0316 66.4413 49.0316 66.6239 49.1124C66.8064 49.1931 66.9281 49.3142 66.9889 49.4757C67.0498 49.6372 67.0295 49.8189 66.9484 50.0207L66.6036 50.8282L65.3867 50.3235ZM69.5241 50.2428L69.8891 49.4152L67.5568 50.1015C67.6379 49.8996 67.6582 49.6978 67.6582 49.4959C67.6379 49.2537 67.5771 49.0518 67.4351 48.8701C67.2931 48.6885 67.1309 48.5472 66.8875 48.4462C66.6644 48.3453 66.4413 48.3251 66.2182 48.3453C65.9951 48.3655 65.7923 48.4664 65.6098 48.6279C65.4273 48.7692 65.2853 48.9711 65.1636 49.2335L64.5146 50.7474L68.5911 52.4632L68.8751 51.7971L67.1309 51.0704L67.212 50.8887L69.5241 50.2428ZM66.2182 56.6619C66.0357 56.9445 65.8126 57.1464 65.5287 57.2675C65.2447 57.4088 64.9608 57.4693 64.6566 57.4492C64.3524 57.429 64.0684 57.328 63.7845 57.1464L61.513 55.6324L61.9186 55.0268L64.1901 56.5408C64.3726 56.6619 64.5552 56.7225 64.7377 56.7426C64.9202 56.7628 65.0825 56.7225 65.2447 56.6417C65.407 56.561 65.5287 56.4399 65.6504 56.2784C65.7518 56.1169 65.8126 55.9554 65.8329 55.7737C65.8532 55.592 65.8126 55.4306 65.7315 55.2691C65.6504 55.1076 65.5287 54.9663 65.3461 54.8452L63.0746 53.3312L63.4803 52.7257L65.7518 54.2396C66.0357 54.4213 66.2385 54.6433 66.3602 54.9259C66.4819 55.1883 66.5427 55.4709 66.5224 55.7737C66.5022 56.0967 66.4008 56.3793 66.2182 56.6619ZM63.2166 60.5174L60.1339 57.3684L59.7688 57.7116L60.4786 60.8404L57.3553 60.033L56.9903 60.3761L60.073 63.5251L60.6003 63.0205L58.633 61.0019L60.864 61.5873L61.229 61.2441L60.722 59.0035L62.6893 61.0221L63.2166 60.5174ZM56.9903 65.7859L54.4754 62.1727L55.0838 61.7689L57.5987 65.3822L56.9903 65.7859ZM52.9137 68.1881C52.6095 68.3294 52.3053 68.3899 52.0011 68.3697C51.6969 68.3496 51.4129 68.2486 51.1696 68.0871C50.9262 67.9256 50.7234 67.6834 50.5611 67.3806L49.3645 64.9179L50.0135 64.595L51.2101 67.0375C51.3115 67.2393 51.4332 67.3806 51.5752 67.4816C51.7172 67.5825 51.8794 67.643 52.0619 67.643C52.2445 67.643 52.4067 67.6229 52.5892 67.5219C52.7718 67.4412 52.9137 67.3201 52.9949 67.1788C53.0963 67.0375 53.1571 66.876 53.1571 66.6943C53.1571 66.5126 53.1368 66.331 53.0354 66.1493L51.8388 63.6866L52.4878 63.3636L53.6844 65.8263C53.8264 66.1291 53.8872 66.4319 53.867 66.7145C53.8467 67.0173 53.7453 67.2797 53.583 67.5421C53.4411 67.8449 53.218 68.0468 52.9137 68.1881ZM46.9105 69.5001C46.728 69.6818 46.4846 69.8029 46.2007 69.8837C45.9978 69.9442 45.7748 69.9442 45.5922 69.924C45.4097 69.9039 45.2069 69.8231 45.0446 69.7222C44.8824 69.6213 44.7404 69.48 44.6187 69.3185C44.497 69.157 44.4159 68.9551 44.3551 68.7331C44.2739 68.4303 44.2739 68.1477 44.3348 67.8853C44.3956 67.6229 44.5376 67.4008 44.7201 67.2191C44.9027 67.0375 45.146 66.9164 45.43 66.8356C45.6531 66.7751 45.8559 66.775 46.0384 66.7952C46.2209 66.8154 46.4237 66.8962 46.586 66.9971C46.7482 67.098 46.8902 67.2393 47.0119 67.4008C47.1336 67.5623 47.2147 67.7642 47.2756 67.9862C47.3567 68.289 47.3567 68.5716 47.2958 68.834C47.2958 68.834 47.2958 68.8542 47.2958 68.8744L46.3426 68.3092L45.9978 68.8744L46.9713 69.4598C46.9511 69.4598 46.9308 69.48 46.9105 69.5001ZM48.7358 69.7222L47.9043 69.2175C47.9651 69.0561 48.026 68.8744 48.0462 68.6927C48.0868 68.3899 48.0665 68.1073 48.0057 67.7843C47.9448 67.4614 47.8029 67.2191 47.6203 66.9769C47.4378 66.7347 47.2147 66.553 46.9713 66.3915C46.728 66.23 46.444 66.1493 46.1601 66.0887C45.8762 66.0484 45.5719 66.0484 45.2677 66.1291C44.9635 66.2098 44.6998 66.331 44.4565 66.5126C44.2131 66.6943 44.0306 66.8962 43.8886 67.1586C43.7466 67.4008 43.6452 67.6834 43.6047 67.966C43.5641 68.2688 43.5844 68.5514 43.6452 68.8542C43.7263 69.157 43.848 69.4194 44.0306 69.6616C44.2131 69.9039 44.4362 70.0855 44.6796 70.247C44.9229 70.4085 45.2069 70.4893 45.4908 70.5498C45.7748 70.6104 46.079 70.5902 46.3832 70.5094C46.6874 70.4287 46.9511 70.3076 47.1944 70.1259C47.3364 70.025 47.4581 69.8837 47.5798 69.7626L48.4113 70.2672L48.7358 69.7222ZM41.5563 71.3573L41.5157 70.6911L39.2645 70.8122L39.2036 69.5405L41.2318 69.4396L41.1912 68.8138L39.1631 68.9148L39.1022 67.744L41.3129 67.6229L41.2723 66.9567L38.3315 67.1182L38.5546 71.5187L41.5563 71.3573ZM34.1739 71.3169C33.8291 71.2765 33.5452 71.1756 33.3221 71.0141C33.099 70.8526 32.8962 70.6508 32.7339 70.3883L33.2815 69.9644C33.3829 70.1461 33.5046 70.3076 33.6669 70.4287C33.8291 70.5498 34.0319 70.6306 34.2956 70.6507C34.5389 70.6709 34.7418 70.6508 34.8837 70.57C35.046 70.4893 35.1271 70.3681 35.1474 70.1865C35.1677 70.0452 35.1474 69.924 35.0865 69.8231C35.0257 69.7222 34.9243 69.6415 34.8229 69.5607C34.7215 69.48 34.5795 69.4194 34.4375 69.3588C34.2956 69.2983 34.1536 69.2175 34.0116 69.1368C33.8697 69.0561 33.748 68.9753 33.6263 68.8542C33.5046 68.7533 33.4235 68.612 33.3626 68.4707C33.3018 68.3092 33.2815 68.1275 33.3221 67.9055C33.3424 67.643 33.4438 67.4412 33.5857 67.2595C33.7277 67.0778 33.9305 66.9769 34.1536 66.8962C34.3767 66.8356 34.6404 66.8154 34.904 66.8356C35.1879 66.876 35.4516 66.9567 35.6544 67.098C35.8572 67.2393 36.0398 67.4008 36.1614 67.6027L35.6139 68.0266C35.5124 67.8651 35.3908 67.744 35.2691 67.6632C35.1474 67.5825 34.9851 67.5219 34.8229 67.5017C34.5998 67.4816 34.4375 67.5017 34.2956 67.5623C34.1536 67.6229 34.0928 67.744 34.0725 67.9055C34.0522 68.0468 34.0725 68.1477 34.1536 68.2486C34.2144 68.3496 34.3159 68.4101 34.4375 68.4909C34.5592 68.5514 34.6809 68.6322 34.8229 68.6927C34.9649 68.7533 35.1068 68.834 35.2488 68.9148C35.3908 68.9955 35.5124 69.0964 35.6341 69.1974C35.7558 69.3185 35.8369 69.4396 35.8775 69.6011C35.9384 69.7626 35.9586 69.9644 35.9181 70.1865C35.8775 70.57 35.695 70.8728 35.3908 71.0747C35.0257 71.2967 34.6404 71.3774 34.1739 71.3169ZM28.0287 65.3419L25.3921 67.199L24.9662 64.0298L24.4997 63.8279L22.7353 67.8651L23.4046 68.1477L24.5403 65.5639L24.8648 67.8449L25.3313 68.0468L27.2174 66.7347L26.0817 69.3185L26.751 69.6011L28.5154 65.5639L28.0287 65.3419ZM22.3094 63.2627L22.6947 62.7177L20.2812 61.0422L17.7461 64.6353L20.1798 66.331L20.5652 65.7859L18.7196 64.5142L19.4497 63.4646L21.1128 64.6353L21.4778 64.1105L19.8148 62.9397L20.4841 61.9708L22.3094 63.2627ZM14.3388 61.7286C14.1157 61.5065 13.9535 61.2441 13.8521 60.9817C13.7507 60.6991 13.6898 60.4165 13.7101 60.1339C13.7101 59.8513 13.771 59.5687 13.8927 59.3063C14.0143 59.0438 14.1766 58.8016 14.42 58.5796C14.6431 58.3575 14.8864 58.196 15.1704 58.0749C15.4543 57.9538 15.718 57.8932 16.0222 57.9134C16.3061 57.9134 16.5901 57.974 16.874 58.0749C17.1579 58.1759 17.4013 58.3575 17.6244 58.5796C17.8678 58.842 18.0503 59.0842 18.1517 59.3668C18.2531 59.6292 18.2937 59.9118 18.2937 60.1944H17.6041C17.6244 59.9926 17.5838 59.8109 17.5027 59.6292C17.4216 59.4476 17.2999 59.2659 17.1376 59.0842C16.9754 58.9227 16.8131 58.8218 16.6306 58.7411C16.4481 58.6603 16.2656 58.6401 16.0627 58.6401C15.8802 58.6401 15.6774 58.6805 15.4949 58.7612C15.3123 58.842 15.1298 58.9631 14.9676 59.1246C14.8053 59.2861 14.6836 59.4677 14.5822 59.6494C14.5011 59.8311 14.4402 60.0329 14.4402 60.2146C14.4402 60.3963 14.4605 60.5982 14.5417 60.7798C14.6228 60.9615 14.7242 61.123 14.8864 61.2845C15.069 61.4863 15.2718 61.6075 15.4543 61.6882C15.6368 61.7689 15.8397 61.7891 16.0222 61.7891V62.4754C15.7382 62.4754 15.4543 62.4149 15.1704 62.314C14.8459 62.1727 14.6025 61.9708 14.3388 61.7286ZM10.0392 56.4399C9.85669 56.1573 9.75528 55.8747 9.735 55.5719C9.71472 55.2691 9.77556 54.9865 9.91753 54.7039C10.0595 54.4213 10.2623 54.1992 10.5462 54.0175L12.838 52.5238L13.2437 53.1294L10.9519 54.6231C10.7693 54.7442 10.6477 54.8855 10.5665 55.047C10.4854 55.2085 10.4448 55.37 10.4651 55.5517C10.4854 55.7334 10.5462 55.8948 10.6477 56.0563C10.7491 56.2178 10.891 56.3389 11.033 56.4197C11.1952 56.5004 11.3575 56.5206 11.54 56.5206C11.7226 56.5004 11.9051 56.4399 12.0673 56.3187L14.3591 54.825L14.7647 55.4306L12.473 56.9243C12.189 57.106 11.9051 57.2069 11.6009 57.2271C11.2967 57.2473 11.0127 57.1867 10.7491 57.0454C10.4448 56.9243 10.2217 56.7225 10.0392 56.4399ZM11.1141 48.9912L10.8302 48.3251L6.77394 50.0611L7.88941 52.6247L8.49784 52.3623L7.66631 50.4648L11.1141 48.9912ZM6.99703 44.1466C6.97675 44.0255 6.99703 43.9044 7.05788 43.8035C7.139 43.7025 7.22013 43.642 7.36209 43.6218C7.50406 43.6016 7.60547 43.6218 7.70688 43.6824C7.80828 43.7429 7.86913 43.8438 7.90969 43.9851C7.92997 44.1063 7.90969 44.2274 7.84884 44.3283C7.788 44.4292 7.68659 44.4898 7.54463 44.5302C7.42294 44.5503 7.30125 44.5302 7.19985 44.4696C7.07816 44.3889 7.01731 44.2879 6.99703 44.1466ZM71.0249 37.4651C70.9032 37.5862 70.7409 37.667 70.5584 37.667C70.3556 37.667 70.1934 37.6266 70.0717 37.5055C69.95 37.3843 69.8891 37.2229 69.8689 37.0008L69.8486 36.1126L71.1668 36.0723L71.1871 36.9604C71.2074 37.1825 71.1466 37.344 71.0249 37.4651ZM71.7753 35.3254L67.354 35.4869L67.3743 36.2136L69.2401 36.153V36.3347L67.4148 37.9092L67.4554 38.8175L69.2807 37.2027C69.301 37.4247 69.3618 37.6266 69.4632 37.7881C69.5646 37.9899 69.7269 38.1514 69.9297 38.2523C70.1325 38.3533 70.3556 38.4138 70.599 38.3936C70.8424 38.3936 71.0654 38.3129 71.248 38.1918C71.4305 38.0707 71.5725 37.9092 71.6739 37.6871C71.7753 37.4651 71.8361 37.2229 71.8158 36.9604L71.7753 35.3254ZM67.2729 31.046L68.51 30.7835L68.9359 32.7618L69.5646 32.6205L69.1387 30.6422L70.2948 30.4L70.7612 32.5599L71.4102 32.4186L70.7815 29.5522L66.4616 30.4808L67.0903 33.3673L67.7393 33.226L67.2729 31.046ZM69.3618 27.1299L69.9703 26.8877L68.5911 23.5772L67.9827 23.8194L68.5303 25.1517L65.0622 26.5849L65.3461 27.251L68.8142 25.8178L69.3618 27.1299ZM64.1698 20.8521L65.265 22.5679L65.8126 22.2247L64.7174 20.5089L65.7112 19.8831L66.8875 21.7403L67.4554 21.3971L65.8937 18.9142L62.162 21.2558L63.7439 23.7588L64.3118 23.4157L63.1152 21.5182L64.1698 20.8521ZM63.6831 16.0882L61.7158 16.3708L62.1417 14.4128L61.5535 13.787L61.0262 16.3708L58.268 16.7341L58.8156 17.3397L60.9857 17.0571L60.4786 19.1363L61.0465 19.762L61.6752 17.0773L64.2307 16.714L63.6831 16.0882ZM57.8826 13.9081L58.268 13.4035L56.6455 12.1923L57.3553 11.2436L59.1401 12.5557L59.5254 12.0308L57.1322 10.2948L54.4957 13.8274L56.8889 15.5835L57.2945 15.0587L55.4895 13.7264L56.2399 12.7171L57.8826 13.9081ZM51.9808 8.13494L52.2242 7.52936L49.5876 6.45951L47.9246 10.5371L48.5938 10.7995L49.3037 9.04331L51.1696 9.79019L51.4129 9.18461L49.5471 8.43773L49.9932 7.3275L51.9808 8.13494ZM43.8683 8.82126C44.1725 8.88182 44.4362 8.86164 44.6796 8.78089C44.9229 8.70015 45.1257 8.53866 45.3083 8.3368C45.4908 8.13494 45.5922 7.87252 45.6531 7.56974C45.6936 7.34769 45.6936 7.12565 45.6733 6.92379C45.6328 6.72193 45.5719 6.54025 45.4705 6.37877C45.3691 6.21728 45.2272 6.07598 45.0649 5.97505C44.9027 5.87412 44.6998 5.79337 44.497 5.753C44.2131 5.69245 43.9292 5.71263 43.6858 5.79338C43.4424 5.87412 43.2396 6.03561 43.0571 6.23747C42.8948 6.43932 42.7731 6.70174 42.7123 7.00453C42.6717 7.22658 42.6717 7.44862 42.692 7.65048C42.7326 7.85234 42.7934 8.03401 42.8948 8.1955C42.9962 8.35699 43.1382 8.49829 43.3004 8.59922C43.4627 8.70015 43.6452 8.78089 43.8683 8.82126ZM43.7466 9.50758C43.4424 9.44703 43.1585 9.32591 42.9151 9.16442C42.6717 9.00294 42.4689 8.80108 42.3067 8.53866C42.1444 8.29643 42.0227 8.03401 41.9822 7.73122C41.9213 7.44862 41.9213 7.14583 41.9822 6.82286C42.043 6.52007 42.1647 6.23747 42.3269 5.99523C42.4892 5.753 42.692 5.55114 42.9354 5.36947C43.1788 5.20798 43.4424 5.08687 43.7263 5.02631C44.0103 4.96575 44.3145 4.96575 44.6187 5.02631C44.9229 5.08687 45.2069 5.20798 45.4503 5.36947C45.6936 5.53096 45.8964 5.73282 46.0587 5.97505C46.2209 6.21728 46.3426 6.4797 46.3832 6.78248C46.4237 7.08527 46.444 7.36788 46.3832 7.69085C46.3223 7.99364 46.2007 8.27624 46.0384 8.51847C45.8762 8.76071 45.6733 8.96256 45.43 9.14424C45.1866 9.32591 44.9229 9.42684 44.639 9.4874C44.3348 9.54796 44.0508 9.56814 43.7466 9.50758ZM37.8042 4.44092L36.9727 4.50148L35.9586 6.37877L34.6809 4.66296L33.8494 4.72352L35.6341 7.08527L35.7761 9.00294L36.5062 8.96256L36.3643 7.02472L37.8042 4.44092ZM32.2472 5.65207L32.0849 5.00612L28.5763 5.85393L28.7385 6.49988L30.1379 6.15672L31.01 9.79019L31.7199 9.6287L30.8478 5.99523L32.2472 5.65207ZM27.3188 10.9812L25.7166 6.88341L26.3859 6.621L27.9881 10.7187L27.3188 10.9812ZM23.871 12.7171C23.5668 12.8786 23.2829 12.9796 22.9989 12.9796C22.715 12.9796 22.4513 12.9392 22.1471 12.8181L22.3296 12.1519C22.5122 12.2529 22.715 12.2932 22.9178 12.2932C23.1206 12.2932 23.3234 12.2327 23.5465 12.1116C23.7696 11.9905 23.9116 11.8492 23.9724 11.6877C24.0536 11.5262 24.0535 11.3647 23.9521 11.2234C23.871 11.1023 23.7899 11.0013 23.6682 10.961C23.5465 10.9206 23.4248 10.9004 23.2829 10.9004C23.1409 10.9004 22.9989 10.9206 22.8367 10.961C22.6744 10.9812 22.5325 11.0215 22.3702 11.0417C22.208 11.0619 22.0457 11.0619 21.9037 11.0417C21.7415 11.0215 21.5995 10.961 21.4576 10.8802C21.3156 10.7793 21.1939 10.638 21.0925 10.4563C20.9708 10.2343 20.91 10.0122 20.9302 9.79019C20.9505 9.56814 21.0316 9.36628 21.1736 9.16442C21.3156 8.98275 21.4981 8.82126 21.7415 8.67996C21.9849 8.53866 22.2485 8.45792 22.5122 8.45792C22.7758 8.45792 22.9989 8.4781 23.2017 8.55885L23.0192 9.22498C22.8367 9.16442 22.6744 9.12405 22.5122 9.14424C22.3499 9.14424 22.208 9.2048 22.0457 9.28554C21.8632 9.38647 21.7212 9.50758 21.6604 9.64889C21.5995 9.79019 21.5995 9.93149 21.6806 10.0526C21.7415 10.1737 21.8429 10.2545 21.9443 10.2747C22.0457 10.315 22.1674 10.315 22.3094 10.315C22.4513 10.315 22.5933 10.2948 22.7353 10.2545C22.8975 10.2343 23.0395 10.1939 23.2017 10.1737C23.364 10.1535 23.5262 10.1535 23.6885 10.1939C23.8507 10.2343 23.9927 10.2747 24.1347 10.3756C24.2766 10.4765 24.3983 10.6178 24.52 10.8197C24.7025 11.1628 24.7431 11.506 24.6214 11.8492C24.5606 12.1923 24.2969 12.4749 23.871 12.7171ZM16.732 12.9998L17.4216 12.4345C17.6041 12.2932 17.7664 12.2327 17.9489 12.2529C18.1314 12.2731 18.2734 12.3538 18.3748 12.4951C18.4965 12.6566 18.5573 12.8181 18.5371 12.9796C18.5168 13.1411 18.4154 13.3025 18.2531 13.4438L17.5636 14.009L16.732 12.9998ZM20.4435 14.8569L21.1533 14.2715L18.7601 13.787C18.9224 13.6255 19.0441 13.464 19.1252 13.3025C19.2266 13.0805 19.2469 12.8786 19.2266 12.6566C19.2063 12.4345 19.1049 12.2327 18.9427 12.0308C18.7804 11.8492 18.5979 11.7079 18.3951 11.6271C18.1923 11.5464 17.9692 11.5464 17.7258 11.5867C17.5027 11.6271 17.2593 11.7482 17.0565 11.9097L15.7788 12.9392L18.5776 16.3506L19.1455 15.8863L17.9692 14.433L18.1111 14.3118L20.4435 14.8569ZM16.874 18.026L16.367 17.6021L14.927 19.3179L13.9535 18.5105L15.2718 16.9562L14.785 16.5525L13.4667 18.1068L12.5744 17.3397L13.9941 15.6441L13.487 15.2202L11.6009 17.4608L14.9878 20.2869L16.874 18.026ZM10.2217 19.2776L9.83641 19.9437L11.9659 22.6486L8.55869 22.1036L8.15306 22.7899L12.8583 23.4762L13.122 23.0523L10.2217 19.2776ZM11.0736 27.1501L6.99703 25.4545L7.28097 24.7883L11.3575 26.4839L11.0736 27.1501ZM10.2217 29.3705L5.92213 28.3209L5.75988 29.0274L8.72094 29.7541L5.192 31.2882L5.07032 31.7727L9.36994 32.8223L9.53219 32.1158L6.57113 31.3891L10.0798 29.855L10.2217 29.3705ZM9.04544 36.6577C9.02516 36.9806 8.94403 37.2834 8.78178 37.5458C8.61953 37.8083 8.39644 37.9899 8.13278 38.1514C7.86913 38.3129 7.56491 38.3533 7.24041 38.3331L4.50244 38.212L4.543 37.4853L7.28097 37.6064C7.50406 37.6064 7.68659 37.5862 7.84884 37.5055C8.01109 37.4247 8.13278 37.3036 8.23419 37.1623C8.33559 37.0008 8.37616 36.8393 8.39644 36.6577C8.41672 36.4558 8.37616 36.2943 8.29503 36.1328C8.21391 35.9713 8.09222 35.8502 7.95025 35.7493C7.788 35.6484 7.60547 35.608 7.40266 35.5878L4.66469 35.4667L4.70525 34.74L7.44322 34.8611C7.76772 34.8813 8.07194 34.962 8.31531 35.1235C8.55869 35.285 8.7615 35.5071 8.90347 35.7695C9.00488 36.0117 9.06572 36.3145 9.04544 36.6577Z" fill="#003C3C"/>
<path d="M131.382 16.8148C131.382 15.8459 132.173 15.0587 133.146 15.0587C134.12 15.0587 134.911 15.8459 134.911 16.8148C134.911 17.7838 134.12 18.571 133.146 18.571C132.173 18.571 131.382 17.7838 131.382 16.8148ZM93.2126 17.158V28.0382C93.2126 33.3875 96.2345 36.3346 101.589 36.3346C107.024 36.3346 110.066 33.4077 110.066 27.9171V17.158C110.066 16.0478 110.614 14.9981 111.527 14.3724L112.297 13.8273H105.848L106.74 14.3724C107.734 14.9981 108.342 16.068 108.342 17.2388V27.2913C108.342 29.6127 108.342 34.6794 102.38 34.6794C96.9241 34.6794 96.2345 30.622 96.2345 27.2913V17.1378C96.2345 16.0276 96.7821 14.9981 97.6745 14.3724L98.4451 13.8475H91.0222L91.7929 14.3925C92.665 15.0183 93.2126 16.0478 93.2126 17.158ZM131.848 25.0911V32.8627C131.848 33.8518 131.402 34.8005 130.652 35.4465L130.124 35.8905H136.351L135.783 35.4465C134.951 34.8005 134.444 33.8114 134.444 32.7617V20.2868L130.104 21.9824L130.794 22.6486C131.463 23.2945 131.848 24.1827 131.848 25.0911ZM185.553 34.962C183.951 34.962 182.105 33.2866 181.537 31.9745L179.631 34.1949C180.584 35.4061 183.302 36.3346 185.127 36.3346C188.798 36.3346 191.353 34.5381 191.353 31.6515C191.353 29.2494 189.974 28.1997 187.683 27.2913L186.101 26.6454C184.235 25.8985 182.896 25.1314 182.896 23.6982C182.896 22.265 183.971 21.5787 185.472 21.5989C187.987 21.6191 189.244 24.2231 189.244 24.2231C189.792 23.1936 190.035 22.7293 190.664 21.5585C189.508 20.953 187.723 20.2061 185.837 20.2061C182.47 20.2061 180.28 21.8613 180.28 24.5461C180.28 27.2106 182.328 28.1997 184.296 28.987L185.938 29.6531C187.459 30.2789 188.555 30.8844 188.555 32.3782C188.575 34.1546 187.378 34.962 185.553 34.962ZM139.19 24.5259L143.571 35.8905C143.591 35.8905 145.599 35.8905 145.619 35.8905L150.183 24.5057C150.487 23.7588 150.892 23.0523 151.399 22.4064C151.906 21.7806 152.495 21.2154 153.164 20.7511H148.175L148.195 20.7713C148.864 21.6595 149.027 22.8303 148.641 23.8799L145.721 31.5506C145.538 32.035 145.376 32.4993 145.234 32.9838C145.092 32.5195 144.95 32.035 144.767 31.5506L141.786 23.8799C141.644 23.4964 141.563 23.0927 141.563 22.7091C141.563 22.0228 141.786 21.3365 142.212 20.7511H136.209C137.547 21.6797 138.602 22.9917 139.19 24.5259ZM195.754 18.571C196.728 18.571 197.519 17.7838 197.519 16.8148C197.519 15.8459 196.728 15.0587 195.754 15.0587C194.781 15.0587 193.99 15.8459 193.99 16.8148C193.99 17.7838 194.781 18.571 195.754 18.571ZM152.434 25.9994C153.367 22.7091 156.571 20.3272 159.958 20.3272C163.345 20.3272 166.306 22.7091 167.239 25.9994C167.381 26.4637 167.462 26.9684 167.523 27.4528H155.618C155.618 27.473 155.618 27.4932 155.618 27.5134V27.5739C155.618 27.6345 155.618 27.6749 155.598 27.7354C155.598 27.796 155.598 27.8565 155.598 27.9171C155.598 27.9777 155.598 28.018 155.598 28.0786C155.598 28.1392 155.598 28.1795 155.598 28.2401C155.598 28.3006 155.598 28.341 155.598 28.4016C155.74 31.6717 157.768 34.2959 160.485 34.5179C160.607 34.5179 160.729 34.5381 160.85 34.5381C163.142 34.5381 165.11 32.8021 165.88 30.3596H167.32C166.468 33.7912 163.548 36.3145 160.08 36.3145C155.942 36.3145 152.13 32.7214 152.13 28.3006C152.13 27.9979 152.15 27.7152 152.17 27.4326C152.19 26.9482 152.292 26.4637 152.434 25.9994ZM155.821 25.9994H163.974C163.386 23.5973 162.128 21.821 160.222 21.6595C160.12 21.6595 159.999 21.6393 159.897 21.6393C157.849 21.6393 156.47 23.456 155.821 25.9994ZM168.78 35.4465L168.253 35.8905H174.662L174.013 35.4465C173.1 34.8207 172.553 33.771 172.553 32.6608V25.3131C175.291 22.7293 178.597 23.6377 178.597 23.6377V20.1657C174.074 20.1657 172.37 23.7386 172.37 23.7386L172.066 20.2868L168.375 21.9824L169.085 22.7697C169.653 23.3955 169.957 24.2029 169.957 25.0305V32.8627C169.977 33.8518 169.531 34.8005 168.78 35.4465ZM153.955 58.6603L150.73 54.0377L153.935 50.1014C154.766 49.072 155.719 48.1434 156.754 47.336L157.159 47.013H151.663C152.616 47.8204 152.779 49.2133 152.028 50.2024C151.318 51.1511 150.608 52.0998 149.878 53.0486L147.871 50.1014C147.222 49.1325 147.363 47.8406 148.215 47.0534L148.276 46.9928H141.482L141.583 47.0736C142.861 47.9617 143.956 49.072 144.828 50.3437L148.094 55.047L144.909 59.0842C144.058 60.1742 143.064 61.1431 141.969 61.991L141.786 62.1322H147.262L147.242 62.1121C146.207 61.3248 146.005 59.8714 146.775 58.8419C147.485 57.8932 148.195 56.9243 148.905 55.9755L151.095 59.1245C151.744 60.0531 151.643 61.3046 150.832 62.1121L150.811 62.1322H157.585L157.565 62.1121C156.166 61.2239 154.928 60.0329 153.955 58.6603ZM197.052 32.7617V20.2868L192.712 21.9824L193.402 22.6486C194.071 23.2945 194.436 24.1625 194.436 25.0911V32.8627C194.436 33.8518 193.99 34.8005 193.24 35.4465L192.712 35.8905H198.959L198.391 35.4465C197.539 34.8005 197.052 33.8114 197.052 32.7617ZM186.202 54.179C186.202 54.2396 186.202 54.2799 186.202 54.3405C186.202 54.401 186.202 54.4414 186.202 54.502C186.202 54.5625 186.202 54.6029 186.202 54.6635C186.344 57.9336 188.372 60.5577 191.09 60.7798C191.212 60.7798 191.333 60.8 191.455 60.8C193.747 60.8 195.714 59.064 196.485 56.6215H197.925C197.073 60.0531 194.152 62.5763 190.684 62.5763C186.547 62.5763 182.734 58.9832 182.734 54.5625C182.734 54.2597 182.754 53.9771 182.775 53.6945C182.815 53.1899 182.916 52.7054 183.058 52.2411C183.991 48.9508 187.196 46.5689 190.583 46.5689C193.97 46.5689 196.931 48.9508 197.864 52.2411C198.006 52.7054 198.087 53.2101 198.148 53.6945H186.243C186.243 53.7147 186.243 53.7349 186.243 53.7551V53.8157C186.243 53.8762 186.243 53.9166 186.243 53.9771C186.202 54.0781 186.202 54.1184 186.202 54.179ZM186.445 52.2613H194.598C193.99 49.8592 192.753 48.0828 190.826 47.9214C190.725 47.9214 190.623 47.9012 190.502 47.9012C188.474 47.9012 187.074 49.7179 186.445 52.2613ZM219.97 20.7309C220.944 21.6191 221.289 22.9917 220.863 24.2231C220.011 26.6454 217.841 32.8223 217.638 33.5288C217.455 32.8425 214.352 24.3644 214.352 24.3644C213.866 23.0523 214.271 21.5989 215.366 20.7107L209.586 20.6905H204.922V15.3009L202.265 17.6223V20.7107H199.689V22.3054H202.265V32.8223C202.265 34.4573 203.096 36.153 205.895 36.153C207.173 36.153 208.593 35.6887 209.789 34.7601L209.525 34.0133C206.199 34.7803 204.942 34.2353 204.942 32.0149V22.3256H210.702L215.833 35.8905H216.806C216.806 35.8905 214.758 40.3718 211.472 40.3718L212.73 42.5923C215.752 41.7243 217.739 37.243 219.484 32.6204L222.972 23.3349C223.256 22.588 223.702 21.9219 224.29 21.3971L225 20.7511L219.97 20.7309ZM177.988 58.3373V48.6682H181.882V47.0332H177.988V41.6234L175.331 43.9447V47.0332H172.756V48.6682H175.331V59.1649C175.331 60.8 176.163 62.4956 178.962 62.4956C180.239 62.4956 181.659 62.0313 182.856 61.1028L182.592 60.3559C179.246 61.123 177.988 60.5577 177.988 58.3373ZM106.193 52.4228C106.193 57.6913 101.954 62.435 96.5387 62.435C92.8475 62.435 90.8802 60.5174 90.8802 56.5811C90.8802 51.3126 95.119 46.5689 100.534 46.5689C104.246 46.5689 106.193 48.4866 106.193 52.4228ZM103.15 50.9089C103.15 48.8903 102.522 47.7599 100.534 47.7801C96.7212 47.8002 93.963 53.2706 93.963 58.1152C93.963 60.1338 94.5917 61.2643 96.5793 61.2441C100.372 61.2037 103.15 55.7333 103.15 50.9089ZM203.401 49.9399L203.096 46.4882L199.405 48.1838L200.115 48.971C200.683 49.5968 200.987 50.4042 200.987 51.2318V59.064C200.987 60.0531 200.541 61.0018 199.79 61.6478L199.263 62.0919H205.672L205.023 61.6478C204.11 61.022 203.563 59.9724 203.563 58.8621V51.5145C206.301 48.9307 209.607 49.839 209.607 49.839V46.3469C205.104 46.367 203.401 49.9399 203.401 49.9399ZM110.31 45.1559C110.188 45.7615 110.087 46.367 109.965 46.9928H107.065V48.4664L107.044 48.5269H109.681L107.227 61.4257C106.781 63.7875 106.233 65.8263 103.576 68.8138L104.124 69.2781C107.389 67.3604 109.133 65.2813 109.701 62.2736L112.358 48.5471L116.942 48.5068V46.9928H112.662C113.514 42.6326 113.717 39.1607 116.07 39.1607C116.84 39.1607 118.24 39.6048 119.315 40.3718L120.369 38.434C119.882 37.9293 118.483 37.566 117.591 37.566C113.96 37.566 111.161 40.6544 110.31 45.1559ZM122.803 35.4465L122.276 35.8905H128.421L127.873 35.4465C127.082 34.8005 126.616 33.8316 126.616 32.8223V25.3535C126.616 22.366 125.541 20.2868 122.032 20.2868C120.207 20.2868 118.422 21.0943 117.165 22.6284C117.043 21.821 116.861 20.2868 116.861 20.2868L112.885 21.9824L113.636 22.7293C114.265 23.3551 114.63 24.2231 114.63 25.1113V32.8425C114.63 33.8316 114.183 34.7803 113.433 35.4263L112.906 35.8704H119.132L118.564 35.4465C117.712 34.8005 117.226 33.8114 117.226 32.7415V24.647C117.651 23.7992 119.132 22.366 120.876 22.366C123.371 22.366 124.04 23.5973 124.04 25.8178V32.8021C124.04 33.8518 123.574 34.8005 122.803 35.4465ZM160.404 54.179C160.404 54.2396 160.404 54.2799 160.404 54.3405C160.404 54.401 160.404 54.4414 160.404 54.502C160.404 54.5625 160.404 54.6029 160.404 54.6635C160.546 57.9336 162.574 60.5577 165.292 60.7798C165.414 60.7798 165.535 60.8 165.657 60.8C167.949 60.8 169.916 59.064 170.687 56.6215H172.127C171.275 60.0531 168.355 62.5763 164.886 62.5763C160.749 62.5763 156.936 58.9832 156.936 54.5625C156.936 54.2597 156.957 53.9771 156.977 53.6945C157.017 53.1899 157.119 52.7054 157.261 52.2411C158.194 48.9508 161.398 46.5689 164.785 46.5689C168.172 46.5689 171.133 48.9508 172.066 52.2411C172.208 52.7054 172.289 53.2101 172.35 53.6945H160.425C160.425 53.7147 160.425 53.7349 160.425 53.7551V53.8157C160.425 53.8762 160.425 53.9166 160.404 53.9771C160.404 54.0781 160.404 54.1184 160.404 54.179ZM160.648 52.2613H168.801C168.213 49.8592 166.955 48.0828 165.049 47.9214C164.947 47.9214 164.826 47.9012 164.724 47.9012C162.676 47.9012 161.276 49.7179 160.648 52.2613ZM132.822 60.7394C131.97 60.7394 130.855 60.7394 129.435 60.7394L129.475 50.9291H132.274C133.309 50.9291 134.323 51.0502 135.337 51.2722L138.217 51.9182V48.8095L135.174 49.4353C134.242 49.6372 133.309 49.7179 132.355 49.7179H129.435V41.3811C131.037 41.3811 132.274 41.3811 133.187 41.3811C134.424 41.3811 135.641 41.6637 136.756 42.2087L140.164 43.864L139.819 40.0892H124.202L124.973 40.6342C125.886 41.26 126.433 42.3097 126.433 43.4199V58.8419C126.433 59.9522 125.886 60.9817 124.973 61.6074L124.202 62.1524H140.326L140.59 58.2162L137.121 59.8109C135.742 60.4164 134.302 60.7394 132.822 60.7394Z" fill="#003C3C"/>
</g>
<defs>
<clipPath id="clip0_225_581">
<rect width="225" height="76" fill="white"/>
</clipPath>
</defs>
</svg>
