<svg width="225" height="60" viewBox="0 0 225 60" fill="none" xmlns="http://www.w3.org/2000/svg">
<path d="M0 25.5166V1.87494H4.63811V25.5166H0Z" fill="#00548F"/>
<path d="M11.4438 10.6221H11.5093C12.6276 9.10232 14.7647 8.22437 16.7066 8.22437C18.7762 8.22437 20.5517 9.06867 21.5404 10.6221C22.9237 9.27242 25.0601 8.25864 27.0027 8.22437C30.715 8.1901 32.6594 10.5224 32.7255 14.4043V25.4823H28.3486V15.2162C28.3486 13.2578 27.6909 11.2314 25.5227 11.2314C23.4175 11.2314 22.1027 12.5132 22.1027 15.4504V25.5166H17.7264V15.2162C17.7264 12.8528 16.7072 11.2314 14.832 11.2314C12.7586 11.2314 11.4781 12.682 11.4781 15.5533V25.5166H7.10181V8.62939H11.4438V10.6221Z" fill="#00548F"/>
<path d="M43.7267 10.9274C46.224 10.9274 47.4746 13.8322 47.4746 16.7359C47.4746 19.7081 46.4896 23.2199 43.564 23.2199C41.1944 23.2199 39.5168 20.8222 39.5168 17.2761C39.5162 13.3917 40.9638 10.9274 43.7267 10.9274ZM39.5162 8.62937H35.1437V33.9608H39.5162V23.4224C40.735 24.9109 42.4418 25.921 44.4473 25.921C49.1521 25.921 52.112 21.1611 52.112 16.7022C52.112 12.9867 50.0087 8.22498 44.8451 8.22498C42.8714 8.22498 40.7343 9.23876 39.5817 10.9598H39.5162V8.62937Z" fill="#00548F"/>
<path d="M58.3803 15.0454C58.3472 12.7867 59.4637 10.7236 61.9648 10.7236C64.1343 10.7236 65.0232 12.4795 64.858 15.0454H58.3803ZM68.9737 17.4774C69.2985 12.4465 67.1609 8.22437 62.0309 8.22437C57.3273 8.22437 53.6443 11.5349 53.6443 16.7359C53.6443 22.3095 57.3591 25.9204 62.327 25.9204C64.201 25.9204 66.5362 25.3802 68.773 24.0305L67.5225 21.6671C66.439 22.4422 64.7259 23.0192 63.1163 23.0192C60.3864 23.0192 58.2169 20.6533 58.3167 17.4768L68.9737 17.4774Z" fill="#00548F"/>
<path d="M75.4254 11.6016H75.4909L76.3773 10.285C76.9035 9.574 77.8579 8.22437 79.2057 8.22437C80.1932 8.22437 81.2442 8.76584 82.1669 9.74348L80.523 12.8527C79.7998 12.4801 79.3385 12.277 78.4508 12.277C76.9384 12.277 75.4566 13.5269 75.4566 17.1739V25.5166H71.0815V8.62938H75.4248L75.4254 11.6016Z" fill="#00548F"/>
<path d="M87.9408 8.62934V25.5166H83.5683V8.62934H87.9408ZM83.1412 3.56541C83.1412 2.27934 84.1935 0.9646 85.6741 0.9646C87.1865 0.9646 88.3709 2.24756 88.3709 3.56541C88.3709 5.01599 87.3492 6.39989 85.7371 6.39989C84.1935 6.39989 83.1412 5.01599 83.1412 3.56541Z" fill="#00548F"/>
<path d="M99.8209 15.7221C100.149 20.6851 97.8828 22.9158 96.1391 22.9158C95.0868 22.9158 94.1629 21.9033 94.1629 20.4159C94.1629 18.4918 95.2501 17.2095 97.3871 16.5315L99.8209 15.7221ZM99.7567 23.051C99.7567 23.9626 99.8539 24.9421 100.182 25.5166H104.821C104.293 24.334 104.129 22.7469 104.129 21.3961V14.5077C104.129 9.23815 100.414 8.22437 97.3878 8.22437C95.1192 8.22437 93.1144 8.79886 91.0721 10.5224L92.486 12.6496C93.6393 11.6358 94.9553 10.9274 96.8317 10.9274C98.2456 10.9274 99.5921 11.9069 99.8222 13.4596L95.9402 14.641C92.1244 15.7545 89.8558 17.5789 89.8558 20.7892C89.8558 23.8934 91.9929 25.9198 94.5582 25.9198C96.0718 25.9198 97.5548 24.8742 98.7711 23.8934L99.7567 23.051Z" fill="#00548F"/>
<path d="M106.86 25.5166V0.692322H111.232V25.5166H106.86Z" fill="#00548F"/>
<path d="M140.099 6.16375C138.977 5.55498 137.105 4.84714 135.326 4.84714C130.592 4.84714 127.173 8.25861 127.173 13.6291C127.173 19.2357 130.956 22.545 135.459 22.545C137.237 22.545 138.88 22.0378 140.099 21.3624L141.381 24.3015C139.967 25.1458 137.501 25.9216 135.263 25.9216C127.269 25.9216 122.237 20.5181 122.237 13.5631C122.237 7.11148 127.239 1.47119 135.326 1.47119C137.729 1.47119 139.967 2.34976 141.543 3.29563L140.099 6.16375Z" fill="#00548F"/>
<path d="M150.06 23.4224C146.934 23.4224 146.08 19.8433 146.08 16.8711C146.08 14.0684 147.065 10.7242 150.06 10.7242C153.118 10.7242 154.071 14.0684 154.071 16.8711C154.071 19.8427 153.25 23.4224 150.06 23.4224ZM150.06 25.9204C155.226 25.9204 158.707 22.1064 158.707 16.8711C158.707 11.3997 154.5 8.22437 150.06 8.22437C145.651 8.22437 141.443 11.3997 141.443 16.8711C141.443 22.1064 144.929 25.9204 150.06 25.9204Z" fill="#00548F"/>
<path d="M160.593 25.5166V0.692322H164.97V25.5166H160.593Z" fill="#00548F"/>
<path d="M167.727 25.5166V0.692322H172.099V25.5166H167.727Z" fill="#00548F"/>
<path d="M178.656 15.0454C178.619 12.7867 179.738 10.7236 182.237 10.7236C184.41 10.7236 185.297 12.4795 185.133 15.0454H178.656ZM189.244 17.4774C189.574 12.4465 187.436 8.22437 182.305 8.22437C177.603 8.22437 173.915 11.5349 173.915 16.7359C173.915 22.3095 177.632 25.9204 182.601 25.9204C184.474 25.9204 186.809 25.3802 189.048 24.0305L187.798 21.6671C186.714 22.4422 185.001 23.0192 183.39 23.0192C180.662 23.0192 178.489 20.6533 178.588 17.4768L189.244 17.4774Z" fill="#00548F"/>
<path d="M214.377 15.0454C214.345 12.7867 215.462 10.7236 217.963 10.7236C220.132 10.7236 221.023 12.4795 220.857 15.0454H214.377ZM224.968 17.4774C225.295 12.4465 223.16 8.22437 218.029 8.22437C213.324 8.22437 209.641 11.5349 209.641 16.7359C209.641 22.3095 213.356 25.9204 218.325 25.9204C220.2 25.9204 222.536 25.3802 224.771 24.0305L223.522 21.6671C222.436 22.4422 220.727 23.0192 219.114 23.0192C216.383 23.0192 214.216 20.6533 214.312 17.4768L224.968 17.4774Z" fill="#00548F"/>
<path d="M199.469 10.9274C202.102 10.9274 203.448 13.6634 203.448 16.6007C203.448 19.9779 202.198 23.2199 199.27 23.2199C196.738 23.2199 195.49 20.0446 195.49 16.7683C195.49 13.4939 196.641 10.9274 199.469 10.9274ZM207.823 8.62938H203.448V10.69H203.384C202.463 9.17023 200.488 8.22437 198.482 8.22437C194.008 8.22437 190.851 12.4801 190.851 16.8711C190.851 22.2746 193.714 25.9204 198.088 25.9204C200.589 25.9204 202.298 24.5028 203.384 23.0834H203.448V25.3129C203.448 29.2303 201.213 31.0547 198.317 31.0547C196.081 31.0547 194.206 30.6154 192.596 29.6029L191.739 32.3713C193.681 33.3839 196.182 33.9608 198.646 33.9608C203.548 33.9608 207.823 31.494 207.823 23.9975V8.62938Z" fill="#00548F"/>
<path d="M0 35.6507H4.67177V56.1133H14.5034V59.2886H0V35.6507Z" fill="#549DC5"/>
<path d="M40.1688 44.3953C41.7292 42.774 43.9061 41.9963 46.088 41.9963C50.1376 41.9963 52.077 44.1591 52.077 48.4136V59.2886H47.6814V48.9208C47.6814 46.558 46.6079 45.0047 44.2191 45.0047C41.9667 45.0047 40.2031 46.4546 40.2031 49.2237V59.2886H35.8069V42.4038H40.1694L40.1688 44.3953Z" fill="#549DC5"/>
<path d="M63.4605 44.7018C66.2309 44.7018 67.6491 47.4372 67.6491 50.3732C67.6491 53.7523 66.3362 56.9924 63.2522 56.9924C60.5884 56.9924 59.2731 53.8177 59.2731 50.5421C59.2731 47.2665 60.4856 44.7018 63.4605 44.7018ZM67.6491 59.2885H72.0459V34.468H67.6491V44.3635H67.5799C66.5419 42.8749 64.5358 41.9963 62.286 41.9963C57.6454 41.9963 54.3925 46.2527 54.3925 50.643C54.3925 56.0453 57.4029 59.6923 61.9387 59.6923C64.6387 59.6923 66.4384 58.2748 67.5799 56.8553H67.6491V59.2885Z" fill="#549DC5"/>
<path d="M83.4692 57.1931C80.1832 57.1931 79.2793 53.6146 79.2793 50.6431C79.2793 47.841 80.3166 44.4975 83.4692 44.4975C86.6903 44.4975 87.6915 47.841 87.6915 50.6431C87.6915 53.6146 86.8287 57.1931 83.4692 57.1931ZM83.4692 59.6923C88.9034 59.6923 92.5715 55.8759 92.5715 50.6431C92.5715 45.1741 88.1428 41.9963 83.4692 41.9963C78.8304 41.9963 74.3993 45.1741 74.3993 50.6431C74.3993 55.8759 78.0693 59.6923 83.4692 59.6923Z" fill="#549DC5"/>
<path d="M99.3229 44.3953C100.881 42.774 103.061 41.9963 105.241 41.9963C109.291 41.9963 111.23 44.1591 111.23 48.4136V59.2886H106.835V48.9208C106.835 46.558 105.761 45.0047 103.371 45.0047C101.123 45.0047 99.3566 46.4546 99.3566 49.2237V59.2886H94.9603V42.4038H99.3223V44.3953H99.3229Z" fill="#549DC5"/>
<path d="M24.2404 57.1931C20.9488 57.1931 20.0511 53.6146 20.0511 50.6431C20.0511 47.841 21.0885 44.4975 24.2404 44.4975C27.4596 44.4975 28.4633 47.841 28.4633 50.6431C28.4633 53.6146 27.5956 57.1931 24.2404 57.1931ZM24.2404 59.6923C29.674 59.6923 33.3433 55.8759 33.3433 50.6431C33.3433 45.1741 28.9122 41.9963 24.2404 41.9963C19.601 41.9963 15.1705 45.1741 15.1705 50.6431C15.1705 55.8759 18.8386 59.6923 24.2404 59.6923Z" fill="#549DC5"/>
</svg>
