<svg width="225" height="58" viewBox="0 0 225 58" fill="none" xmlns="http://www.w3.org/2000/svg">
<path fill-rule="evenodd" clip-rule="evenodd" d="M33.7534 25.0393C33.8364 25.2643 33.8784 25.4893 33.8784 25.7064C33.8819 26.1893 33.6569 26.6337 33.2716 26.9291C32.9534 27.1712 32.1239 27.6939 30.9762 27.8666C30.4762 27.9416 30.0557 28.0257 29.7489 28.1053C29.6125 28.1371 29.4989 28.17 29.408 28.1996C29.4648 28.2905 29.4989 28.3928 29.4989 28.495C29.4989 28.7791 29.2603 29.0064 28.9762 29.0064C28.6921 29.0064 28.4534 28.7791 28.4534 28.495V28.4723C28.4648 28.1882 28.5557 27.9723 28.783 27.7905C28.8739 27.7337 28.9534 27.6996 29.0671 27.6541C29.1807 27.62 29.3284 27.5746 29.4989 27.5291C29.8398 27.4496 30.3057 27.3473 30.8512 27.2678C31.8398 27.12 32.6125 26.6428 32.8398 26.4609C33.0784 26.2678 33.1921 26.0405 33.2034 25.745C33.2034 25.6087 33.1694 25.4609 33.1125 25.3018C33.0557 25.1655 32.9307 25.0632 32.7148 24.9723C32.5103 24.9041 32.2375 24.87 32.033 24.87C31.9762 24.87 31.908 24.87 31.8625 24.8814C31.4194 24.9155 30.8739 25.2109 30.4421 25.4837C30.4421 25.4837 27.7489 28.1882 27.4875 28.5291C27.2262 28.8814 26.533 29.7564 25.2375 29.8587C25.3284 29.9041 25.3966 29.995 25.3966 30.0973C25.3966 30.245 25.283 30.3587 25.1353 30.3587H25L25.3637 31.2109H26.6591C26.7955 31.2109 26.9171 31.3246 26.9171 31.4609C26.9171 31.5973 26.8034 31.7223 26.6557 31.7223H21.3944C21.2523 31.7223 21.1375 31.6087 21.1375 31.4609C21.1375 31.3246 21.2512 31.2109 21.3989 31.2109H22.6375L23.0353 30.37H22.8875C22.7512 30.37 22.6262 30.2564 22.6262 30.12C22.6262 30.0178 22.6944 29.9382 22.7739 29.8928L22.6716 29.8814C22.6716 29.8814 21.0353 29.37 20.058 28.0632C19.7512 27.6655 18.7512 26.3018 17.933 26.12L14.933 25.7223C14.7625 25.7109 14.6375 25.5518 14.6489 25.3814C14.6716 25.2109 14.8194 25.0859 15.0012 25.0973L16.0125 25.1996C15.9216 25.1541 15.8648 25.0518 15.8762 24.9382C15.8875 24.8246 15.9898 24.7337 16.1034 24.7223C15.808 24.6655 15.5239 24.1768 15.4898 23.8814C15.4557 23.5746 15.558 23.1768 15.558 23.1768C15.558 23.1768 15.6034 23.4382 15.8421 23.6996C16.0694 23.9723 16.3648 23.9609 16.3648 23.9609C16.3648 23.9609 16.308 23.8928 16.2966 23.5746C16.2398 23.1314 16.8307 22.5632 16.8534 22.7109C16.9671 23.5064 17.2966 23.8018 17.2966 23.8018C17.2966 23.8018 17.3989 23.7678 17.5694 23.4837C17.7398 23.1996 17.6262 22.8018 17.6262 22.8018C17.6262 22.8018 18.1375 23.1541 18.1375 23.62C18.1375 24.0746 18.0921 24.0973 18.0807 24.1655C18.058 24.2678 18.4444 24.0178 18.5012 23.7109C18.5239 23.5746 18.6489 24.2564 18.5125 24.4723C18.308 24.7791 18.1034 24.9837 17.9671 24.995H17.9557C18.0239 25.0518 18.0694 25.1314 18.058 25.2223C18.0466 25.3587 17.933 25.4496 17.808 25.4496C17.9216 25.4609 18.0239 25.4837 18.1148 25.495C18.5466 25.5632 19.3989 25.62 20.1603 25.6541H20.7512C20.6489 25.6087 20.5807 25.5178 20.5807 25.4155C20.5807 25.2678 20.6944 25.1541 20.8421 25.1541H22.6716L23.0694 24.5859C23.0012 24.5405 22.9557 24.4609 22.9557 24.3814C22.9557 24.2337 23.0694 24.12 23.2171 24.12H23.7966C23.6603 24.0405 23.5807 23.9155 23.5807 23.745C23.5807 23.5064 23.7739 23.3132 24.0239 23.3132C24.2739 23.3132 24.4671 23.5064 24.4671 23.7564C24.4671 23.9268 24.3762 24.0518 24.2512 24.1314H24.8875C25.0239 24.1314 25.1375 24.245 25.1375 24.3928C25.1375 24.4837 25.0807 24.5632 25.0012 24.6087L25.308 25.1655H27.2728C27.4205 25.1655 27.5341 25.2791 27.5341 25.4268C27.5341 25.5405 27.4659 25.6314 27.3637 25.6655C28.0228 25.6655 28.5 25.6541 28.625 25.6428C29.0864 25.6087 29.5 25.4496 29.8182 25.2905C29.9319 25.2109 30.0648 25.12 30.2114 25.0291C30.6773 24.745 31.2682 24.4268 31.875 24.3587C31.9432 24.3473 32.0137 24.3473 32.1023 24.3473C32.3637 24.3473 32.6932 24.3814 33 24.495C33.3069 24.6087 33.625 24.8246 33.7637 25.1996L33.7534 25.0393ZM46.6432 31.6053C46.4159 31.6905 46.2228 31.7893 46.0603 31.8893C45.8603 32.0178 45.708 32.1439 45.6103 32.2359C45.5614 32.2814 45.5262 32.3189 45.5046 32.3428C45.4932 32.3541 45.4853 32.3655 45.4819 32.37C45.4819 32.3814 45.4796 32.3814 45.4784 32.3814L45.1603 32.7905L44.8421 32.3814C44.808 32.3359 44.0125 31.3928 42.4671 31.4041C41.6603 31.4041 41.058 31.6655 40.6603 31.9155C40.4671 32.0405 40.308 32.1655 40.2171 32.2678L40.1148 32.3814L40.0921 32.4155V32.4268L39.7739 32.8246L39.4557 32.4155C39.4216 32.37 38.6262 31.4268 37.0921 31.4382C36.2853 31.4382 35.6944 31.6882 35.308 31.9382C35.1148 32.0632 34.9671 32.1882 34.8762 32.2905C34.8307 32.3359 34.7966 32.37 34.7739 32.4041L34.7512 32.4268L34.433 32.8473L34.1034 32.4268C34.0694 32.3928 33.2739 31.4382 31.7398 31.4496C30.8762 31.4496 30.3421 31.5632 30.0466 31.6541C29.8989 31.6996 29.808 31.745 29.7512 31.7791L29.7398 31.7905C29.6716 31.9155 29.3989 32.4382 29.3989 33.7905C29.3989 34.6087 29.6603 35.1996 29.9103 35.5973C30.0353 35.8018 30.1603 35.9496 30.2512 36.0405C30.2966 36.0973 30.3307 36.1314 30.3534 36.1428L30.3762 36.1655L30.3875 36.1768L30.808 36.5064L30.3875 36.8359C30.3648 36.8587 29.3989 37.62 29.3989 39.1882C29.3989 40.0064 29.6603 40.5973 29.9103 40.995C30.0353 41.1882 30.1603 41.3359 30.2512 41.4382C30.2966 41.4837 30.3421 41.5178 30.3648 41.5405L30.3989 41.5632V41.5746L30.808 41.8928L30.3989 42.2223C30.3534 42.2678 29.4103 43.0859 29.4103 44.62C29.4103 45.4382 29.6603 46.0291 29.9103 46.4268C30.0353 46.6314 30.1603 46.7791 30.2512 46.87C30.2966 46.9268 30.3421 46.9496 30.3648 46.9723L30.3989 46.995L30.808 47.3246L30.3989 47.6541C30.3762 47.6768 29.4103 48.4837 29.4103 50.0518C29.4103 50.8587 29.6716 51.4496 29.9216 51.8473C30.0466 52.0518 30.1716 52.1996 30.2625 52.2905C30.308 52.3359 30.3534 52.37 30.3762 52.3928L30.3989 52.4155L30.4103 52.4268L30.8194 52.745L30.4103 53.0746C30.3762 53.1087 29.7966 53.62 29.5466 54.5859C26.8307 55.8246 24.6489 56.3359 24.1148 56.3359C23.6262 56.3359 21.7398 55.9041 19.308 54.8587C19.1034 53.7223 18.4103 53.1087 18.3648 53.0746L17.9557 52.7564L18.3648 52.4382H18.3762L18.3989 52.4155L18.5012 52.3132C18.6034 52.2223 18.7284 52.0746 18.8534 51.87C19.1034 51.4723 19.3648 50.8814 19.3648 50.0746C19.3762 48.5178 18.3989 47.6996 18.3762 47.6768L17.9784 47.3587L18.3875 47.0405H18.3989L18.433 47.0178L18.5353 46.9155C18.6375 46.8246 18.7625 46.6768 18.8875 46.4723C19.1375 46.0746 19.3989 45.4837 19.3989 44.6768C19.4103 43.1359 18.4557 42.3246 18.4103 42.2791L18.0125 41.9553L18.4216 41.6371H18.433L18.4557 41.6143C18.4784 41.5973 18.5239 41.5575 18.5694 41.5121C18.6603 41.4212 18.7853 41.2734 18.9103 41.0746C19.1603 40.6768 19.4216 40.0791 19.4216 39.2678C19.4216 37.7109 18.4557 36.9382 18.433 36.9268L18.0125 36.5973L18.433 36.2678C18.433 36.2678 18.433 36.2609 18.4387 36.2564L18.4614 36.2337C18.4841 36.2223 18.5182 36.1882 18.5637 36.1314C18.6546 36.0405 18.7796 35.8928 18.9046 35.6996C19.1546 35.3018 19.4159 34.7109 19.4159 33.8928C19.4159 32.5518 19.1512 32.0178 19.075 31.8973L19.0603 31.8859C19.0034 31.8541 18.9125 31.8178 18.7648 31.7609C18.4694 31.67 17.9353 31.5564 17.0716 31.5564C15.5262 31.5564 14.7307 32.4996 14.6966 32.545L14.3671 32.9655L14.0489 32.545C14.0489 32.5337 14.0375 32.5223 14.0262 32.5109L13.9239 32.4087C13.833 32.3178 13.6853 32.1928 13.4921 32.0678C13.1023 31.8178 12.5148 31.5564 11.708 31.5564C10.1625 31.5564 9.37844 32.4996 9.33299 32.545L9.01481 32.9541L8.68526 32.545L8.68185 32.5371L8.65912 32.503C8.6364 32.4803 8.60231 32.4462 8.54549 32.4007C8.44322 32.3098 8.29549 32.1848 8.09094 32.0598C7.68185 31.8098 7.0864 31.5598 6.27276 31.5598C4.73412 31.5484 3.94322 32.4916 3.90572 32.5371L3.58753 32.9462L3.25799 32.5371V32.5257L3.23526 32.503L3.13299 32.4007C3.03072 32.3098 2.88299 32.1848 2.67844 32.0598C2.39435 31.8893 2.01935 31.7143 1.54208 31.6234V21.8507C2.01935 21.7598 2.39435 21.5893 2.67844 21.4132C2.88299 21.2882 3.03072 21.1632 3.13299 21.0723L3.23526 20.97L3.24662 20.9359L3.57049 20.5268L3.88867 20.9359C3.92276 20.9814 4.71822 21.9246 6.25572 21.9246C7.06253 21.9246 7.66481 21.6632 8.06253 21.4132C8.25799 21.2768 8.41481 21.1518 8.50572 21.0609C8.56253 21.0155 8.59662 20.97 8.61935 20.9473C8.63072 20.9359 8.63072 20.9246 8.64208 20.9246V20.8916L8.96026 20.4825L9.27844 20.8916C9.3239 20.9371 10.108 21.8803 11.6534 21.8803C12.4625 21.8803 13.0512 21.6257 13.4375 21.3689C13.6307 21.2439 13.7784 21.1189 13.8694 21.028L13.9716 20.9223L13.9944 20.895L14.3125 20.4632L14.6421 20.8837C14.6875 20.9291 15.4716 21.8723 17.0171 21.8723C17.8807 21.8723 18.4148 21.7587 18.7137 21.6678C18.8728 21.6109 18.9637 21.5655 19.0091 21.5428L19.0205 21.5314C19.0887 21.4064 19.3614 20.8837 19.3614 19.5314C19.3614 18.7246 19.1 18.1223 18.85 17.7246C18.725 17.5314 18.6 17.3837 18.5091 17.2928C18.4637 17.2428 18.4182 17.2018 18.3955 17.1859C18.3841 17.1746 18.3728 17.1746 18.3728 17.1632L18.3659 17.1518L17.9455 16.8223L18.3659 16.5041C18.3773 16.4814 19.3546 15.72 19.3432 14.1518C19.3432 13.345 19.0853 12.7541 18.8319 12.3564C18.7069 12.1518 18.5819 12.0041 18.4909 11.9132C18.4455 11.8678 18.4034 11.8337 18.3773 11.8109L18.3432 11.7882V11.7768L17.9341 11.4587L18.3432 11.1291C18.4 11.0837 19.3432 10.2655 19.3319 8.73139C19.3319 7.91321 19.0819 7.3223 18.8319 6.92457C18.7069 6.73139 18.5819 6.58366 18.4909 6.48139C18.4455 6.42457 18.4114 6.39048 18.3773 6.36775L18.3546 6.34503H18.3319L17.9228 6.02685L18.3319 5.70866C18.3546 5.6973 19.3319 4.87912 19.3205 3.31094C19.3205 2.50412 19.0705 1.91321 18.8205 1.51548C18.7409 1.39048 18.6728 1.28821 18.5932 1.20866H30.1137C30.0455 1.28821 29.9659 1.39048 29.8864 1.51548C29.6364 1.91321 29.383 2.50412 29.383 3.31094C29.3784 4.87912 30.3489 5.68594 30.3716 5.70866L30.7762 6.03821L30.3671 6.35639H30.3444C30.333 6.35639 30.3216 6.36775 30.3103 6.37912L30.2034 6.48139C30.1125 6.5723 29.9875 6.72003 29.8625 6.92457C29.6012 7.3223 29.3512 7.91321 29.3512 8.72003C29.3398 10.2655 30.2944 11.0723 30.3398 11.1178L30.7375 11.4473L30.3284 11.7655L30.3171 11.7768C30.3171 11.7768 30.2944 11.7882 30.2944 11.7996L30.1807 11.9018C30.0898 11.9928 29.9648 12.1405 29.8398 12.345C29.5784 12.7428 29.3284 13.3337 29.3284 14.1405C29.3284 15.7087 30.2944 16.47 30.3057 16.4928L30.7262 16.8109L30.3057 17.1405H30.2944L30.2716 17.1632L30.158 17.2655C30.0671 17.3678 29.9421 17.5155 29.8171 17.7087C29.5671 18.1064 29.3057 18.6973 29.3057 19.5155C29.3057 20.8564 29.5671 21.3905 29.6466 21.5041L29.658 21.5155C29.7034 21.5496 29.7944 21.595 29.9421 21.6405C30.2375 21.7428 30.7716 21.845 31.6353 21.845C33.1694 21.8564 33.9648 20.9132 33.9989 20.8678L34.3284 20.4473L34.6466 20.8791V20.8916L34.6694 20.9223L34.7716 21.0246C34.8625 21.1155 35.0103 21.2405 35.2034 21.3655C35.5898 21.6155 36.1807 21.8655 36.9875 21.8655C38.533 21.8655 39.3171 20.9223 39.3625 20.8768L39.6807 20.4678L40.0103 20.8712V20.8916L40.033 20.9143L40.1353 21.0166C40.2375 21.1075 40.3853 21.2325 40.5784 21.3575C40.9762 21.6075 41.5784 21.8689 42.3853 21.8689C43.9307 21.8689 44.7262 20.9257 44.7603 20.8803L45.0784 20.4712L45.408 20.8803L45.4307 20.9109L45.533 21.0132C45.6239 21.1041 45.783 21.2291 45.9762 21.3655C46.1353 21.4678 46.3284 21.5587 46.5557 21.6496V31.7064L46.6432 31.6053ZM42.3705 35.603C42.2909 35.8371 42.1466 35.9348 41.9114 36.0916C41.875 36.1143 41.8375 36.1416 41.8012 36.1655C41.5137 36.37 41.0966 36.4268 41.0909 36.4268C41.0716 36.4382 41.0569 36.4496 41.0569 36.4723C41.0603 36.495 41.0762 36.5064 41.0955 36.5064H41.3978C41.5591 36.5064 41.8103 36.4609 41.9375 36.4382L41.8853 36.5405C41.8512 36.5859 41.7716 36.62 41.6353 36.6996C41.533 36.7564 41.408 36.8132 41.2489 36.9155C40.908 37.1087 40.8171 37.1087 40.8057 37.1087H40.7944C40.7716 37.1087 40.7489 37.1087 40.7489 37.1314C40.7375 37.1428 40.7375 37.1655 40.7603 37.1768L40.7716 37.1882C40.8057 37.2109 40.908 37.2337 40.9762 37.2337C41.0444 37.2337 41.3625 37.1655 41.5103 37.1428L41.4648 37.2678C41.4421 37.3587 41.3171 37.5405 41.2034 37.6314C41.1012 37.7109 40.658 37.8018 40.4875 37.8359C40.4648 37.8359 40.4534 37.8587 40.4534 37.8814C40.4534 37.9041 40.4648 37.9155 40.4875 37.9268C40.4875 37.9268 40.7944 37.9723 40.9648 38.0518C40.9875 38.0632 40.9989 38.0859 41.0103 38.1087C41.033 38.1882 40.9762 38.3132 40.9421 38.3587C40.8966 38.3928 40.6353 38.5746 40.4875 38.5973C40.3171 38.6314 40.1694 38.6541 40.1694 38.6541C40.158 38.6655 40.1353 38.6768 40.1353 38.6996C40.1353 38.7109 40.1466 38.7337 40.1694 38.7337C40.1694 38.7337 40.5784 38.8587 40.6921 38.9155C40.6921 38.9268 40.7148 38.9496 40.7034 39.0064C40.6807 39.0746 40.6353 39.1428 40.5898 39.1996C40.5671 39.245 40.533 39.2791 40.5103 39.3132C40.4875 39.3587 40.4762 39.3587 40.4534 39.3587C40.4194 39.3587 40.3512 39.3246 40.2944 39.2791C40.1353 39.1882 39.908 39.1655 39.8966 39.1655C39.8966 39.1655 39.8739 39.1768 39.8739 39.1882C39.8625 39.1996 39.8625 39.2109 39.8625 39.2223C39.8625 39.2337 39.8625 39.3246 39.9421 39.4268L40.0671 39.5518C40.1353 39.6314 40.2375 39.7109 40.2489 39.7678C40.2716 39.8246 40.2148 39.995 40.0671 40.1996C39.9307 40.3814 39.8739 40.4041 39.8284 40.4041C39.8171 40.3928 39.8171 40.3473 39.8171 40.3018C39.8171 40.2337 39.7944 40.1314 39.7603 40.0291C39.6807 39.8018 39.5103 39.62 39.4989 39.62C39.4875 39.5973 39.4648 39.5973 39.4534 39.6087C39.4421 39.62 39.4307 39.6428 39.4307 39.6541C39.5671 40.0973 39.7262 40.5973 39.7148 40.6655C39.7034 40.7564 39.533 40.87 39.4762 40.87C39.4648 40.87 39.4648 40.8246 39.4534 40.8018C39.4534 40.7564 39.4421 40.7109 39.4194 40.6655C39.3739 40.5632 39.2034 40.4837 39.1807 40.4837C39.1694 40.4723 39.1466 40.4723 39.1466 40.4837C39.1239 40.4837 39.1239 40.495 39.1239 40.5178C39.1239 40.5178 39.1012 40.745 39.1694 40.8814C39.2034 40.9496 39.2262 41.0064 39.2148 41.0405C39.2148 41.0632 39.1921 41.0746 39.1466 41.0973C39.0216 41.1541 38.8853 41.1314 38.7944 41.0518C38.7262 41.0064 38.7262 41.0064 38.7603 40.8814L38.7716 40.8473C38.8171 40.6882 38.7716 40.6087 38.7262 40.5291L38.7148 40.5178C38.6921 40.4837 38.6694 40.4723 38.6466 40.4723C38.5898 40.4723 38.5444 40.5518 38.533 40.5746V40.6087C38.5557 40.7337 38.6012 41.0632 38.5671 41.1541C38.5444 41.2223 38.4762 41.2337 38.3625 41.2337C38.3284 41.2337 38.2944 41.2337 38.2716 41.245C38.2034 41.2564 38.1239 41.2223 38.0784 41.2109C38.0784 41.0632 38.0898 40.3814 38.0784 40.1882C38.0671 39.995 38.1125 39.9041 38.158 39.8814C38.2375 39.8359 38.658 39.5518 38.9421 39.0405L39.2262 38.5291C39.5557 37.9155 40.1125 36.9041 40.4421 36.4496C40.533 36.5518 40.6807 36.5973 40.8057 36.5518C40.9421 36.5064 41.033 36.37 41.0216 36.2223L41.0103 36.0405C41.4762 35.8018 42.1921 35.3928 42.3398 35.2905C42.3739 35.2678 42.3853 35.2678 42.3853 35.2678C42.4194 35.3132 42.3171 35.6428 42.2784 35.7564L42.3705 35.603ZM40.7648 45.2098C40.7262 45.2518 40.6694 45.278 40.608 45.278C40.5909 45.278 40.5762 45.2757 40.5671 45.2734L39.4534 45.02C39.3625 44.9973 39.2944 44.9234 39.2944 44.8325C39.283 44.7439 39.3398 44.6621 39.4194 44.628L39.6466 44.5405L38.1921 43.245C38.1239 43.1882 38.1012 43.1087 38.1239 43.0291C38.1466 42.9496 38.2034 42.8928 38.2944 42.87L39.1012 42.6996L38.1239 41.7337V41.6996L38.1353 41.3246V41.2337L38.2148 41.2678C38.2489 41.2791 38.283 41.2905 38.3057 41.3246L39.6807 42.6996C39.7375 42.7564 39.7603 42.8359 39.7375 42.9155C39.7148 42.995 39.6466 43.0518 39.5671 43.0632L38.783 43.2337L39.8966 44.2337L39.9648 43.9837C39.9875 43.8928 40.0671 43.8359 40.158 43.8359C40.2375 43.8359 40.3171 43.8928 40.3512 43.9723L40.7603 45.0518C40.783 45.12 40.7716 45.1996 40.7262 45.2564L40.7648 45.2098ZM38.2046 46.3121C38.1625 46.2359 38.0944 46.1416 37.9887 46.045C37.8228 45.8928 37.6409 45.8746 37.5716 45.8746C37.5455 45.8746 37.5307 45.8803 37.5284 45.8803C37.5171 45.8803 37.5034 45.8916 37.5 45.903C37.4944 45.9143 37.4978 45.9314 37.5034 45.9416C37.5057 45.9416 37.5648 46.0234 37.5853 46.2143C37.6239 46.5155 37.3887 46.8575 37.3034 46.9098C37.1375 46.3155 36.8557 46.1143 36.8444 46.1075C36.8375 46.1007 36.8296 46.1007 36.8216 46.1007C36.8159 46.1007 36.8103 46.1007 36.8057 46.1041C36.783 46.1121 36.7148 46.1587 36.6012 46.3962C36.5216 46.5621 36.5557 46.7507 36.5898 46.8643C36.4648 46.7803 36.2489 46.5984 36.2262 46.3666C36.1921 46.0712 36.2034 46.0143 36.2148 45.9757V45.9507C36.2148 45.9337 36.2148 45.9166 36.2034 45.9053C36.1921 45.8939 36.1807 45.8893 36.1694 45.8893C36.0898 45.8893 35.8853 46.0848 35.8625 46.3007C35.8284 46.2734 35.783 46.2189 35.7489 46.1371C35.7148 46.0621 35.6694 45.9166 35.7375 45.778C35.8284 45.5621 36.0216 45.3984 36.1353 45.3405H37.7262C37.9194 45.42 38.1239 45.7178 38.1694 45.9155C38.1921 46.0518 38.1921 46.1996 38.1921 46.3132L38.2046 46.3121ZM35.6296 43.2439L34.1728 44.5393L34.4 44.628C34.4864 44.6621 34.5398 44.7439 34.5319 44.8325C34.525 44.9234 34.4614 44.9984 34.3728 45.0189L33.2637 45.2734C33.2523 45.2757 33.2364 45.278 33.2182 45.278C33.1591 45.278 33.1023 45.2518 33.0637 45.2098C33.0137 45.1496 33 45.0734 33.0262 45.0018L33.4353 43.928C33.4694 43.8484 33.5455 43.7962 33.625 43.7962C33.7273 43.803 33.8034 43.8621 33.8262 43.9518L33.8909 44.2053L35.0091 43.2053L34.2216 43.0382C34.1444 43.0155 34.0796 42.9587 34.0569 42.8791C34.0319 42.7996 34.0546 42.7087 34.1114 42.6518L35.4921 41.2768C35.5148 41.2541 35.5444 41.2314 35.583 41.22L35.6705 41.1859L35.6728 41.2768C35.6762 41.4018 35.6841 41.5268 35.6875 41.6518V41.6859L34.7137 42.6518L35.5273 42.8223C35.6069 42.8337 35.675 42.9018 35.6944 42.9814C35.7171 43.0609 35.6944 43.1518 35.6375 43.2087L35.6296 43.2439ZM36.0887 44.3768H37.75C37.9455 44.3768 38.1057 44.5359 38.1057 44.7314C38.1057 44.9246 37.9466 45.0837 37.75 45.0837H36.0887C35.8921 45.0837 35.733 44.9246 35.733 44.72C35.733 44.5155 35.8921 44.3564 36.0887 44.3564V44.3768ZM35.75 36.2121C35.75 36.0166 35.9091 35.8564 36.1046 35.8564H37.7659C37.9614 35.8564 38.1228 36.0155 38.1228 36.2087C38.1228 36.4018 37.9614 36.5609 37.7659 36.5609H36.1046C35.9091 36.5609 35.75 36.4018 35.75 36.1973V36.2121ZM36.1682 36.7916H37.6546C37.7148 37.2871 37.8887 38.853 37.8887 40.3825C37.8887 42.0916 37.6659 43.8848 37.6409 44.0848L37.6296 44.1666H36.1909L36.183 44.0893C36.183 44.0723 35.933 42.203 35.933 40.3825C35.933 38.8234 36.1262 37.228 36.1716 36.7916H36.1682ZM39.6762 35.6268C39.5807 35.6268 39.5034 35.57 39.475 35.4791C39.4523 35.3939 39.4841 35.3041 39.5512 35.2553L40.4773 34.5791C40.5341 34.5359 40.6205 34.528 40.6887 34.5609C40.7409 34.5837 40.7796 34.6291 40.7955 34.6859C40.8 34.6973 40.8012 34.72 40.8012 34.7314L40.85 35.8678C40.8534 35.9587 40.7978 36.0382 40.7137 36.0609C40.6307 36.0837 40.5319 36.0609 40.4807 35.9814L40.3364 35.7882L39.4978 37.4473C39.4603 37.5155 39.3841 37.5609 39.3012 37.5609C39.2171 37.5609 39.1421 37.5155 39.1023 37.4359L38.7228 36.6859L37.9432 38.0609L37.9262 37.8337L37.8921 37.4473L37.8762 37.2768L38.5466 36.1064C38.5921 36.0382 38.6603 35.9928 38.7398 35.9928C38.8307 35.9928 38.8989 36.0382 38.933 36.1178L39.308 36.8337L39.9444 35.5723L39.683 35.5837L39.6762 35.6268ZM36.35 35.0189C36.35 35.0189 36.2898 34.9359 36.2705 34.7439C36.2307 34.4416 36.4671 34.1007 36.5512 34.0507C36.7171 34.6439 36.9989 34.8462 37.0103 34.8541C37.0216 34.8621 37.033 34.8632 37.0444 34.8575C37.0557 34.8496 37.1353 34.803 37.2375 34.5621C37.3057 34.3984 37.283 34.2098 37.2489 34.0962C37.3625 34.1825 37.5784 34.3621 37.6125 34.5962C37.6466 34.8916 37.6353 34.9484 37.6239 34.9859L37.6125 35.0087C37.6125 35.028 37.6125 35.0428 37.6239 35.0541C37.6239 35.0655 37.6466 35.07 37.658 35.07C37.7262 35.07 37.9307 34.8768 37.9648 34.6609C37.9875 34.6871 38.033 34.7439 38.0671 34.8223C38.0898 34.8905 38.1353 35.0382 38.0784 35.1746C37.9762 35.3905 37.783 35.5496 37.6694 35.6064H36.0898C35.8966 35.5268 35.6921 35.2314 35.6466 35.0268C35.6125 34.9018 35.6125 34.7428 35.6239 34.6291C35.6694 34.6973 35.7375 34.7996 35.8398 34.8905C35.9989 35.0382 36.1807 35.0609 36.2603 35.0609H36.2944C36.3057 35.0496 36.3171 35.0496 36.3284 35.0268C36.3284 35.0155 36.3284 35.0041 36.3171 34.9928L36.35 35.0189ZM34.4807 36.8791L34.85 36.1518C34.8887 36.0723 34.9603 36.0268 35.0432 36.0268C35.1228 36.0268 35.1989 36.0723 35.2364 36.1405L35.9012 37.3109L35.8864 37.47L35.8523 37.8564L35.833 38.0837L35.0546 36.7087L34.675 37.4473C34.6353 37.5155 34.5614 37.5609 34.4784 37.5609C34.3989 37.5609 34.3194 37.5155 34.2853 37.4359L33.4444 35.7768L33.308 35.97C33.2625 36.0382 33.1603 36.0723 33.0807 36.0382C33.0012 36.0041 32.9444 35.9246 32.9444 35.8337L32.9898 34.6973C32.9898 34.6859 33.0012 34.6746 33.0012 34.6518C33.0239 34.595 33.058 34.5496 33.1148 34.5268C33.183 34.4928 33.2739 34.4928 33.3307 34.5382L34.2625 35.2087C34.3307 35.2541 34.3648 35.345 34.3421 35.4246C34.308 35.5268 34.2398 35.5837 34.1375 35.5837L33.8762 35.5723L34.5239 36.8337L34.4807 36.8791ZM32.8137 38.2768C32.7841 38.2314 32.7273 38.1064 32.7512 38.0268C32.7625 38.0041 32.7739 37.9814 32.808 37.97C32.9784 37.8905 33.2853 37.845 33.2853 37.845C33.308 37.8337 33.3194 37.8223 33.3194 37.7996C33.3194 37.7768 33.308 37.7541 33.2853 37.7541C33.1262 37.72 32.683 37.6291 32.5807 37.5496C32.4557 37.4587 32.3421 37.2768 32.308 37.1859L32.2739 37.0609C32.4216 37.0837 32.7512 37.1518 32.8194 37.1518C32.8989 37.1518 32.9898 37.1178 33.0353 37.1064C33.0466 37.1064 33.0466 37.095 33.058 37.095C33.0807 37.0837 33.0807 37.0609 33.0694 37.0382C33.058 37.0155 33.0353 37.0155 33.0239 37.0155C33.0125 37.0155 32.9216 37.0268 32.5921 36.8337C32.433 36.7314 32.308 36.6746 32.2057 36.6178C32.0694 36.5496 31.9898 36.5041 31.9671 36.4587L31.9216 36.3564C32.0466 36.3791 32.2966 36.4359 32.4671 36.4359H32.7739C32.7966 36.4359 32.808 36.4132 32.808 36.4018C32.808 36.3791 32.7966 36.3564 32.7739 36.3564C32.7739 36.3564 32.3534 36.2882 32.0694 36.095L31.9557 36.0155C31.7171 35.8564 31.5694 35.7541 31.5012 35.5268C31.4671 35.4132 31.3648 35.0837 31.3989 35.0496C31.3989 35.0496 31.4216 35.0496 31.4444 35.0723C31.6034 35.1632 32.308 35.5723 32.7739 35.8109L32.7625 35.9928C32.7625 36.1405 32.8421 36.2768 32.9898 36.3223C33.1262 36.3678 33.2625 36.3223 33.3534 36.22C33.683 36.6632 34.2398 37.6746 34.5694 38.2882C34.6944 38.5155 34.7966 38.6973 34.8648 38.8109C35.1603 39.3223 35.5694 39.6064 35.6489 39.6518C35.6944 39.6632 35.7398 39.7655 35.7284 39.9587C35.7171 40.1405 35.7284 40.8223 35.7284 40.97C35.683 40.9814 35.6034 41.0155 35.5353 41.0041C35.5125 40.9928 35.4784 40.9928 35.4557 40.9928C35.3421 40.9928 35.2739 40.9814 35.2512 40.9132C35.2171 40.8109 35.2625 40.4814 35.2853 40.3678C35.2966 40.3564 35.2853 40.345 35.2853 40.3337C35.2739 40.3109 35.2284 40.2314 35.1716 40.2314C35.1489 40.2314 35.1262 40.2428 35.1034 40.2768L35.0921 40.2882C35.0466 40.3678 35.0012 40.4359 35.0466 40.6064L35.058 40.6405C35.0921 40.7541 35.0921 40.7541 35.0353 40.8109C34.9444 40.8905 34.7966 40.9132 34.683 40.8564C34.6489 40.8337 34.6148 40.8223 34.6148 40.7996C34.6034 40.7655 34.6262 40.7087 34.6603 40.6405C34.7284 40.5041 34.7057 40.2882 34.7057 40.2768C34.7057 40.2655 34.7057 40.2541 34.6944 40.2428H34.6603C34.6489 40.2541 34.4784 40.3337 34.4216 40.4359C34.3989 40.4814 34.3989 40.5382 34.3875 40.5837C34.3875 40.6064 34.3875 40.6518 34.3762 40.6518C34.3307 40.6518 34.1603 40.5268 34.1489 40.4473C34.1375 40.3791 34.2853 39.8791 34.433 39.4359C34.433 39.4132 34.433 39.3905 34.4103 39.3905C34.3989 39.3791 34.3762 39.3791 34.3648 39.3905C34.3534 39.4018 34.183 39.5723 34.1034 39.7996C34.0694 39.9018 34.0466 40.0041 34.0466 40.0837C34.0466 40.1178 34.0353 40.1632 34.0239 40.1859C33.9898 40.1746 33.933 40.1518 33.7966 39.9814C33.6489 39.7655 33.5921 39.6064 33.6148 39.5382C33.6375 39.4814 33.7284 39.3905 33.808 39.3223L33.933 39.1973C34.0239 39.095 34.0239 39.0041 34.0239 38.9928C34.0239 38.9814 34.0239 38.97 34.0125 38.97C34.0125 38.9587 34.0012 38.9473 33.9898 38.9473C33.9784 38.9587 33.7625 38.97 33.5921 39.0723C33.5353 39.1064 33.4671 39.1518 33.433 39.1518C33.4216 39.1518 33.4103 39.1405 33.3875 39.1064C33.3762 39.0723 33.3421 39.0268 33.308 38.9928C33.2625 38.9359 33.2171 38.8678 33.2057 38.7996C33.1944 38.7541 33.2171 38.72 33.2284 38.72C33.3421 38.6632 33.7512 38.5382 33.7512 38.5382C33.7739 38.5268 33.7853 38.5155 33.7853 38.4928C33.7853 38.47 33.7739 38.4587 33.7512 38.4587C33.7512 38.4587 33.6148 38.4473 33.4444 38.4132C33.2966 38.3791 33.0353 38.1973 32.9989 38.1746L32.8137 38.2768ZM3.91253 7.92571C4.50344 8.43707 6.1739 9.72116 7.98072 9.74162H8.11253V6.0598H6.29435V4.29844H8.11253V2.4848H9.86253V4.29389H11.6353V6.05525H9.87503V9.74389L10.0114 9.74162C11.8046 9.7098 13.4546 8.44048 14.0455 7.93253V12.9155C13.4546 12.4155 11.8046 11.1428 10.0114 11.1087H9.87503V15.0632H11.6864V16.8246H9.87276V18.9609H8.1114V16.8246H6.33867V15.0632H8.11367V11.1075L7.98072 11.1109C6.1739 11.1314 4.50344 12.4143 3.91253 12.9178V7.93707V7.92571ZM30.7159 0.448436H0.715942V32.0393C0.715942 34.7291 1.79208 37.3803 2.96594 39.8916C4.80231 43.8291 8.71935 48.8212 13.1114 52.0393C13.4012 52.2507 13.6932 52.4541 13.9841 52.653C14.0841 52.7212 14.183 52.7814 14.2819 52.8462C14.4728 52.9712 14.6637 53.0962 14.8534 53.2166C14.9784 53.2928 15.0921 53.3621 15.2171 53.4325C15.3875 53.5382 15.558 53.6371 15.7284 53.7359L16.1034 53.9473L16.5807 54.2087C16.7057 54.2768 16.8307 54.3337 16.9557 54.4018C17.1148 54.4814 17.2625 54.5496 17.4103 54.6291L17.7853 54.8109L18.2284 55.0155L18.5807 55.1746L19.2966 55.4814C21.6944 56.4814 23.5466 56.8678 24.0694 56.8678H24.0807C24.6375 56.8564 26.7284 56.4018 29.3875 55.2314C29.5694 55.1518 29.7625 55.0609 29.9444 54.9814L30.1375 54.8905L30.6603 54.6405L30.933 54.5041C31.1375 54.4018 31.3421 54.2882 31.558 54.1859C31.7625 54.0723 31.9557 53.97 32.1603 53.8564L32.5012 53.6518L33.0125 53.345L33.3421 53.1405C33.5353 53.0268 33.7171 52.9018 33.8989 52.7768C34.0012 52.72 34.0921 52.6518 34.183 52.595C34.4671 52.4018 34.7512 52.2087 35.0239 52.0041C39.4216 48.7882 43.3307 43.7996 45.1716 39.8564C46.3421 37.345 47.4216 34.6973 47.4216 32.0041V0.448436H30.7159ZM58.7841 19.7155V0.446164H61.7046V17.0848H70.9853V19.7098H58.7841M80.483 9.07685C79.9682 8.56207 79.2671 8.29275 78.4535 8.29275C77.6398 8.29275 76.9648 8.56207 76.4421 9.07685C75.6012 9.91548 75.4875 11.3496 75.4875 12.8382C75.4875 14.3268 75.5898 15.7587 76.4307 16.5996C76.9421 17.1109 77.6239 17.4109 78.4307 17.4109C79.2375 17.4109 79.9421 17.1121 80.4535 16.5984C81.2944 15.7598 81.3966 14.3257 81.3966 12.8371C81.3966 11.3484 81.283 9.91662 80.4421 9.07571L80.483 9.07685ZM82.5671 18.2496C81.6694 19.17 80.3171 19.8723 78.4535 19.8723C76.5785 19.8723 75.2603 19.1678 74.3625 18.2496C73.0671 16.8973 72.7375 15.1643 72.7375 12.8371C72.7375 10.5382 73.0557 8.80639 74.3625 7.45298C75.2489 6.53253 76.5785 5.83025 78.4421 5.83025C80.3057 5.83025 81.658 6.53253 82.5557 7.45298C83.8512 8.80525 84.1694 10.5382 84.1694 12.8371C84.1694 15.1643 83.8398 16.8973 82.5444 18.2496H82.5671ZM95.6012 19.7098V18.3303C94.6466 19.3587 93.3285 19.8723 91.9421 19.8723C90.533 19.8723 89.3625 19.4132 88.5557 18.6291C87.4989 17.595 87.1694 16.2996 87.1694 14.7541V5.99389H89.9194V14.3553C89.9194 16.4939 91.1353 17.4121 92.6807 17.4121C94.2148 17.4121 95.5216 16.4655 95.5216 14.3553V5.99162H98.283V19.7098H95.5785M107.023 8.29162C104.534 8.29162 104.21 10.428 104.21 12.5939C104.21 14.7598 104.534 16.8973 107.024 16.8973C109.513 16.8973 109.819 14.7609 109.819 12.5939C109.819 10.4291 109.524 8.29162 107.035 8.29162H107.023ZM106.699 25.42C104.616 25.42 103.29 24.9314 101.856 23.6075L103.615 21.8484C104.49 22.6598 105.24 23.0643 106.592 23.0643C108.922 23.0643 109.819 21.4166 109.819 19.5757V17.8166C108.819 19.0075 107.683 19.3848 106.274 19.3848C104.899 19.3848 103.763 18.9257 103.001 18.1689C101.672 16.8428 101.467 14.9212 101.467 12.5939C101.467 10.2678 101.683 8.34616 103.013 7.02003C103.774 6.26207 104.933 5.83025 106.319 5.83025C107.785 5.83025 108.899 6.20753 109.922 7.45298V5.99162H112.603V19.6303C112.603 22.9859 110.388 25.42 106.728 25.42H106.699ZM124.719 19.7098V11.3496C124.719 9.21321 123.503 8.29275 121.96 8.29275C120.418 8.29275 119.117 9.24048 119.117 11.3496V19.7132H116.358V0.442755H119.117V7.37116C120.04 6.34162 121.31 5.82912 122.717 5.82912C124.126 5.82912 125.297 6.28821 126.103 7.0723C127.16 8.09503 127.49 9.40185 127.49 10.9359V19.6973H124.728M136.774 8.27685C134.263 8.27685 133.91 10.3905 133.91 12.8223C133.91 15.2541 134.263 17.3905 136.785 17.3905C139.274 17.3905 139.626 15.2541 139.626 12.8109C139.626 10.3791 139.274 8.26548 136.785 8.26548L136.774 8.27685ZM140.831 18.6405C140.081 19.4018 138.865 19.8564 137.478 19.8564C136.024 19.8564 134.888 19.4814 133.853 18.2314V19.6859H131.138V0.437073H133.899V7.36889C134.899 6.17571 136.035 5.82344 137.501 5.82344C138.888 5.82344 140.081 6.28707 140.831 7.03935C142.16 8.39162 142.376 10.5848 142.376 12.8348C142.376 15.1075 142.16 17.3007 140.831 18.653V18.6405ZM152.592 9.0723C152.081 8.56094 151.376 8.28821 150.569 8.28821C149.763 8.28821 149.081 8.56094 148.569 9.0723C147.728 9.91321 147.626 11.345 147.626 12.8337C147.626 14.3223 147.74 15.7541 148.569 16.595C149.092 17.1064 149.763 17.4018 150.581 17.4018C151.399 17.4018 152.103 17.095 152.615 16.5837C153.444 15.7541 153.558 14.3109 153.558 12.8223C153.558 11.3337 153.444 9.90185 152.603 9.06094L152.592 9.0723ZM154.683 18.2428C153.797 19.1632 152.444 19.8678 150.569 19.8678C148.706 19.8678 147.376 19.1632 146.49 18.2428C145.194 16.8905 144.865 15.1518 144.865 12.8223C144.865 10.5268 145.194 8.79957 146.49 7.4473C147.388 6.52685 148.706 5.8223 150.581 5.8223C152.456 5.8223 153.808 6.52685 154.694 7.4473C156.001 8.79957 156.319 10.5268 156.319 12.8223C156.319 15.1518 156.001 16.8791 154.694 18.2314L154.683 18.2428ZM166.99 9.20866C166.365 8.58366 165.888 8.28821 164.933 8.28821C163.444 8.28821 162.206 9.48139 162.206 11.3678V19.6973H159.444V5.99389H162.149V7.48253C162.853 6.50866 164.263 5.83253 165.808 5.83253C167.138 5.83253 168.138 6.1848 169.081 7.13025L167.001 9.21435M177.831 9.07798C177.319 8.56207 176.615 8.29389 175.808 8.29389C175.001 8.29389 174.319 8.56207 173.808 9.07798C172.967 9.91548 172.865 11.3507 172.865 12.8393C172.865 14.328 172.978 15.7598 173.819 16.6007C174.331 17.1121 175.013 17.4109 175.819 17.4109C176.638 17.4109 177.331 17.1121 177.853 16.5984C178.694 15.7598 178.808 14.3257 178.808 12.8371C178.808 11.3484 178.706 9.91662 177.865 9.07571L177.831 9.07798ZM179.922 18.2484C179.024 19.1689 177.672 19.8734 175.808 19.8734C173.944 19.8734 172.615 19.1689 171.728 18.2484C170.433 16.8962 170.103 15.1643 170.103 12.8371C170.103 10.5382 170.433 8.80639 171.728 7.45298C172.626 6.53253 173.956 5.83025 175.819 5.83025C177.683 5.83025 179.047 6.53253 179.933 7.45298C181.228 8.80525 181.558 10.5382 181.558 12.8371C181.558 15.1643 181.228 16.8973 179.933 18.2496L179.922 18.2484ZM192.956 19.7098V18.3303C192.013 19.3587 190.683 19.8723 189.308 19.8723C187.899 19.8723 186.74 19.4132 185.933 18.6291C184.888 17.595 184.558 16.2996 184.558 14.7541V5.99389H187.319V14.3553C187.319 16.4939 188.547 17.4121 190.081 17.4121C191.626 17.4121 192.922 16.4655 192.922 14.3553V5.99162H195.683V19.7098H192.978M204.388 8.29162C201.899 8.29162 201.581 10.428 201.581 12.5939C201.581 14.7598 201.91 16.8973 204.399 16.8973C206.888 16.8973 207.183 14.7609 207.183 12.5939C207.183 10.4291 206.888 8.29162 204.388 8.29162ZM204.069 25.42C201.99 25.42 200.66 24.9314 199.228 23.6075L200.99 21.8484C201.853 22.6598 202.615 23.0643 203.967 23.0643C206.297 23.0643 207.194 21.4166 207.194 19.5757V17.8166C206.194 19.0075 205.058 19.3848 203.649 19.3848C202.274 19.3848 201.138 18.9257 200.376 18.1689C199.047 16.8428 198.831 14.9212 198.831 12.5939C198.831 10.2678 199.047 8.34616 200.376 7.02003C201.138 6.26207 202.297 5.83025 203.683 5.83025C205.149 5.83025 206.251 6.20753 207.285 7.45298V5.99162H209.967V19.6303C209.967 22.9859 207.751 25.42 204.103 25.42H204.069ZM222.081 19.7098V11.3496C222.081 9.21321 220.865 8.29275 219.331 8.29275C217.797 8.29275 216.49 9.24048 216.49 11.3496V19.7132H213.728V0.442755H216.49V7.37116C217.41 6.34162 218.683 5.82912 220.092 5.82912C221.501 5.82912 222.672 6.28821 223.478 7.0723C224.535 8.09503 224.865 9.40185 224.865 10.9359V19.6973H222.103M65.6819 46.9257C61.7591 46.9257 58.7841 44.2496 58.7841 40.2712V27.4984H61.7046V40.1348C61.7046 42.7064 63.2728 44.303 65.6819 44.303C68.0909 44.303 69.6864 42.7064 69.6864 40.1359V27.4996H72.6091V40.2723C72.6091 44.2496 69.6057 46.9257 65.6819 46.9257ZM84.7841 46.7678V38.4155C84.7841 36.2791 83.566 35.3587 82.025 35.3587C80.483 35.3587 79.1841 36.3132 79.1841 38.4155V46.7791H76.4228V33.0507H79.1307V34.4303C80.0773 33.4018 81.4035 32.8871 82.783 32.8871C84.1807 32.8871 85.3512 33.3462 86.158 34.1325C87.2148 35.1598 87.533 36.4587 87.533 38.0007V46.7689H84.7728M91.1887 46.7689H93.95V33.0507H91.1887V46.7666V46.7689ZM91.1091 30.3428H94.0296V27.4223H91.1091V30.3428ZM103.041 46.7689H100.795L95.766 33.0507H98.6932L101.932 42.7098L105.152 33.0507H108.073L103.039 46.7689M117.707 36.92C117.248 35.8905 116.3 35.1871 115.002 35.1871C113.675 35.1871 112.73 35.8916 112.268 36.92C111.995 37.5143 111.942 37.9473 111.916 38.7859H118.086C118.032 37.9473 117.977 37.5132 117.707 36.92ZM111.917 40.7075C111.917 43.0882 113.133 44.5484 115.406 44.5484C116.951 44.5484 117.761 44.1166 118.735 43.1416L120.497 44.7939C119.09 46.1996 117.764 46.9303 115.356 46.9303C111.919 46.9303 109.185 45.1189 109.185 39.8962C109.185 35.4303 111.486 32.8871 115.003 32.8871C118.685 32.8871 120.822 35.5393 120.822 39.5428V40.7075H111.92H111.917ZM131.425 36.2689C130.802 35.6473 130.316 35.3484 129.368 35.3484C127.88 35.3484 126.635 36.5416 126.635 38.4337V46.7689H123.874V33.0507H126.578V34.5393C127.283 33.5621 128.692 32.8871 130.226 32.8871C131.544 32.8871 132.556 33.2393 133.499 34.1859L131.408 36.2655M139.578 46.9246C137.328 46.9246 135.442 46.5382 133.817 44.9473L135.624 43.1291C136.738 44.2655 138.215 44.5609 139.578 44.5609C141.283 44.5609 142.578 43.9587 142.578 42.6632C142.578 41.7087 142.067 41.1746 140.738 41.0382L138.544 40.845C135.942 40.595 134.488 39.4587 134.488 37.0609C134.488 34.3564 136.783 32.8678 139.647 32.8678C141.726 32.8678 143.453 33.2996 144.726 34.4018L142.988 36.1518C142.124 35.4132 140.908 35.1518 139.601 35.1518C137.919 35.1518 137.113 35.8564 137.113 36.9132C137.113 37.8564 137.658 38.345 139.01 38.4814L140.931 38.6405C143.772 38.8791 145.26 40.1291 145.26 42.5382C145.26 45.4018 142.828 46.8905 139.556 46.8905M148.022 46.72H150.783V33.0507H148.022V46.7666V46.72ZM147.942 30.2882H150.863V27.3689H147.942V30.2893V30.2882ZM158.647 46.72C156.067 46.72 154.885 44.8791 154.885 42.9018V35.1064H153.317V33.0507H154.885V29.1268H157.647V33.0507H160.294V35.1598H157.647V42.8189C157.647 43.8189 158.135 44.4143 159.158 44.4143H160.294V46.7689H158.647M167.522 49.5018C167.249 50.2598 166.931 50.8007 166.522 51.2064C165.76 51.9632 164.76 52.2064 163.703 52.2064H162.59V49.7178H163.294C164.465 49.7178 164.863 49.3655 165.272 48.2575L166.033 46.1189L161.249 33.0507H164.169L167.442 42.7098L170.635 33.0507H173.578L167.51 49.5018" fill="#31165F"/>
</svg>
