<svg width="780" height="236" viewBox="0 0 780 236" fill="none" xmlns="http://www.w3.org/2000/svg">
<g clip-path="url(#clip0_664_564)">
<path d="M276.06 38.68C271.94 33.17 268.06 27.83 264.15 22.31L263.97 22.4C264.06 28.4 264.15 34.57 264.15 40.7V64.25H250.76V0.869995H263.89L282.89 26.43C287 31.94 290.89 37.28 294.79 42.8L294.97 42.71C294.88 36.71 294.79 30.54 294.79 24.42V0.869995H308.19V64.25H295.05" fill="#231F20"/>
<path d="M339.87 20.22C353.61 20.22 363.87 30.02 363.87 42.71C363.87 55.4 353.62 65.21 339.87 65.21C326.12 65.21 315.87 55.41 315.87 42.71C315.87 30.01 326.12 20.22 339.87 20.22ZM339.87 53.74C342.058 53.8036 344.215 53.213 346.066 52.0437C347.917 50.8744 349.376 49.1795 350.258 47.176C351.14 45.1724 351.404 42.9513 351.016 40.7969C350.629 38.6424 349.607 36.6526 348.082 35.0821C346.557 33.5115 344.598 32.4317 342.456 31.9807C340.314 31.5296 338.086 31.728 336.058 32.5503C334.029 33.3726 332.292 34.7815 331.068 36.5967C329.845 38.412 329.191 40.5509 329.19 42.74C329.157 44.1667 329.408 45.5858 329.929 46.9144C330.45 48.243 331.23 49.4547 332.224 50.4786C333.218 51.5025 334.406 52.3182 335.719 52.8781C337.032 53.4381 338.443 53.7311 339.87 53.74Z" fill="#231F20"/>
<path d="M371.55 21.18H384.6V27L384.77 27.08C386.149 25.0461 388.02 23.3938 390.209 22.2766C392.398 21.1595 394.834 20.6137 397.29 20.69C398.235 20.683 399.176 20.8007 400.09 21.04V33.56C398.918 33.2748 397.716 33.1271 396.51 33.12C391.86 33.12 388.01 34.52 384.86 38.2V64.29H371.55" fill="#231F20"/>
<path d="M439.09 62.85C437.09 64.16 433.09 65.21 429.37 65.21C424.99 65.21 420.88 63.81 418.17 60.92C415.89 58.47 414.4 54.92 414.4 48.05V32.21H407.4V21.21H414.4V9.99997L427.71 7.72998V21.21H439.09V32.21H427.71V46.65C427.71 50.85 428.71 54.01 432.71 54.01C434.943 53.896 437.124 53.2953 439.1 52.25" fill="#231F20"/>
<path d="M447.91 0.869995H461.22V25L461.39 25.08C465.064 21.9718 469.708 20.2425 474.52 20.19C476.6 20.1246 478.672 20.4777 480.613 21.2284C482.555 21.9791 484.325 23.112 485.82 24.56C488.44 27.36 489.58 31.13 489.58 37.34V64.22H476.27V39.56C476.27 36.32 475.84 34.74 474.79 33.56C474.215 32.9324 473.508 32.4414 472.719 32.123C471.93 31.8046 471.079 31.6669 470.23 31.72C466.82 31.72 463.58 33.47 461.23 35.31V64.31H447.91" fill="#231F20"/>
<path d="M526.85 60.1299C523.266 63.411 518.579 65.2243 513.72 65.2099C508.72 65.2099 504.97 63.46 502.52 60.92C499.72 58.03 498.4 54.09 498.4 47.7V21.1799H511.71V45.6899C511.71 48.8399 512.23 50.6899 513.37 51.9099C513.975 52.55 514.71 53.0526 515.526 53.3839C516.342 53.7151 517.22 53.8672 518.1 53.8299C521.389 53.6586 524.502 52.2891 526.85 49.9799V21.1799H540.16V64.2499H527V60.2499" fill="#231F20"/>
<path d="M604.67 39.38C604.67 36.14 604.14 34.66 603.09 33.52C602.507 32.9068 601.799 32.4255 601.014 32.1081C600.229 31.7908 599.386 31.6448 598.54 31.68C595.374 31.8454 592.366 33.1158 590.04 35.27C590.115 35.9105 590.145 36.5554 590.13 37.2001V64.25H576.82V39.38C576.82 36.5 576.39 34.74 575.25 33.52C574.668 32.9053 573.96 32.4228 573.175 32.1054C572.39 31.7879 571.546 31.6429 570.7 31.68C567.587 31.8734 564.629 33.1059 562.3 35.18V64.25H549V21.18H562.13V25L562.32 25.08C565.926 21.9411 570.539 20.2022 575.32 20.18C579.96 20.18 585.32 22.02 587.83 26.31C592.48 22.19 597.55 20.18 602.98 20.18C605.014 20.115 607.04 20.4644 608.934 21.2071C610.829 21.9498 612.552 23.0701 614 24.5C616.72 27.3 617.94 31.0701 617.94 37.2001V64.25H604.64" fill="#231F20"/>
<path d="M626.79 0.869995H640.1V23.1L640.28 23.19C643.452 21.2006 647.126 20.1596 650.87 20.19C661.55 20.19 671.18 28.5 671.18 41.89C671.18 55.55 661.29 65.18 647.9 65.18C644.227 65.1748 640.592 64.4336 637.21 63L626.79 64.75M646.93 54.42C654.11 54.42 657.79 48.82 657.79 42.52C657.79 36.22 654.02 31.31 647.46 31.31C644.863 31.3416 642.322 32.0666 640.1 33.41V52.76C642.216 53.8394 644.555 54.4079 646.93 54.42Z" fill="#231F20"/>
<path d="M678.42 21.18H691.42V27L691.59 27.08C692.969 25.0461 694.84 23.3938 697.029 22.2766C699.218 21.1595 701.654 20.6137 704.11 20.69C705.083 20.6634 706.055 20.7677 707 21V33.52C705.824 33.2354 704.62 33.0877 703.41 33.08C698.76 33.08 694.91 34.48 691.76 38.16V64.25H678.46" fill="#231F20"/>
<path d="M721.65 -0.0899588C723.151 -0.072204 724.614 0.389143 725.853 1.23606C727.093 2.08298 728.054 3.27761 728.616 4.66962C729.178 6.06164 729.316 7.58887 729.013 9.05909C728.709 10.5293 727.977 11.8768 726.909 12.9321C725.842 13.9874 724.486 14.7033 723.012 14.9897C721.538 15.2761 720.013 15.1203 718.627 14.5418C717.242 13.9632 716.059 12.9878 715.227 11.7384C714.394 10.489 713.95 9.02129 713.95 7.52003C713.971 5.49267 714.792 3.55568 716.234 2.1305C717.676 0.70532 719.623 -0.0927049 721.65 -0.0899588ZM715 21.18H728.31V64.25H715V21.18Z" fill="#231F20"/>
<path d="M763.41 61.62C759.868 64.0095 755.682 65.2619 751.41 65.21C747.87 65.3093 744.384 64.3331 741.41 62.41C739.789 61.2934 738.474 59.7866 737.588 58.0285C736.702 56.2704 736.273 54.3176 736.34 52.35C736.28 50.3136 736.728 48.2942 737.645 46.4748C738.561 44.6554 739.917 43.0933 741.59 41.93C744.92 39.65 749.21 38.86 753.67 38.86C756.171 38.856 758.665 39.1208 761.11 39.65V38C761.159 37.1684 761.036 36.3357 760.751 35.5532C760.465 34.7707 760.023 34.0549 759.45 33.45C758.22 32.32 755.95 31.62 752.8 31.62C748.389 31.6958 744.065 32.8566 740.21 35V23.54C744.912 21.3029 750.063 20.1674 755.27 20.22C761.04 20.22 766.21 21.53 769.62 24.33C772.86 26.96 774.44 30.81 774.44 36.24V50.85C774.44 52.85 775.23 54.27 777.06 54.27C777.821 54.2623 778.57 54.081 779.25 53.74V63.74C777.249 64.6628 775.063 65.1144 772.86 65.06C769.36 65.06 765.95 64.06 763.58 61.64M761.13 47.37C759.589 46.9505 757.997 46.7453 756.4 46.76C752.99 46.76 749.58 47.81 749.58 51.14C749.58 53.94 752.03 55.43 755.09 55.43C757.21 55.3869 759.28 54.7831 761.09 53.68L761.13 47.37Z" fill="#231F20"/>
<path d="M306 121.33C306 130.87 304.68 137.79 301.09 142.86C296.63 149.25 288.49 153.02 278.34 153.02C268.19 153.02 259.95 149.25 255.49 142.69C252.07 137.61 250.76 130.69 250.76 121.69V88.6899H264.67V121.16C264.67 127.91 265.29 132.02 267.13 134.99C268.97 137.96 272.73 140.51 278.68 140.51C284.2 140.51 287.79 138.51 289.89 135.26C291.82 132.26 292.6 127.91 292.6 121.26V88.6799H306" fill="#231F20"/>
<path d="M314.82 109H328V112.94L328.18 113.03C331.902 109.877 336.602 108.11 341.48 108.03C343.56 107.964 345.633 108.317 347.574 109.068C349.515 109.818 351.285 110.952 352.78 112.4C355.41 115.2 356.54 118.96 356.54 125.18V152.06H343.24V127.37C343.24 124.13 342.8 122.55 341.75 121.37C341.175 120.744 340.467 120.253 339.678 119.935C338.889 119.617 338.039 119.478 337.19 119.53C333.78 119.53 330.54 121.28 328.19 123.12V152.12H314.82" fill="#231F20"/>
<path d="M372 87.71C373.503 87.7277 374.967 88.1897 376.209 89.0377C377.45 89.8857 378.413 91.0819 378.975 92.4757C379.538 93.8696 379.677 95.3988 379.372 96.871C379.068 98.3431 378.336 99.6925 377.266 100.749C376.197 101.806 374.839 102.523 373.364 102.809C371.888 103.096 370.361 102.94 368.974 102.361C367.586 101.782 366.402 100.805 365.568 99.5539C364.735 98.3029 364.29 96.8332 364.29 95.33C364.311 93.3 365.133 91.3604 366.577 89.9334C368.021 88.5063 369.97 87.7072 372 87.71ZM365.31 109H378.62V152.08H365.31V109Z" fill="#231F20"/>
<path d="M385.06 109H399.06L404.13 122.84C405.8 127.39 407.46 132.12 408.95 136.49H409.13C410.7 132.12 412.54 127.22 414.29 122.75L419.64 109H432.77L415.26 152.08H402.57" fill="#231F20"/>
<path d="M447.27 134C448.75 140 453.66 142.67 459.79 142.67C465.014 142.57 470.095 140.947 474.41 138V149.12C470.21 151.75 463.73 153.06 458.04 153.06C443.86 153.06 433.61 144.22 433.61 130.73C433.61 117 444.29 108 456.2 108C466.79 108 476.77 115 476.77 129.45C476.778 130.971 476.692 132.49 476.51 134M464.51 125.6C464.272 123.527 463.27 121.617 461.701 120.241C460.132 118.866 458.106 118.124 456.02 118.16C451.91 118.16 448.32 120.69 447.18 125.6H464.51Z" fill="#231F20"/>
<path d="M484.8 109H497.85V114.78L498.02 114.87C499.399 112.836 501.27 111.184 503.459 110.067C505.648 108.949 508.084 108.404 510.54 108.48C511.485 108.474 512.426 108.591 513.34 108.83V121.35C512.164 121.065 510.96 120.917 509.75 120.91C505.11 120.91 501.26 122.31 498.11 125.99V152.08H484.8" fill="#231F20"/>
<path d="M521.37 137.79C526.545 140.816 532.381 142.532 538.37 142.79C542.05 142.79 544.24 141.79 544.24 139.46C544.24 136.13 539.42 136.46 532.94 134.82C524.8 132.82 519.94 129.39 519.94 122.3C520.03 113.2 528.09 108.04 538.77 108.04C544.436 108.001 550.046 109.163 555.23 111.45V122.9C550.266 120.112 544.718 118.526 539.03 118.27C535.53 118.27 533.43 119.27 533.43 121.33C533.43 124.48 538.07 124.22 544.43 125.79C552.66 127.79 557.65 130.96 557.65 138.4C557.56 147.86 549.33 153.02 538.3 153.02C532.441 153.057 526.643 151.833 521.3 149.43" fill="#231F20"/>
<path d="M571.52 87.71C573.024 87.7257 574.489 88.186 575.731 89.0329C576.974 89.8797 577.938 91.0752 578.503 92.4689C579.067 93.8626 579.207 95.3922 578.904 96.865C578.601 98.3378 577.869 99.6881 576.8 100.746C575.731 101.803 574.373 102.521 572.897 102.809C571.421 103.096 569.894 102.941 568.506 102.362C567.118 101.783 565.933 100.806 565.099 99.555C564.265 98.3037 563.82 96.8336 563.82 95.33C563.841 93.3017 564.662 91.3637 566.103 89.9369C567.545 88.5101 569.492 87.7099 571.52 87.71ZM564.87 109H578.17V152.08H564.87V109Z" fill="#231F20"/>
<path d="M617.89 150.66C615.89 151.97 611.94 153.02 608.18 153.02C603.8 153.02 599.69 151.62 596.97 148.73C594.69 146.28 593.21 142.73 593.21 135.86V120H586.21V109H593.21V97.78L606.52 95.5V109H617.89V120H606.52V134.44C606.52 138.64 607.52 141.79 611.52 141.79C613.752 141.68 615.933 141.083 617.91 140.04" fill="#231F20"/>
<path d="M629.76 171.32L641.05 147.32L623.55 109H637.55L642 119.66C643.92 124.327 645.757 128.88 647.51 133.32H647.69C649.62 128.59 651.54 124.04 653.55 119.4L658.12 109H671.34L643.34 171.33" fill="#231F20"/>
<path d="M616.73 235.41H642.16V231.93H620.51V213.83H639.18V210.35H620.51V193.97H641.61V190.49H616.73" fill="#231F20"/>
<path d="M578.55 235.41H604.6V231.93H582.33V190.49H578.55" fill="#231F20"/>
<path d="M547.19 235.41H550.97V193.97H566.42V190.49H531.75V193.97H547.19" fill="#231F20"/>
<path d="M495.88 232.31C499.857 234.798 504.458 236.109 509.15 236.09C517.59 236.09 523.36 231.51 523.36 223.62C523.36 215 516.6 212.62 510.21 210.85C504.63 209.3 499 208 499 201.6C499 196.15 503 193.35 508.86 193.35C513.394 193.407 517.804 194.837 521.51 197.45V193.35C517.736 191.003 513.374 189.775 508.93 189.81C500.79 189.81 495.21 194.16 495.21 201.81C495.21 209.93 501.54 212.3 508 214.09C513.83 215.71 519.6 217.09 519.6 223.77C519.6 229.6 515.19 232.52 509.17 232.52C504.365 232.505 499.698 230.918 495.88 228" fill="#231F20"/>
<path d="M468.8 190.5H465.2L446.53 235.41H450.44L456 222H478L483.52 235.4H487.61M457.41 218.52L462 207.37C463.85 202.84 465.4 199 466.95 195.09H467.08C468.69 199.19 470.37 203.34 472.08 207.43L476.61 218.53L457.41 218.52Z" fill="#231F20"/>
<path d="M437.82 228.65C434.123 231.221 429.723 232.587 425.22 232.56C413.22 232.56 405.37 223.94 405.37 212.95C405.37 201.96 413.26 193.34 424.98 193.34C429.238 193.334 433.407 194.564 436.98 196.88V192.67C433.259 190.792 429.149 189.812 424.98 189.81C410.83 189.81 401.58 200.24 401.58 213.01C401.58 226.01 411.21 236.09 425.03 236.09C429.503 236.164 433.915 235.053 437.82 232.87" fill="#231F20"/>
<path d="M350 235.41H354L362.25 209.3C363.25 206.19 364.8 201.16 365.73 198H365.85C366.79 201.11 368.33 206.13 369.38 209.47L377.58 235.41H381.48L395.57 190.49H391.73L383.6 216.55C382.42 220.33 380.8 225.6 379.6 229.55H379.47C378.3 225.71 376.62 220.3 375.38 216.4L367.19 190.46H364.4L356.4 215.77C354.96 220.3 353.23 225.88 352.12 229.55H351.98C350.87 225.77 349.13 220.12 347.83 215.9L340 190.49H335.89" fill="#231F20"/>
<path d="M300.75 235.41H326.19V231.93H304.54V213.83H323.21V210.35H304.54V193.97H325.63V190.49H300.75" fill="#231F20"/>
<path d="M254.41 235.41V210.16C254.41 205.63 254.41 201.04 254.35 196.7L254.47 196.63C257.33 200.55 259.93 204.08 262.91 208.06L283.44 235.41H287V190.49H283.35V215.74C283.35 220.27 283.35 224.86 283.4 229.2L283.28 229.27C280.43 225.36 277.82 221.82 274.84 217.85L254.31 190.49H250.72V235.41" fill="#231F20"/>
<path d="M168.57 130.2L169.03 129.34L170.83 125.94L174.44 119.15L171.05 117.35L160.87 111.93L155.45 122.12L154.59 123.72C149.145 121.586 143.574 119.786 137.91 118.33L138.09 117.6L139.95 110.14L140.88 106.41L133.42 104.55L129.69 103.62L125.96 102.69L125.02 106.42L124.09 110.15L123.16 113.88L122.83 115.22C116.851 114.289 110.825 113.688 104.78 113.42V100.83H89.4V113.42C83.3554 113.69 77.3298 114.287 71.35 115.21L71.02 113.88L69.16 106.42L68.23 102.69L64.5 103.62L60.77 104.55L53.3 106.41L54.24 110.14L56.1 117.6L56.28 118.32C50.6122 119.78 45.0385 121.583 39.59 123.72L38.74 122.12L33.32 111.93L23.14 117.35L19.74 119.15L23.35 125.94L25.16 129.34L25.61 130.2C20.9437 132.715 16.4624 135.559 12.2 138.71C14.4271 144.293 16.9953 149.733 19.89 155C42.17 195.4 67.69 215.73 71.65 219C77.6695 224.201 84.211 228.765 91.17 232.62C94.5 234.31 96.42 235.1 96.96 235.31H97.05H97.13C97.68 235.1 99.6 234.31 102.93 232.62C109.889 228.765 116.43 224.201 122.45 219C126.45 215.69 151.92 195.36 174.21 155C177.117 149.714 179.689 144.249 181.91 138.64C177.67 135.507 173.212 132.68 168.57 130.18M113.87 176.43C109.79 176.43 101.1 176.73 97.11 181.56C93.11 176.73 84.44 176.45 80.36 176.43C76.28 176.41 68.7 177.15 62.51 176.63L64 139.48L68.77 135.62C73.77 136.99 76.03 135.62 81.58 135.56C87.68 135.56 92.09 136.33 97.13 139.36C102.13 136.36 106.59 135.36 112.69 135.44C118.24 135.44 120.54 136.99 125.5 135.62L130.27 139.48L131.74 176.65C125.55 177.17 117.97 176.43 113.89 176.45" fill="#231F20"/>
<path d="M95.19 172.88C88.09 169.22 79.33 171.61 72.09 169.7L72.39 157.7C72.39 157.7 72.74 143.52 72.82 140.32H73.36C74.8642 140.311 76.3642 140.161 77.84 139.87C81.03 139.43 85.98 139.07 88.62 139.7C90.9531 140.181 93.1793 141.082 95.19 142.36" fill="#231F20"/>
<path d="M99 172.88V142.36C101.01 141.08 103.236 140.179 105.57 139.7C108.21 139.07 113.15 139.43 116.35 139.87C117.822 140.161 119.319 140.312 120.82 140.32H121.37C121.45 143.52 121.79 157.7 121.79 157.7L122.09 169.7C114.86 171.61 106.09 169.22 99 172.88Z" fill="#231F20"/>
<path d="M72.12 58.5399V62.39H75.97V54.6899H72.12" fill="#231F20"/>
<path d="M141.33 39.32V43.16H145.18V35.47H141.33" fill="#231F20"/>
<path d="M49.05 39.32V43.16H52.9V35.47H49.05" fill="#231F20"/>
<path d="M25.98 58.5399V62.39H29.83V54.6899H25.98" fill="#231F20"/>
<path d="M118.26 58.5399V62.39H122.11V54.6899H118.26" fill="#231F20"/>
<path d="M0.75 0.869995V80.7C0.75 97.7 4.52 116.92 9.75 132.16L10.75 135.1C13.8681 132.831 17.0989 130.722 20.43 128.78L18.08 124.36L14.47 117.57L20.13 114.57L29.72 109.46L31.45 108.55L34.84 106.74L40.84 117.94L41.41 119C44.7433 117.78 48.15 116.667 51.63 115.66L50.49 111.08L49.56 107.35L48.63 103.62L56.09 101.76L71 98L71.93 101.73L72.86 105.46L74.22 110.9C77.93 110.4 81.7 110.01 85.52 109.76V97H108.59V109.8C112.42 110.05 116.19 110.44 119.91 110.94L121.27 105.5L122.2 101.77L123.13 98.04L138.05 101.76L145.51 103.62L143.65 111.08L142.51 115.66C145.997 116.673 149.403 117.787 152.73 119L153.3 117.94L155.64 113.54L159.24 106.74L162.64 108.55L174.5 114.85L179.62 117.58L173.62 128.79C177 130.79 180.21 132.887 183.25 135.08L184.38 132.08C189.63 116.83 193.38 97.6 193.38 80.53V0.869995M43.29 23.94V20.09H45.21V23.94H49.05V20.09H52.9V23.94H56.74V20.09H58.66V27.78H43.29V23.94ZM56.74 31.63V47H45.21V31.63H56.74ZM37.52 54.7H41.36V50.85H45.21V54.7H49.05V50.85H52.9V54.7H56.74V50.85H60.59V54.7H64.44V58.54H37.52V54.7ZM35.6 81.61V85.46H20.22V77.77H35.6V81.61ZM33.67 73.92H20.22L22.14 70.07V50.85H33.67V70.07L35.6 73.92H33.67ZM35.6 43.16V47H20.22V39.31H22.14V43.15H26V39.31H29.84V43.15H33.68V39.31H35.61L35.6 43.16ZM62.51 73.92V85.46H58.66V73.92L51 66.23L43.31 73.92V85.46H39.46V73.92L37.54 70.07V62.39H64.46V70.07L62.51 73.92ZM81.74 81.61V85.46H66.36V77.77H81.74V81.61ZM79.82 73.92H66.36L68.28 70.07V50.85H79.82V70.07L81.74 73.92H79.82ZM81.74 43.16V47H66.36V39.31H68.28V43.15H72.12V39.31H76V43.15H79.85V39.31H81.77L81.74 43.16ZM135.57 23.94V20.09H137.49V23.94H141.33V20.09H145.18V23.94H149V20.09H150.92V27.78H135.57V23.94ZM149 31.63V47H137.49V31.63H149ZM129.8 54.7H133.64V50.85H137.49V54.7H141.33V50.85H145.18V54.7H149V50.85H152.85V54.7H156.69V58.54H129.8V54.7ZM127.88 81.61V85.46H112.49V77.77H127.88V81.61ZM126 73.92H112.49L114.42 70.07V50.85H126V70.07L127.93 73.92H126ZM127.93 43.16V47H112.49V39.31H114.42V43.15H118.26V39.31H122.11V43.15H126V39.31H127.93V43.16ZM154.84 73.92V85.46H150.99V73.92L143.31 66.23L135.62 73.92V85.46H131.77V73.92L129.85 70.07V62.39H156.76V70.07L154.84 73.92ZM174 81.61V85.46H158.64V77.77H174V81.61ZM172.08 73.92H158.64L160.56 70.07V50.85H172.09V70.07L174.01 73.92H172.08ZM174 43.16V47H158.64V39.31H160.56V43.15H164.4V39.31H168.25V43.15H172.09V39.31H174V43.16Z" fill="#231F20"/>
<path d="M164.4 58.5399V62.39H168.24V54.6899H164.4" fill="#231F20"/>
</g>
<defs>
<clipPath id="clip0_664_564">
<rect width="780" height="236" fill="white"/>
</clipPath>
</defs>
</svg>
