<svg width="225" height="68" viewBox="0 0 225 68" fill="none" xmlns="http://www.w3.org/2000/svg">
<g clip-path="url(#clip0_226_595)">
<path d="M17.4012 3.15919C21.8413 1.35027 26.7561 0.771171 31.493 1.45721C38.086 2.38538 44.2693 5.88115 48.5364 11.0335C50.7964 13.7393 52.5356 16.888 53.6161 20.2557C54.9555 24.4022 55.2744 28.8715 54.5867 33.1754C53.976 37.0273 52.5336 40.744 50.3796 43.9835C48.7323 46.4694 46.6752 48.6758 44.3303 50.5029C44.1284 50.6613 43.9504 50.8469 43.7725 51.0315C40.9518 53.924 37.2404 55.8873 33.2992 56.6621C32.7944 56.766 32.2856 56.8477 31.7768 56.9224C31.9438 57.6407 32.1857 58.3389 32.4625 59.0219C32.2786 59.2055 32.0947 59.3911 31.9108 59.5768C31.414 59.2963 30.7173 59.4537 30.4584 59.9843C30.1236 60.5695 30.5314 61.3887 31.1921 61.4755C31.7269 61.5774 32.1927 61.2192 32.5275 60.8409C32.7414 61.7257 32.6724 62.6881 32.2326 63.4932C31.368 65.1266 29.7747 66.2475 28.0965 66.9083C27.8556 66.987 27.6007 67.1545 27.3458 67.0324C25.5796 66.4119 23.8913 65.3001 22.9318 63.6415C22.432 62.8072 22.323 61.7862 22.5579 60.8479C22.8928 61.2686 23.4315 61.6076 23.9823 61.4543C24.564 61.313 24.9089 60.5998 24.651 60.0519C24.4331 59.5102 23.7404 59.2781 23.2356 59.5535C23.0367 59.372 22.8478 59.1793 22.6589 58.9866C23.0887 58.241 23.4905 57.4753 23.7784 56.6611C22.7359 56.4553 21.7183 56.1425 20.6988 55.854C19.3594 56.3443 17.868 56.429 16.5026 55.9952C14.4116 55.3687 12.7273 53.5931 12.1636 51.4704C7.95742 48.586 4.57893 44.49 2.53883 39.7886C0.737632 35.6713 -0.027028 31.1031 0.31482 26.6167C0.668663 21.8093 2.32193 17.11 5.03972 13.1471C8.07437 8.69289 12.4284 5.16888 17.4012 3.15919ZM24.2752 2.15939C19.4123 2.7627 14.7364 4.78147 10.9321 7.89386C6.64401 11.3735 3.46442 16.2252 2.00307 21.5813C0.705647 26.2918 0.726637 31.3614 2.06104 36.0608C3.65933 41.766 7.21575 46.88 11.9706 50.3586C11.8517 49.0269 12.1716 47.674 12.8383 46.5229C12.5154 46.2141 12.2055 45.8923 11.9117 45.5553C11.9826 45.5029 12.0536 45.4504 12.1256 45.399C12.4294 45.6663 12.7593 45.9024 13.0921 46.1344C13.7728 45.1578 14.7124 44.3729 15.7929 43.8877C13.6509 42.1938 11.8697 40.0348 10.6202 37.5933C8.96598 34.4304 8.2263 30.7874 8.51218 27.222C8.79205 23.4457 10.2294 19.7704 12.5644 16.8073C15.0283 13.6546 18.4847 11.3029 22.313 10.2052C25.4756 9.29217 28.8711 9.2165 32.0687 9.99334C35.3113 10.7762 38.3369 12.4389 40.7529 14.7583C42.8039 16.7175 44.4222 19.1388 45.4408 21.7993C46.5233 24.609 46.9251 27.679 46.6222 30.6764C46.2714 34.2559 44.882 37.7174 42.684 40.5473C40.337 43.586 37.0755 45.8994 33.4351 47.0677C33.0363 47.1766 32.6844 47.4228 32.4445 47.7618C31.8268 48.6244 31.5859 49.7008 31.486 50.744C35.4832 51.654 39.7513 51.4815 43.6076 50.0509C47.7777 46.9143 50.9823 42.4853 52.6765 37.5226C54.0919 33.3933 54.4777 28.9119 53.814 24.5959C53.2313 20.7873 51.8079 17.115 49.6879 13.9118C46.7142 9.40012 42.3611 5.82667 37.3664 3.83312C33.2362 2.16948 28.6852 1.60148 24.2752 2.15939ZM24.4741 10.5048C20.9067 11.1122 17.5412 12.8394 14.9323 15.3656C12.1745 18.0129 10.2624 21.547 9.5747 25.3273C8.98297 28.4992 9.23486 31.8275 10.3104 34.8683C11.4829 38.2349 13.6469 41.2363 16.4506 43.4105C16.5536 43.4801 16.6616 43.6072 16.8005 43.5436C17.875 43.2692 19.0175 43.2702 20.086 43.5739C21.8083 44.045 23.3156 45.2698 24.1222 46.879C27.8216 47.6074 31.7429 47.1413 35.1693 45.5553C38.4159 44.0672 41.2077 41.5965 43.1038 38.5497C45.3458 34.9853 46.2994 30.627 45.7716 26.4401C45.4058 23.4145 44.2713 20.4897 42.5151 18.0119C40.5829 15.2738 37.9051 13.0765 34.8455 11.7478C31.6069 10.3253 27.9525 9.89447 24.4741 10.5048ZM13.7578 46.5733C14.0977 46.7791 14.4395 46.9819 14.7854 47.1786C15.636 46.0053 17.0524 45.2638 18.4997 45.3041C19.1984 45.3021 19.8781 45.5019 20.5118 45.7884C21.3435 46.1365 22.1981 46.427 23.0707 46.649C22.0482 45.0953 20.239 44.1005 18.3868 44.1137C16.5646 44.0955 14.7834 45.059 13.7578 46.5733ZM15.4971 47.5681C16.5166 48.0826 17.5492 48.5719 18.6007 49.0178C18.9046 49.154 19.2684 49.2721 19.4183 49.603C19.6762 50.0882 19.3843 50.7602 18.8476 50.8822C18.4518 51.0053 18.0959 50.739 17.7761 50.5453C16.8105 49.9117 15.8959 49.2024 15.0153 48.4539C14.6025 49.4173 14.6594 50.5675 15.1222 51.5027C15.556 52.3814 16.3497 53.014 17.1943 53.465C19.6272 54.8068 22.311 55.6573 25.0408 56.1102C27.1969 56.4755 29.4009 56.4432 31.5649 56.1718C33.8389 55.8802 36.0779 55.2426 38.128 54.1984C39.6663 53.4246 41.0837 52.4198 42.3651 51.2666C38.9007 52.2311 35.2133 52.3219 31.6989 51.5773C28.0165 50.8207 24.558 49.2115 21.3735 47.2301C20.6398 46.8205 19.9511 46.2656 19.0995 46.1365C17.7551 45.8772 16.3087 46.4583 15.4971 47.5681ZM13.43 47.0929C12.8642 48.1764 12.6303 49.4385 12.8213 50.6522C13.0781 52.5065 14.3166 54.1772 15.9969 54.9642C17.0764 55.4898 18.3128 55.6119 19.4873 55.4111C18.2538 54.8764 17.0034 54.3477 15.8929 53.5749C15.1502 53.0362 14.5315 52.2997 14.2116 51.428C13.7848 50.2981 13.8578 49.0037 14.3576 47.9101C14.0497 47.6357 13.7449 47.3582 13.43 47.0929ZM23.1887 47.4329C23.8793 47.8172 24.585 48.1714 25.2927 48.5214C25.4526 48.2985 25.6336 48.0927 25.8355 47.9091C24.9429 47.8162 24.0663 47.6165 23.1887 47.4329ZM27.6867 47.9888C27.0289 47.9837 26.3722 48.2985 25.9964 48.8503C27.5077 49.5515 29.079 50.1225 30.6883 50.5503C30.7933 49.496 31.0732 48.4377 31.6599 47.5469C30.3545 47.8283 29.0211 47.9787 27.6867 47.9888ZM23.7614 58.6244C24.2242 58.6778 24.695 58.8302 25.0258 59.1762C25.7435 59.8683 25.7225 61.1667 24.9779 61.8296C24.5221 62.2493 23.8644 62.3492 23.2736 62.2432C23.4635 63.1512 24.0243 63.9291 24.69 64.5485C25.4936 65.2941 26.4592 65.8641 27.4947 66.2132C28.1425 66.086 28.7402 65.7279 29.3099 65.3929C30.4444 64.6635 31.525 63.6214 31.8048 62.2412C31.1671 62.3703 30.4554 62.2069 30.0056 61.7146C29.3199 61.0013 29.3719 59.7069 30.1366 59.0713C30.4994 58.7505 30.9902 58.6314 31.463 58.6304C31.2771 58.1008 31.0921 57.5691 30.9702 57.0203C28.8431 57.2372 26.6881 57.2008 24.58 56.8195C24.3591 57.443 24.0833 58.0463 23.7614 58.6244Z" fill="#002147"/>
<path d="M22.36 3.78668C22.6289 3.69891 22.9018 3.62324 23.1757 3.54657C22.9688 4.61699 22.7309 5.68237 22.541 6.75481C22.6779 7.37729 22.8878 7.9806 23.0517 8.59702C22.8138 8.66764 22.5749 8.73927 22.339 8.81595C22.1551 8.27216 22.0242 7.71123 21.8593 7.16038C21.8163 6.96768 21.6613 6.83653 21.5354 6.69831C20.9567 6.10408 20.3969 5.49169 19.8162 4.89948C19.7332 4.80666 19.6322 4.7199 19.5933 4.59681C19.8342 4.51711 20.079 4.45254 20.3209 4.37587C20.8757 4.93882 21.4115 5.52095 21.9602 6.08996C22.0902 5.3222 22.2411 4.55747 22.36 3.78668Z" fill="#002147"/>
<path d="M33.738 4.19934C34.6546 4.00765 35.6761 4.49091 36.0599 5.36359C36.5447 6.47336 36.1769 7.87368 35.2733 8.65355C34.6856 9.16908 33.8049 9.26896 33.0973 8.96024C32.3416 8.65254 31.8438 7.8646 31.8208 7.05144C31.7469 5.83272 32.4735 4.4445 33.738 4.19934ZM33.8289 4.88841C33.1312 5.11036 32.7414 5.84079 32.6215 6.52784C32.5055 7.14426 32.6565 7.88377 33.2102 8.24091C33.737 8.61016 34.5056 8.47396 34.9045 7.97558C35.4042 7.3642 35.6621 6.48748 35.4082 5.7177C35.2043 5.07808 34.4656 4.6836 33.8289 4.88841Z" fill="#002147"/>
<path d="M27.3328 5.09421C27.7866 4.90554 28.3204 5.36761 28.1964 5.84986C28.1215 6.32907 27.4728 6.55305 27.1249 6.21507C26.7491 5.91342 26.873 5.23848 27.3328 5.09421Z" fill="#002147"/>
<path d="M14.6654 6.85977C15.6969 6.32002 16.7275 5.77926 17.758 5.23749C17.857 5.43422 17.9559 5.63095 18.0539 5.82768C17.6521 6.0345 17.2543 6.24637 16.8554 6.45823C17.4921 7.68099 18.1129 8.91284 18.7586 10.1306C18.5357 10.2587 18.3098 10.3808 18.0829 10.4998C17.4452 9.27099 16.8105 8.04016 16.1757 6.80932C15.7739 7.02321 15.3721 7.23709 14.9673 7.44492C14.8663 7.2502 14.7654 7.05448 14.6654 6.85977Z" fill="#002147"/>
<path d="M36.9415 10.3606C37.7442 8.97237 38.5568 7.59121 39.3655 6.20703C40.1261 6.65699 40.8858 7.11099 41.6464 7.56196C41.5355 7.75163 41.4235 7.9413 41.3126 8.13097C40.7718 7.80409 40.2271 7.48528 39.6833 7.16244C39.4604 7.54178 39.2435 7.92616 39.0116 8.30147C39.5184 8.62027 40.0442 8.9078 40.5489 9.23165C40.438 9.41123 40.331 9.59283 40.2251 9.77443C39.7123 9.47378 39.2015 9.17011 38.6918 8.86442C38.3249 9.49093 37.9591 10.1185 37.5932 10.745C37.3773 10.6138 37.1604 10.4847 36.9415 10.3606Z" fill="#002147"/>
<path d="M12.0476 8.72518C12.2545 8.57586 12.4574 8.4215 12.6633 8.27118C13.6119 9.5575 14.5905 10.8196 15.5491 12.0989C15.3471 12.2542 15.1462 12.4096 14.9463 12.567C13.9777 11.2877 12.9992 10.0165 12.0476 8.72518Z" fill="#002147"/>
<path d="M134.895 9.44352C136.352 9.14186 137.976 9.48186 139.086 10.516C138.875 10.8045 138.639 11.0729 138.422 11.3574C137.785 10.8903 137.038 10.5503 136.245 10.4968C135.56 10.4443 134.811 10.5543 134.271 11.0154C133.749 11.4512 133.57 12.23 133.806 12.8636C133.948 13.2198 134.237 13.4932 134.549 13.701C135.593 14.379 136.829 14.6937 137.841 15.4272C138.506 15.9054 139.038 16.6217 139.16 17.452C139.3 18.4034 139.061 19.4345 138.423 20.1649C137.962 20.7056 137.308 21.0497 136.624 21.205C135.047 21.5652 133.326 21.1314 132.079 20.0973C132.288 19.7886 132.499 19.4799 132.699 19.1641C133.499 19.6625 134.381 20.0902 135.334 20.1528C135.961 20.175 136.637 20.0751 137.147 19.6746C137.717 19.2276 137.921 18.4326 137.806 17.7355C137.699 17.1544 137.26 16.7064 136.789 16.3907C135.661 15.6401 134.278 15.3233 133.255 14.4062C132.216 13.4942 132.14 11.776 132.926 10.6774C133.389 10.0236 134.125 9.60998 134.895 9.44352Z" fill="#002147"/>
<path d="M178.128 9.38398C179.329 9.23467 180.6 9.4889 181.594 10.2032C182.982 11.1717 183.73 12.8525 183.871 14.5141C184.041 16.3917 183.613 18.4356 182.286 19.8279C180.807 21.4149 178.252 21.768 176.369 20.7379C174.887 19.95 173.956 18.367 173.683 16.7316C173.379 14.8904 173.656 12.8686 174.773 11.3402C175.559 10.2526 176.805 9.53531 178.128 9.38398ZM177.762 10.64C177.08 10.8196 176.468 11.2353 176.034 11.7932C175.422 12.564 175.128 13.5436 175.03 14.5141C174.925 15.5916 175.02 16.7095 175.44 17.7143C175.738 18.4377 176.219 19.0965 176.864 19.5394C178.116 20.4241 179.982 20.3101 181.091 19.2357C181.806 18.5547 182.19 17.5912 182.364 16.6298C182.553 15.4988 182.539 14.3113 182.176 13.2167C181.909 12.4126 181.427 11.664 180.738 11.1677C179.892 10.5472 178.765 10.3777 177.762 10.64Z" fill="#002147"/>
<path d="M69.2642 9.55546C69.717 9.55445 70.1708 9.56051 70.6246 9.5484C70.6516 12.1796 70.6196 14.8107 70.6406 17.4419C70.6436 18.1209 70.7945 18.8483 71.2873 19.3446C71.974 20.0418 73.0285 20.2244 73.9621 20.0882C74.7318 19.9802 75.4714 19.5182 75.8113 18.7968C76.0642 18.25 76.0821 17.6315 76.1011 17.0383C76.1211 14.5424 76.0941 12.0464 76.1161 9.55042C76.5639 9.55849 77.0107 9.55546 77.4595 9.55546C77.4595 11.2776 77.4585 12.9988 77.4595 14.7209C77.4415 15.865 77.5085 17.0161 77.3606 18.1541C77.2616 18.9401 76.9528 19.724 76.364 20.2667C75.5194 21.0779 74.3059 21.3594 73.1684 21.316C71.947 21.2827 70.6686 20.7964 69.9299 19.7734C69.3801 19.0208 69.2792 18.0522 69.2702 17.1453C69.2572 14.615 69.2672 12.0857 69.2642 9.55546Z" fill="#002147"/>
<path d="M81.8606 9.55547C82.3284 9.55547 82.7972 9.55446 83.266 9.55749C85.1092 12.7153 86.9284 15.8892 88.7915 19.0349C88.7995 15.8751 88.7705 12.7153 88.7655 9.55547C89.1864 9.55648 89.6092 9.55043 90.032 9.56354C90.015 13.4114 90.039 17.2603 90.019 21.1082C89.5412 21.0981 89.0634 21.1102 88.5866 21.0971C86.7634 17.9433 84.9302 14.7956 83.0861 11.6549C83.0911 14.8057 83.1181 17.9574 83.1131 21.1082C82.6952 21.1011 82.2774 21.1031 81.8606 21.1041C81.8596 17.2542 81.8596 13.4054 81.8606 9.55547Z" fill="#002147"/>
<path d="M94.8079 21.1112C94.7929 17.2583 94.7929 13.4044 94.8089 9.55145C95.2637 9.56154 95.7205 9.5565 96.1763 9.55751C96.1773 13.4064 96.1773 17.2563 96.1763 21.1051C95.7205 21.1051 95.2637 21.1001 94.8079 21.1112Z" fill="#002147"/>
<path d="M99.2169 9.55548C99.6947 9.55548 100.173 9.55548 100.651 9.55548C101.767 12.9544 102.875 16.3553 103.994 19.7532C105.134 16.3513 106.282 12.9514 107.433 9.55347C107.875 9.55649 108.319 9.55448 108.762 9.55548C107.422 13.4044 106.079 17.2522 104.742 21.1021C104.216 21.1051 103.688 21.1041 103.161 21.1031C101.849 17.2532 100.53 13.4054 99.2169 9.55548Z" fill="#002147"/>
<path d="M111.875 9.55952C113.947 9.55044 116.019 9.56759 118.092 9.55145C118.106 9.93785 118.103 10.3253 118.097 10.7117C116.474 10.7046 114.851 10.7117 113.229 10.7076C113.226 11.9788 113.228 13.249 113.228 14.5192C114.755 14.5242 116.282 14.5081 117.811 14.5272C117.8 14.8935 117.8 15.2597 117.812 15.6259C116.284 15.6643 114.756 15.633 113.228 15.6421C113.224 17.0656 113.234 18.4891 113.224 19.9116C114.895 19.9288 116.566 19.9126 118.238 19.9197C118.236 20.3152 118.236 20.7097 118.237 21.1041C116.116 21.1031 113.995 21.1092 111.874 21.1011C111.88 17.2542 111.878 13.4074 111.875 9.55952Z" fill="#002147"/>
<path d="M121.875 21.0961C121.898 17.2472 121.863 13.3973 121.893 9.54742C123.143 9.57164 124.395 9.53229 125.645 9.58273C126.43 9.6241 127.261 9.80772 127.847 10.3757C128.794 11.2403 129.046 12.7022 128.636 13.8937C128.291 14.8733 127.323 15.5089 126.333 15.6572C127.017 15.753 127.488 16.3281 127.76 16.9274C128.408 18.3075 129.003 19.7109 129.622 21.1041C129.149 21.1052 128.676 21.0981 128.203 21.1102C127.655 19.9349 127.173 18.7282 126.615 17.5569C126.342 17.0051 125.996 16.3937 125.366 16.2131C124.672 16.0275 123.943 16.0961 123.233 16.0799C123.232 17.7547 123.232 19.4294 123.232 21.1031C122.779 21.1021 122.327 21.1092 121.875 21.0961ZM123.233 10.6653C123.232 12.1019 123.232 13.5396 123.233 14.9762C124.102 14.9631 124.987 15.0357 125.839 14.8168C126.381 14.6796 126.891 14.3477 127.171 13.8493C127.58 13.1441 127.555 12.2048 127.117 11.5188C126.748 10.9679 126.077 10.7177 125.44 10.6844C124.705 10.6431 123.968 10.6754 123.233 10.6653Z" fill="#002147"/>
<path d="M142.995 9.5575C143.454 9.5575 143.913 9.5575 144.373 9.5575C144.374 13.4064 144.374 17.2552 144.373 21.1051C143.913 21.1051 143.454 21.1051 142.995 21.1041C142.995 17.2552 142.995 13.4064 142.995 9.5575Z" fill="#002147"/>
<path d="M147.451 9.55851C150.176 9.55649 152.9 9.5575 155.625 9.5575C155.624 9.94088 155.624 10.3253 155.625 10.7086C154.494 10.7076 153.364 10.7107 152.234 10.7076C152.23 14.1731 152.233 17.6396 152.232 21.1051C151.777 21.1062 151.323 21.0981 150.87 21.1142C150.835 17.6447 150.875 14.1731 150.85 10.7036C149.717 10.7157 148.584 10.7056 147.451 10.7086C147.451 10.3253 147.451 9.94189 147.451 9.55851Z" fill="#002147"/>
<path d="M157.225 9.55648C157.752 9.55749 158.279 9.54841 158.806 9.56354C159.724 11.3664 160.676 13.1511 161.6 14.951C162.558 13.1753 163.432 11.3533 164.354 9.55648C164.851 9.55446 165.348 9.55547 165.847 9.55648C164.661 11.8386 163.473 14.1196 162.287 16.4007C162.205 16.5359 162.21 16.6953 162.211 16.8477C162.216 18.2661 162.212 19.6846 162.214 21.1031C161.758 21.1031 161.302 21.1092 160.848 21.0971C160.85 19.5787 160.872 18.0573 160.837 16.5399C159.661 14.1993 158.417 11.891 157.225 9.55648Z" fill="#002147"/>
<path d="M187.675 9.5575C189.702 9.5575 191.728 9.5575 193.755 9.5575C193.754 9.94087 193.754 10.3253 193.755 10.7086C192.184 10.7096 190.612 10.7086 189.041 10.7086C189.041 11.9788 189.043 13.248 189.04 14.5182C190.517 14.5262 191.996 14.5081 193.474 14.5262C193.464 14.8955 193.464 15.2647 193.473 15.633C191.996 15.6552 190.517 15.636 189.041 15.6431C189.042 17.4641 189.041 19.2841 189.041 21.1051C188.585 21.1051 188.129 21.1051 187.675 21.1051C187.675 17.2552 187.675 13.4064 187.675 9.5575Z" fill="#002147"/>
<path d="M8.47424 12.5075C8.60118 11.6348 9.38983 10.9518 10.2395 10.8378C10.2894 11.0527 10.3304 11.2696 10.3694 11.4865C9.83763 11.5783 9.28688 11.9344 9.17892 12.5004C9.10596 12.8555 9.4668 13.1844 9.81064 13.0926C10.4514 12.9564 11.0161 12.5165 11.6928 12.5397C12.5034 12.5458 13.1602 13.4175 12.9492 14.2084C12.7263 15.0599 11.9187 15.6542 11.0791 15.7873C11.0281 15.5724 10.9751 15.3576 10.9201 15.1437C11.4309 15.0004 12.0177 14.7663 12.2056 14.2155C12.3755 13.815 12.0377 13.3025 11.5968 13.3509C10.9301 13.4074 10.3704 13.8836 9.69369 13.9007C8.98501 13.931 8.35829 13.2147 8.47424 12.5075Z" fill="#002147"/>
<path d="M42.8959 11.2968C43.3057 11.0708 43.8635 11.4209 43.8415 11.8941C43.8625 12.3945 43.2348 12.7385 42.831 12.4469C42.4071 12.1977 42.4471 11.4956 42.8959 11.2968Z" fill="#002147"/>
<path d="M46.5233 14.1741C46.9941 14.046 47.5109 14.043 47.9667 14.2336C48.9522 14.6271 49.56 15.8408 49.2001 16.8658C48.8563 17.8535 47.8957 18.5405 46.8952 18.7131C46.1275 18.8523 45.3019 18.5143 44.8561 17.8666C44.4612 17.3349 44.3203 16.6095 44.5362 15.976C44.8321 15.0791 45.6417 14.4294 46.5233 14.1741ZM46.8252 14.8834C46.0885 15.1083 45.3538 15.6471 45.1749 16.4411C44.992 17.2179 45.6677 18.0684 46.4703 18.0008C47.253 17.9352 48.0287 17.4863 48.4275 16.7942C48.7733 16.202 48.5584 15.3807 47.9927 15.0105C47.6508 14.7815 47.209 14.7754 46.8252 14.8834Z" fill="#002147"/>
<path d="M21.5384 14.4667C21.5933 14.4607 21.7043 14.4486 21.7603 14.4425C22.295 15.1729 22.8248 15.9104 23.3156 16.6721C23.0657 16.7327 22.8128 16.7811 22.5619 16.8376C22.8418 17.342 23.1926 17.8021 23.5085 18.2843C23.9833 17.9363 24.4311 17.5488 24.8559 17.1413C24.663 17.0394 24.4631 16.9516 24.2761 16.8396C24.2971 16.7014 24.4331 16.6409 24.53 16.5632C24.9998 16.2363 25.4676 15.9054 25.9324 15.5704C26.0614 15.4756 26.2023 15.3868 26.3692 15.3858C26.0084 16.6066 25.5896 17.8081 25.2057 19.0218C24.0143 18.6122 22.7368 18.5799 21.4904 18.5688C20.3639 18.6041 19.2044 18.6354 18.1329 19.0258C17.7301 17.8202 17.3372 16.6116 16.9574 15.3979C17.2683 15.3787 17.4812 15.6441 17.7301 15.7873C18.2028 16.1435 18.7536 16.4058 19.1684 16.8356C18.9675 16.9304 18.7596 17.0141 18.5777 17.1443C18.9455 17.566 19.3913 17.911 19.8021 18.2894C20.137 17.8142 20.4998 17.3501 20.7577 16.8255C20.5098 16.7791 20.2619 16.7377 20.018 16.6731C20.4898 15.9145 21.0376 15.2062 21.5384 14.4667Z" fill="#002147"/>
<path d="M32.3086 15.9579C32.6634 15.4504 33.0223 14.946 33.3741 14.4365C33.7089 14.4284 33.8089 14.8047 33.9948 15.0176C34.3547 15.5846 34.8195 16.087 35.1103 16.6954C34.8674 16.7387 34.6255 16.7791 34.3846 16.8285C34.6425 17.3451 35.0124 17.792 35.3172 18.2803C35.803 17.9474 36.2388 17.5428 36.6716 17.1443C36.4737 17.0353 36.2698 16.9375 36.0659 16.8416C36.2678 16.5622 36.5877 16.4129 36.8545 16.2081C37.2394 15.9478 37.5992 15.6491 37.999 15.4121C38.048 15.411 38.144 15.407 38.192 15.405C37.8081 16.6126 37.4083 17.8152 37.0215 19.0208C35.854 18.6193 34.6025 18.584 33.3811 18.5678C32.2256 18.5951 31.0431 18.6364 29.9406 19.0218C29.5508 17.8152 29.154 16.6116 28.7701 15.404C29.122 15.3838 29.3649 15.7016 29.6518 15.861C30.0866 16.1949 30.6143 16.4209 30.9732 16.8437C30.7683 16.9324 30.5653 17.0273 30.3684 17.1342C30.7663 17.5105 31.1561 17.9 31.5789 18.247L31.6529 18.241C31.9897 17.8071 32.2676 17.332 32.5844 16.884C32.3645 16.7508 32.1027 16.7438 31.8568 16.6994C31.9487 16.4189 32.1446 16.196 32.3086 15.9579Z" fill="#002147"/>
<path d="M5.69242 16.2312C5.91332 15.8812 6.25817 15.5694 6.68798 15.5523C7.47463 15.4605 8.33524 16.1949 8.11634 17.0323C8.48918 16.8457 8.90999 16.9314 9.30681 16.9587C9.76261 17.001 10.2194 17.0333 10.6752 17.0807C10.5303 17.3087 10.3993 17.5448 10.2764 17.7859C9.64666 17.7536 9.01894 17.6326 8.38722 17.6578C7.9854 17.683 7.83247 18.1108 7.66154 18.4114C8.24728 18.7252 8.82603 19.0511 9.40877 19.3719C9.28882 19.5949 9.16688 19.8168 9.03993 20.0357C7.64555 19.2619 6.24617 18.4962 4.8418 17.7395C5.11867 17.2331 5.38356 16.7185 5.69242 16.2312ZM6.39211 16.4219C6.10524 16.6802 5.9573 17.0515 5.75539 17.3733C6.20319 17.6215 6.65299 17.8656 7.10379 18.1088C7.27971 17.7698 7.50861 17.4328 7.5246 17.0373C7.5356 16.4996 6.82791 16.0809 6.39211 16.4219Z" fill="#002147"/>
<path d="M50.9353 18.9905C51.0353 19.2609 51.1252 19.5343 51.2172 19.8067C50.8114 20.3253 50.3306 20.7823 49.9518 21.3221C50.5885 21.4572 51.2242 21.5995 51.8569 21.7589C51.9309 22.0172 52.0148 22.2734 52.0978 22.5297C51.2232 22.3108 50.3466 22.0989 49.47 21.8901C48.8533 22.6417 48.2215 23.3812 47.6158 24.1429C47.5058 23.8725 47.4149 23.5951 47.3399 23.3146C47.8177 22.7769 48.2785 22.225 48.7383 21.6721C48.0516 21.4956 47.3509 21.3725 46.6682 21.1828C46.5153 20.9548 46.4813 20.6552 46.3813 20.3989C47.3339 20.6138 48.2765 20.8782 49.2331 21.0739C49.7808 20.3636 50.3816 19.6957 50.9353 18.9905Z" fill="#002147"/>
<path d="M19.6742 19.494C20.8517 19.3326 22.0472 19.3285 23.2286 19.4405C23.7504 19.5061 24.2882 19.5616 24.77 19.7876C24.9199 19.833 25.0548 20.0479 24.8709 20.1477C24.5551 20.3596 24.1652 20.4131 23.7994 20.4847C22.6029 20.6663 21.3825 20.6754 20.178 20.5674C19.6502 20.5099 19.1115 20.4494 18.6187 20.2416C18.4848 20.1962 18.4078 20.0721 18.3198 19.9712C18.6857 19.6292 19.2054 19.5787 19.6742 19.494Z" fill="#002147"/>
<path d="M30.3385 19.8087C30.8513 19.5505 31.437 19.501 31.9978 19.4314C33.2912 19.3235 34.6066 19.3265 35.8871 19.5666C36.2219 19.6544 36.6457 19.6968 36.8237 20.0438C36.4198 20.3778 35.8841 20.4393 35.3873 20.519C34.0579 20.6834 32.7045 20.6824 31.3781 20.4897C30.9912 20.41 30.5624 20.3687 30.2406 20.1154C30.1056 20.0216 30.2306 19.8552 30.3385 19.8087Z" fill="#002147"/>
<path d="M2.99963 23.1754C3.26152 22.2855 3.5284 21.3967 3.78329 20.5059C3.99519 20.5593 4.2071 20.6158 4.418 20.6743C4.22509 21.32 4.03018 21.9647 3.83626 22.6094C4.26407 22.7193 4.68788 22.8414 5.11369 22.9605C5.28562 22.3743 5.41756 21.776 5.62547 21.203C5.82238 21.2655 6.01929 21.3261 6.2172 21.3866C6.05428 21.9687 5.89035 22.5498 5.72842 23.132C6.21021 23.2581 6.68999 23.3973 7.17078 23.5295C7.3437 22.8959 7.52862 22.2664 7.69855 21.6318C7.91345 21.6862 8.12735 21.7448 8.34226 21.8023C8.10836 22.6891 7.86047 23.5708 7.62058 24.4556C6.08226 24.0208 4.53895 23.6061 2.99963 23.1754Z" fill="#002147"/>
<path d="M18.5947 22.563C20.3949 22.563 22.1951 22.564 23.9953 22.563C24.718 22.5761 25.4947 22.562 26.1354 22.9504C26.87 23.3893 27.1829 24.2851 27.1869 25.1094C27.1979 28.4407 27.1859 31.772 27.1929 35.1024C27.1949 35.3122 27.1849 35.522 27.1559 35.7299C26.952 35.4232 27.019 35.0045 26.7681 34.717C26.3393 34.1348 25.5506 34.0814 24.8919 34.0612C22.7939 34.0551 20.6958 34.0561 18.5987 34.0602C18.5907 30.2285 18.5977 26.3957 18.5947 22.563ZM19.2884 24.3881C19.3384 24.4435 19.4374 24.5555 19.4863 24.611C19.5183 24.9813 19.5093 25.3556 19.4953 25.7278C19.5173 25.8832 19.3384 25.9347 19.2584 26.0315C19.7172 26.0164 20.227 26.1142 20.6378 25.854C21.1136 25.5695 21.1356 24.7301 20.6048 24.492C20.189 24.3215 19.7252 24.4042 19.2884 24.3881ZM21.7143 24.4274C21.1056 24.6796 21.0456 25.6754 21.6454 25.974C22.1851 26.2858 22.9458 25.856 22.9048 25.2133C22.9658 24.5908 22.2511 24.152 21.7143 24.4274ZM23.0557 24.3901C23.1367 24.4869 23.3276 24.5364 23.2986 24.6968C23.3006 25.0347 23.2786 25.3727 23.2407 25.7087C23.2467 25.862 23.0997 25.9357 23.0118 26.0356C23.2437 26.0376 23.4786 26.0446 23.7075 25.9952C23.6445 25.9589 23.5175 25.8862 23.4536 25.8499C23.4166 25.5301 23.4416 25.2073 23.4526 24.8864C23.6525 25.2426 23.7524 25.6441 23.9294 26.0113C23.9593 26.0073 24.0193 26.0002 24.0493 25.9972C24.2352 25.5977 24.3432 25.1659 24.5481 24.7755C24.5571 25.1346 24.5551 25.4948 24.5501 25.855C24.4901 25.8983 24.3712 25.9831 24.3112 26.0255C24.6021 26.0356 24.8919 26.0345 25.1828 26.0335C25.1308 25.977 25.0259 25.864 24.9729 25.8075C24.9369 25.409 24.9259 25.0065 24.9379 24.606C24.9929 24.5505 25.1028 24.4405 25.1588 24.385C24.9429 24.386 24.728 24.387 24.5131 24.386C24.3862 24.719 24.2582 25.0519 24.1343 25.3858C23.9793 25.0549 23.8334 24.72 23.6895 24.385C23.4776 24.386 23.2667 24.387 23.0557 24.3901ZM25.2838 24.3901C25.6006 24.5495 25.4987 24.9187 25.5167 25.2063C25.4987 25.4968 25.6006 25.862 25.2888 26.0325C25.5806 26.0335 25.8725 26.0335 26.1644 26.0356C26.1124 25.9791 26.0084 25.8671 25.9555 25.8116C25.9255 25.4111 25.9295 25.0065 25.9535 24.606C26.0064 24.5575 26.1134 24.4597 26.1674 24.4102C25.8735 24.378 25.5776 24.38 25.2838 24.3901ZM20.301 27.4268C20.3899 27.5277 20.5718 27.5781 20.5798 27.7325C20.6148 28.1159 20.5908 28.5013 20.5708 28.8846C20.5149 28.93 20.4009 29.0198 20.3449 29.0652C20.5808 29.0804 20.8177 29.0793 21.0526 29.046C20.5489 28.9088 20.8067 28.2914 20.7448 27.9151C21.0756 28.2833 21.3595 28.6919 21.6684 29.0793C21.7203 29.0894 21.8233 29.1096 21.8743 29.1187C21.9352 28.6062 21.8353 28.0806 21.9472 27.5761L22.1701 27.5065C21.9472 27.3764 21.6844 27.4329 21.4405 27.4308C21.8883 27.5882 21.7093 28.1048 21.7463 28.467C21.4495 28.132 21.1816 27.7728 20.9007 27.4258C20.7008 27.4268 20.5009 27.4258 20.301 27.4268ZM22.2221 27.5398C22.6439 27.9524 22.6089 28.6808 22.9868 29.1076L23.0977 29.0814C23.3946 28.5426 23.4276 27.8293 23.9284 27.4268C23.7015 27.4268 23.4736 27.4268 23.2467 27.4258C23.3006 27.4742 23.4076 27.5711 23.4616 27.6195C23.3816 27.9191 23.2726 28.2097 23.1667 28.5013C23.0108 28.2097 22.9068 27.8939 22.7959 27.5842C22.8548 27.5469 22.9748 27.4722 23.0338 27.4339C22.7419 27.4268 22.45 27.4268 22.1591 27.4157C22.1741 27.446 22.2061 27.5085 22.2221 27.5398ZM24.2222 27.4843C23.9813 27.6235 23.9094 28.0069 24.1203 28.2036C24.2892 28.3479 24.5031 28.4246 24.672 28.5689C24.788 28.7232 24.699 28.9825 24.4931 28.9855C24.2272 28.9623 24.1393 28.6637 23.9404 28.5275C23.9583 28.695 23.9883 28.8604 24.0193 29.0259C24.2662 29.0945 24.5421 29.1631 24.785 29.04C25.0539 28.928 25.1688 28.5648 25.0179 28.3166C24.8579 28.0806 24.5331 28.0463 24.3602 27.8283C24.2592 27.6417 24.5021 27.4399 24.672 27.5458C24.799 27.6508 24.8929 27.79 25.0029 27.9121C24.9899 27.7557 24.9759 27.5993 24.9609 27.4429C24.717 27.4036 24.4451 27.339 24.2222 27.4843ZM20.0971 30.4847C20.158 30.5241 20.28 30.6028 20.341 30.6421C20.3569 31.0709 20.3549 31.5007 20.3439 31.9294C20.261 31.9839 20.179 32.0384 20.0971 32.0929C20.3979 32.1191 20.6988 32.1161 21.0007 32.1151C20.9317 32.0333 20.8367 31.9708 20.7908 31.8729C20.7598 31.4664 20.7818 31.0588 20.7858 30.6522C20.8647 30.5906 20.9437 30.5291 21.0226 30.4655C20.7138 30.4625 20.4049 30.4615 20.0971 30.4847ZM21.0946 30.4766C21.1726 30.5281 21.2495 30.5795 21.3285 30.631C21.3455 31.0608 21.3705 31.4946 21.3245 31.9224C21.2655 31.9647 21.1476 32.0485 21.0886 32.0898C21.5154 32.1352 21.9442 32.104 22.372 32.1211C22.411 31.9547 22.444 31.7882 22.472 31.6197C22.2981 31.8517 22.1002 32.0586 21.7833 31.9708C21.7743 31.5652 21.7553 31.1576 21.7823 30.7521C21.7783 30.6068 21.9362 30.5493 22.0172 30.4575C21.7093 30.4666 21.4015 30.4635 21.0946 30.4766ZM22.501 30.4736C22.58 30.5321 22.6589 30.5917 22.7379 30.6512C22.7429 31.0608 22.7639 31.4714 22.7349 31.881C22.6769 31.9375 22.56 32.0525 22.502 32.11C22.9298 32.1151 23.3576 32.1151 23.7864 32.113C23.8164 31.9496 23.8444 31.7852 23.8684 31.6217C23.6965 31.8507 23.5015 32.0535 23.1887 31.9809C23.1757 31.5733 23.1577 31.1647 23.1837 30.7581C23.1767 30.6108 23.3346 30.5503 23.4166 30.4575C23.1107 30.4666 22.8059 30.4655 22.501 30.4736ZM23.5735 30.4605C23.6745 30.5594 23.8054 30.6411 23.8574 30.7823C24.0413 31.2212 24.1962 31.6732 24.3662 32.1191C24.4131 32.1262 24.5091 32.1423 24.5561 32.1494C24.746 31.6923 24.8999 31.2192 25.1078 30.7702C25.1668 30.635 25.2987 30.5574 25.4017 30.4605C25.1648 30.4666 24.9279 30.4655 24.691 30.4645C24.753 30.5099 24.8749 30.5987 24.9369 30.6441C24.832 30.9538 24.729 31.2646 24.625 31.5743C24.4931 31.2676 24.3782 30.9538 24.2582 30.6421C24.3142 30.5977 24.4261 30.5079 24.4821 30.4635C24.1782 30.4655 23.8754 30.4686 23.5735 30.4605Z" fill="#002147"/>
<path d="M28.8081 23.1149C29.3828 22.6255 30.1735 22.5822 30.8912 22.566C32.7993 22.56 34.7075 22.565 36.6156 22.564C36.6196 26.3927 36.6086 30.2214 36.6206 34.0491C34.7765 34.0693 32.9323 34.0521 31.0871 34.0582C30.3784 34.0683 29.6357 34.0057 28.963 34.2791C28.5402 34.4476 28.2274 34.8522 28.1674 35.3072C28.1144 35.4302 28.1664 35.634 28.0135 35.6915C27.9885 35.5624 27.9765 35.4333 27.9775 35.3021C27.9835 31.9395 27.9765 28.5769 27.9805 25.2143C27.9765 24.4476 28.1944 23.6143 28.8081 23.1149ZM29.054 24.3881C29.139 24.4546 29.2179 24.5273 29.2909 24.607C29.3049 24.9732 29.2749 25.3394 29.2369 25.7036C29.2439 25.856 29.1 25.9327 29.013 26.0346C29.2269 26.0335 29.4398 26.0335 29.6537 26.0356L29.6587 25.9629C29.6058 25.9337 29.4998 25.8731 29.4468 25.8439C29.4138 25.5241 29.4368 25.2022 29.4518 24.8834C29.6457 25.2406 29.7477 25.6371 29.9216 26.0033C29.9516 26.0033 30.0126 26.0013 30.0426 26.0003C30.2275 25.5997 30.3404 25.1679 30.5433 24.7755C30.5513 25.1356 30.5513 25.4958 30.5443 25.856C30.4854 25.8984 30.3684 25.9841 30.3094 26.0265C30.6003 26.0346 30.8912 26.0346 31.182 26.0335C31.1291 25.977 31.0221 25.8641 30.9691 25.8076C30.9322 25.406 30.9242 25.0015 30.9312 24.5989C30.9901 24.5465 31.1081 24.4405 31.1671 24.3881C30.9472 24.3871 30.7283 24.3871 30.5084 24.386C30.3844 24.7099 30.2625 25.0348 30.1405 25.3596C29.9586 25.0529 29.8287 24.72 29.6937 24.3911C29.4798 24.386 29.2669 24.3871 29.054 24.3881ZM31.294 24.3871C31.344 24.4456 31.4449 24.5626 31.4949 24.6221C31.5199 25.0156 31.5209 25.4141 31.4939 25.8086C31.4399 25.8641 31.331 25.976 31.277 26.0325C31.5749 26.0335 31.8727 26.0325 32.1716 26.0346C32.1166 25.9791 32.0067 25.8691 31.9517 25.8136C31.9217 25.4151 31.9237 25.0126 31.9497 24.6141C32.0047 24.5565 32.1136 24.4435 32.1676 24.386C31.8767 24.386 31.5849 24.386 31.294 24.3871ZM32.2106 24.3931C32.3076 24.4607 32.3975 24.5374 32.4795 24.6231C32.5235 24.952 32.5065 25.286 32.4965 25.6169C32.5225 25.8025 32.4165 25.9337 32.2536 26.0073C32.4975 26.0497 32.7474 26.0477 32.9882 25.9892C32.9133 25.9619 32.7633 25.9074 32.6874 25.8792C32.6504 25.5493 32.6464 25.2164 32.6614 24.8844C32.8923 25.1387 33.0962 25.4171 33.3051 25.6915C33.439 25.858 33.556 26.085 33.8019 26.0789C33.8129 25.6169 33.7849 25.1538 33.8209 24.6927C33.8079 24.5354 33.9818 24.4839 34.0678 24.3871C33.8259 24.386 33.585 24.3871 33.3451 24.3921C33.438 24.4567 33.529 24.5243 33.619 24.5949C33.6649 24.8713 33.648 25.1548 33.656 25.4343C33.3621 25.0902 33.0902 24.727 32.7993 24.38C32.6024 24.385 32.4065 24.3881 32.2106 24.3931ZM33.9488 26.0335C34.1757 26.0346 34.4026 26.0315 34.6295 26.0245C34.5695 25.9861 34.4496 25.9074 34.3886 25.8681C34.4236 25.7581 34.4586 25.6482 34.4926 25.5382C34.6285 25.5352 34.7645 25.5331 34.9004 25.5301C34.9394 25.6461 34.9764 25.7622 35.0153 25.8792C34.9634 25.9155 34.8584 25.9881 34.8054 26.0245C35.0983 26.0366 35.3922 26.0346 35.686 26.0315C35.5861 25.9306 35.4532 25.853 35.4062 25.7117C35.2203 25.2668 35.0963 24.7987 34.9034 24.3568L34.7844 24.3669C34.4326 24.8804 34.4466 25.6189 33.9488 26.0335ZM30.1775 27.3713C30.1725 27.559 30.1685 27.7466 30.1675 27.9343C30.2795 27.7315 30.4134 27.5408 30.6653 27.5317C30.6773 27.9847 30.6773 28.4387 30.6623 28.8917C30.5963 28.9331 30.4644 29.0168 30.3984 29.0592C30.7293 29.0814 31.0611 29.0814 31.392 29.0572C31.322 29.0158 31.1811 28.9351 31.1101 28.8947C31.0951 28.4397 31.0941 27.9847 31.1091 27.5307C31.356 27.5358 31.4859 27.7385 31.6109 27.9232C31.6119 27.7456 31.6049 27.568 31.5909 27.3905C31.1221 27.4298 30.6423 27.4702 30.1775 27.3713ZM31.7438 27.4329C31.8238 27.4964 31.9047 27.56 31.9867 27.6225C31.9787 28.0342 32.0117 28.4468 31.9707 28.8574C31.9187 28.9109 31.8148 29.0168 31.7628 29.0703C32.0597 29.0753 32.3565 29.0773 32.6544 29.0622C32.5964 29.0188 32.4805 28.93 32.4225 28.8856C32.4165 28.4982 32.4005 28.1098 32.4225 27.7234C32.4055 27.5741 32.5714 27.5206 32.6484 27.4248C32.3465 27.4258 32.0447 27.4238 31.7438 27.4329ZM33.2341 27.5055C32.7943 27.7587 32.6824 28.4256 33.0042 28.817C33.2961 29.1812 33.8928 29.2065 34.2327 28.8967C34.5885 28.5648 34.5975 27.9161 34.2307 27.5892C33.9628 27.3481 33.541 27.335 33.2341 27.5055ZM29.7697 30.4625C29.8986 30.5674 30.0715 30.6673 30.0166 30.8661C29.9706 31.2858 30.0775 31.7801 29.7737 32.1201C29.9906 32.1151 30.2135 32.1352 30.4244 32.0697C29.9546 31.9637 30.2105 31.3645 30.1825 31.0275C30.4084 31.3756 30.4834 31.7963 30.6873 32.1564C30.9602 31.7509 31.0581 31.2595 31.26 30.8187C31.204 31.2444 31.4559 31.8074 31.0611 32.1151C31.346 32.1151 31.6299 32.1131 31.9137 32.109C31.8617 32.0636 31.7568 31.9748 31.7048 31.9304C31.6348 31.5087 31.6638 31.0759 31.6468 30.6492C31.7328 30.5876 31.8188 30.5261 31.9057 30.4656C31.6778 30.4656 31.4509 30.4666 31.224 30.4716C31.1031 30.8025 30.9761 31.1314 30.8552 31.4613C30.6893 31.1344 30.5543 30.7934 30.3994 30.4615C30.1895 30.4656 29.9796 30.4656 29.7697 30.4625ZM31.9927 30.4645C32.0497 30.513 32.1636 30.6078 32.2216 30.6562C32.2266 31.0648 32.2486 31.4744 32.2166 31.883C32.1526 31.9385 32.0257 32.0495 31.9617 32.105C32.4095 32.1181 32.8583 32.1171 33.3071 32.11C33.3341 31.9426 33.3591 31.7751 33.3801 31.6086C33.2741 31.7196 33.1822 31.8427 33.0762 31.9526C32.9413 31.9708 32.8053 31.9799 32.6704 31.9789C32.6594 31.7539 32.6554 31.5279 32.6554 31.3019C32.8733 31.2969 33.0222 31.4341 33.1342 31.6046C33.1402 31.3826 33.1432 31.1607 33.1392 30.9397C33.0152 31.0911 32.8623 31.198 32.6604 31.2051C32.6554 31.0033 32.6544 30.8025 32.6524 30.6028C32.9303 30.5372 33.1102 30.7147 33.2491 30.9317C33.2471 30.7783 33.2451 30.626 33.2441 30.4746C32.8263 30.4615 32.4095 30.4666 31.9927 30.4645ZM33.3711 32.112C33.584 32.1141 33.7969 32.1141 34.0098 32.111C33.9418 32.0495 33.8739 31.99 33.8049 31.9315C33.8389 31.8245 33.8719 31.7196 33.9068 31.6137C34.0448 31.6147 34.1847 31.6157 34.3237 31.6167C34.4056 31.7922 34.4166 31.9708 34.2817 32.1231C34.5546 32.1151 34.8284 32.112 35.1023 32.1009C34.9874 32.0021 34.8464 31.9163 34.8034 31.7599C34.6215 31.3049 34.4826 30.8328 34.2907 30.3818C33.8049 30.8419 33.8968 31.6712 33.3711 32.112Z" fill="#002147"/>
<path d="M14.6075 23.3206C14.8674 22.9403 15.5061 22.9282 15.747 23.3337C15.9079 23.6727 16.3187 23.6647 16.6236 23.7807C16.6226 23.6899 16.6216 23.5093 16.6206 23.4185C16.8825 23.4175 17.1453 23.4175 17.4082 23.4175C17.4112 27.4661 17.4072 31.5158 17.4102 35.5654C20.3109 35.5624 23.2116 35.5654 26.1124 35.5644C26.2453 35.9064 26.4172 36.2847 26.7911 36.4119C27.2998 36.5864 27.8756 36.5864 28.3853 36.4159C28.7652 36.2938 28.9451 35.9115 29.078 35.5644C31.9877 35.5594 34.8984 35.5735 37.8082 35.5573C37.7982 31.5107 37.8062 27.4641 37.8042 23.4175C38.066 23.4175 38.3279 23.4175 38.5898 23.4165C38.5928 27.7304 38.5908 32.0444 38.5908 36.3584C35.5811 36.3604 32.5715 36.3543 29.5618 36.3604C29.075 37.229 27.9845 37.445 27.0779 37.2956C26.4812 37.228 25.9364 36.878 25.6256 36.3594C22.6259 36.3584 19.6272 36.3533 16.6276 36.3624C16.6206 36.0739 16.6216 35.7864 16.6216 35.4978C16.3807 35.5967 16.1408 35.6996 15.9069 35.8136C15.7949 36.1667 15.4701 36.4754 15.0793 36.4018C14.5845 36.3493 14.2906 35.7167 14.5755 35.3021C14.7834 34.9449 15.2532 34.8925 15.596 35.0711C15.9399 34.9268 16.2837 34.7795 16.6236 34.6251C16.6216 34.3094 16.6216 33.9946 16.6216 33.6808C16.3887 33.7514 16.1568 33.8231 15.9269 33.9008C15.7839 34.2216 15.4611 34.494 15.0923 34.4082C14.5765 34.3386 14.3166 33.6425 14.6604 33.247C14.9013 32.9181 15.3751 32.9131 15.692 33.132C16.0028 33.0422 16.3107 32.9464 16.6206 32.8525C16.6226 32.5267 16.6216 32.2008 16.6226 31.8749C16.3857 31.9143 16.1488 31.9536 15.9129 31.996C15.737 32.2664 15.4381 32.5024 15.0972 32.4177C14.5805 32.342 14.3316 31.6419 14.6794 31.2504C14.9473 30.8973 15.4691 30.9316 15.7779 31.2081C16.0598 31.1637 16.3407 31.1142 16.6216 31.0648C16.6216 30.7329 16.6216 30.3999 16.6226 30.068C16.3747 30.0761 16.1278 30.0852 15.8809 30.0973C15.618 30.4635 15.0453 30.5775 14.7284 30.2183C14.3376 29.842 14.5675 29.0995 15.1002 29.0137C15.3991 28.928 15.646 29.1378 15.8779 29.2912C16.1258 29.3023 16.3737 29.2801 16.6216 29.272C16.6216 28.9118 16.6216 28.5527 16.6236 28.1935C16.3597 28.1784 16.0958 28.1663 15.8319 28.1592C15.634 28.3479 15.3741 28.5154 15.0883 28.4387C14.6245 28.36 14.3596 27.7678 14.6155 27.3672C14.8214 26.9778 15.4011 26.884 15.707 27.2078C15.9389 27.4681 16.3157 27.3511 16.6216 27.3945C16.6216 27.0626 16.6216 26.7317 16.6226 26.4018C16.3327 26.3473 16.0448 26.2918 15.754 26.2474C15.5381 26.4038 15.2662 26.5329 14.9993 26.429C14.5645 26.3039 14.3586 25.7248 14.6185 25.3515C14.8464 24.9641 15.4581 24.8975 15.738 25.2607C15.9289 25.5674 16.3167 25.516 16.6226 25.5896C16.6216 25.2637 16.6216 24.9379 16.6206 24.611C16.3087 24.5232 16.0048 24.4072 15.689 24.3366C15.4461 24.39 15.2012 24.5505 14.9473 24.4365C14.5015 24.2982 14.3136 23.6879 14.6075 23.3206Z" fill="#002147"/>
<path d="M19.9351 24.5091C20.5918 24.4465 20.6977 25.3818 20.3579 25.7783C20.2679 25.8953 19.9821 25.9851 19.9491 25.7793C19.9051 25.3576 19.9361 24.9318 19.9351 24.5091Z" fill="#002147"/>
<path d="M21.9142 24.5182C22.1671 24.3729 22.369 24.6907 22.4 24.9096C22.446 25.2294 22.4989 25.639 22.258 25.8933C21.9952 26.0638 21.7633 25.743 21.7273 25.5069C21.6703 25.182 21.6303 24.7492 21.9142 24.5182Z" fill="#002147"/>
<path d="M34.5256 25.3757C34.5836 25.2194 34.6436 25.065 34.7056 24.9106C34.7555 25.0711 34.8065 25.2325 34.8575 25.3939C34.7465 25.3878 34.6356 25.3818 34.5256 25.3757Z" fill="#002147"/>
<path d="M47.8438 25.8227C49.433 25.6976 51.0203 25.5492 52.6116 25.4352C52.6636 26.321 52.7516 27.2048 52.8175 28.0896C52.5996 28.1078 52.3827 28.1249 52.1658 28.1431C52.1149 27.5105 52.0619 26.8779 52.0149 26.2444C51.5791 26.2756 51.1443 26.321 50.7075 26.3382C50.7295 26.9405 50.7984 27.5398 50.8404 28.14C50.6265 28.1562 50.4136 28.1744 50.2017 28.1895C50.1577 27.5932 50.1067 26.998 50.0588 26.4028C49.3401 26.4683 48.6214 26.5238 47.9017 26.5773C47.8827 26.3251 47.8637 26.0739 47.8438 25.8227Z" fill="#002147"/>
<path d="M2.5259 25.522C4.0992 26.1566 5.6665 26.8073 7.2378 27.448C7.22881 27.7133 7.21781 27.9787 7.20582 28.245C5.59453 28.7353 3.98125 29.2196 2.36697 29.7008C2.36797 29.4365 2.36897 29.1722 2.36597 28.9088C3.65939 28.5325 4.95881 28.1784 6.25224 27.8031C5.02778 27.2533 3.75235 26.8215 2.5079 26.316C2.5139 26.0517 2.5199 25.7864 2.5259 25.522Z" fill="#002147"/>
<path d="M33.516 27.5519C33.667 27.4651 33.8409 27.5721 33.9109 27.7133C34.0558 27.9968 34.0528 28.3348 34.0038 28.6435C33.9838 28.813 33.8699 28.9926 33.68 28.9865C33.4001 28.9199 33.3171 28.5981 33.2922 28.3479C33.2752 28.0745 33.2752 27.7315 33.516 27.5519Z" fill="#002147"/>
<path d="M49.22 30.2103C50.3845 29.9046 51.8389 30.3394 52.3886 31.4855C52.8044 32.3794 52.5326 33.5628 51.7199 34.1328C50.6424 34.8612 49.0551 34.6302 48.1625 33.702C47.6048 33.1017 47.4978 32.1645 47.8067 31.4189C48.0536 30.8196 48.6003 30.3676 49.22 30.2103ZM49.5339 30.9326C48.8812 31.0184 48.3024 31.5813 48.3124 32.2664C48.2615 32.908 48.8022 33.4074 49.36 33.6001C49.9837 33.8311 50.7344 33.8806 51.3171 33.5143C51.9408 33.133 52.1197 32.1756 51.645 31.6065C51.1432 31.0002 50.2786 30.8247 49.5339 30.9326Z" fill="#002147"/>
<path d="M33.9398 31.4724C33.9948 31.3059 34.0528 31.1415 34.1107 30.976C34.1627 31.1374 34.2157 31.2989 34.2707 31.4603C34.1877 31.4633 34.0228 31.4694 33.9398 31.4724Z" fill="#002147"/>
<path d="M78.3252 31.3402C81.8366 30.971 85.522 32.001 88.2028 34.3568C89.7411 35.6895 90.9336 37.4258 91.6323 39.3477C92.9477 42.9807 92.5549 47.219 90.5438 50.519C89.1334 52.8556 86.9144 54.6655 84.3755 55.6159C80.3583 57.1252 75.5944 56.5905 72.092 54.0582C69.701 52.3532 67.9738 49.7351 67.3391 46.8507C66.5044 43.1068 67.3351 38.9653 69.742 35.9629C71.8191 33.3206 75.0097 31.659 78.3252 31.3402ZM78.6201 32.5559C77.2927 32.7173 76.0072 33.2359 74.9537 34.0692C73.6313 35.1043 72.6867 36.5632 72.074 38.1199C71.2343 40.2627 70.9585 42.5993 71.0774 44.8915C71.1774 46.8184 71.5602 48.7555 72.4028 50.4988C73.1125 51.9748 74.193 53.2985 75.6014 54.1409C77.1387 55.0781 79.0009 55.3828 80.7711 55.17C82.1505 55.0075 83.4899 54.4617 84.5684 53.5739C85.8718 52.5156 86.7954 51.0457 87.3912 49.4819C88.2358 47.2563 88.4827 44.833 88.3168 42.4671C88.1778 40.5281 87.742 38.583 86.8294 36.8598C86.0648 35.4161 84.9213 34.1459 83.4719 33.3852C81.9956 32.5932 80.2693 32.3562 78.6201 32.5559Z" fill="#002147"/>
<path d="M155.697 31.3503C159.283 30.9478 163.062 32.0121 165.773 34.4536C167.227 35.744 168.359 37.3955 169.047 39.2216C170.479 43.0402 170.001 47.5549 167.733 50.9468C166.099 53.4125 163.544 55.2174 160.711 55.9811C156.789 57.0566 152.351 56.2928 149.134 53.7434C146.622 51.7882 144.955 48.7878 144.586 45.6098C144.129 41.9607 145.212 38.0906 147.705 35.3727C149.751 33.0886 152.67 31.6651 155.697 31.3503ZM156.089 32.5549C154.971 32.6921 153.881 33.0735 152.937 33.6959C151.56 34.5888 150.527 35.9447 149.835 37.4278C148.943 39.3447 148.555 41.4714 148.518 43.5799C148.49 45.7702 148.787 47.9968 149.648 50.0206C150.309 51.5763 151.348 53.0029 152.756 53.9452C154.095 54.8552 155.727 55.2688 157.333 55.2325C158.877 55.2143 160.431 54.7533 161.689 53.8352C163.112 52.8112 164.129 51.2979 164.779 49.6766C165.674 47.4308 165.944 44.9671 165.787 42.562C165.656 40.5886 165.22 38.6062 164.288 36.8537C163.533 35.4302 162.412 34.1782 160.99 33.4145C159.503 32.6023 157.756 32.3531 156.089 32.5549Z" fill="#002147"/>
<path d="M2.6488 32.0626C4.2251 31.8376 5.7984 31.5904 7.3737 31.3634C7.40969 31.6156 7.44567 31.8678 7.48166 32.1201C5.90836 32.3592 4.33505 32.5983 2.75975 32.8253C2.72277 32.571 2.68579 32.3158 2.6488 32.0626Z" fill="#002147"/>
<path d="M93.5374 31.6701C97.0728 31.6711 100.608 31.6691 104.145 31.6711C104.143 31.9667 104.143 32.2623 104.142 32.5579C103.381 32.7163 102.62 32.8767 101.859 33.0281C101.667 33.0775 101.439 33.1078 101.319 33.2853C101.272 33.5154 101.436 33.7081 101.549 33.8887C103.38 36.5249 105.2 39.1681 107.033 41.8033C107.102 41.9889 107.269 41.8881 107.331 41.7589C109.211 39.1066 111.097 36.4583 112.973 33.8039C113.132 33.6253 113.217 33.2974 112.919 33.2117C112.117 32.9312 111.275 32.7749 110.455 32.5569C110.453 32.2613 110.453 31.9657 110.453 31.6701C113.295 31.6691 116.136 31.6701 118.979 31.6701C118.978 31.9667 118.978 32.2633 118.976 32.561C118.022 32.8273 117.037 32.9857 116.107 33.3328C115.296 33.6364 114.788 34.3709 114.28 35.0317C112.176 37.7063 110.071 40.3798 107.97 43.0563C110.475 46.3816 112.974 49.7109 115.477 53.0382C115.88 53.6304 116.373 54.2004 117.062 54.4527C117.883 54.7553 118.745 54.9198 119.583 55.1669C119.583 55.4595 119.583 55.7531 119.588 56.0467C116.051 56.0588 112.514 56.0477 108.978 56.0517C108.977 55.7581 108.977 55.4646 108.975 55.172C109.866 54.9611 110.781 54.8441 111.658 54.5828C111.971 54.4799 111.807 54.1227 111.665 53.9411C109.928 51.4623 108.183 48.9896 106.442 46.5138C106.146 46.1062 105.878 45.6774 105.554 45.292C103.682 47.8193 101.882 50.404 100.037 52.9535C99.7636 53.3641 99.4277 53.7353 99.2038 54.1762C99.1089 54.4385 99.4417 54.5364 99.6247 54.5999C100.367 54.8037 101.12 54.9662 101.864 55.1679C101.865 55.4635 101.865 55.7602 101.853 56.0558C99.0149 56.0477 96.1782 56.0507 93.3414 56.0537C93.3375 55.7581 93.3374 55.4625 93.3394 55.1669C94.1421 54.9682 94.9457 54.7735 95.7434 54.5545C96.3811 54.379 96.9748 54.0249 97.3956 53.5043C99.8516 50.4131 102.286 47.3027 104.747 44.2155C102.494 41.1657 100.212 38.1381 97.9474 35.0963C97.4446 34.4395 96.9988 33.6647 96.2022 33.3328C95.3446 32.9827 94.427 32.8122 93.5394 32.5569C93.5364 32.2613 93.5364 31.9657 93.5374 31.6701Z" fill="#002147"/>
<path d="M122.87 31.6722C128.957 31.6671 135.043 31.6711 141.13 31.6701C141.129 33.704 141.129 35.7369 141.13 37.7698C140.792 37.7708 140.457 37.7708 140.121 37.7698C139.738 36.5339 139.352 35.2991 138.968 34.0642C138.848 33.6879 138.691 33.2904 138.361 33.0523C138.066 32.8394 137.687 32.8233 137.337 32.8253C134.863 32.8334 132.388 32.8172 129.914 32.8334C129.924 36.3291 129.915 39.8239 129.918 43.3187C131.659 43.3197 133.401 43.3187 135.143 43.3197C135.647 43.3096 136.202 43.3822 136.651 43.0937C137.041 42.8435 137.22 42.3875 137.344 41.9587C137.532 41.307 137.718 40.6542 137.909 40.0025C138.241 40.0045 138.573 40.0045 138.907 39.9974C138.927 42.7073 138.909 45.4171 138.916 48.127C138.58 48.128 138.246 48.128 137.912 48.131C137.702 47.3209 137.508 46.5067 137.303 45.6956C137.214 45.3415 137.061 44.9803 136.76 44.7583C136.443 44.5112 136.028 44.4718 135.642 44.4698C133.734 44.4688 131.826 44.4698 129.918 44.4698C129.92 47.4631 129.914 50.4565 129.921 53.4498C129.887 53.9119 130.171 54.376 130.632 54.4809C131.641 54.7291 132.663 54.9299 133.676 55.1669C133.676 55.4575 133.677 55.7491 133.687 56.0416C130.082 56.0648 126.477 56.0447 122.872 56.0517C122.871 55.7561 122.871 55.4615 122.871 55.168C123.631 54.9864 124.389 54.7987 125.147 54.6141C125.498 54.5172 125.887 54.4325 126.144 54.15C126.356 53.9099 126.361 53.5669 126.365 53.2622C126.361 46.9416 126.368 40.6199 126.362 34.2983C126.402 33.8352 126.113 33.3943 125.668 33.2692C124.749 32.9847 123.802 32.796 122.871 32.5529C122.871 32.2593 122.871 31.9657 122.87 31.6722Z" fill="#002147"/>
<path d="M172.609 31.6701C175.747 31.6701 178.886 31.6701 182.023 31.6701C183.931 31.6712 185.882 31.6409 187.73 32.1968C189.557 32.7315 191.095 34.15 191.811 35.9256C192.477 37.5186 192.431 39.4133 191.606 40.9387C190.767 42.5338 189.223 43.6415 187.567 44.2428C187.152 44.4093 186.705 44.4779 186.3 44.6675C187.159 45.1306 187.743 45.9357 188.343 46.6823C190.107 48.9482 191.806 51.2636 193.532 53.5588C193.928 54.0885 194.507 54.4769 195.153 54.6121C195.986 54.7906 196.816 54.9823 197.647 55.1659C197.646 55.4585 197.647 55.7521 197.653 56.0457C195.672 56.0548 193.691 56.0568 191.711 56.0447C191.062 56.0427 190.612 55.5069 190.262 55.0237C188.386 52.3784 186.513 49.7321 184.64 47.0848C184.076 46.3211 183.452 45.4615 182.474 45.2476C181.548 45.062 180.598 45.1851 179.662 45.1458C179.655 47.9202 179.656 50.6946 179.661 53.469C179.631 53.9361 179.933 54.3911 180.397 54.488C181.399 54.7311 182.412 54.9339 183.418 55.167C183.417 55.4626 183.417 55.7582 183.415 56.0538C179.815 56.0507 176.216 56.0487 172.616 56.0548C172.607 55.7582 172.607 55.4626 172.61 55.167C173.543 54.9248 174.493 54.7452 175.413 54.4527C175.841 54.3296 176.126 53.9099 176.097 53.463C176.104 47.0737 176.101 40.6825 176.099 34.2932C176.132 33.8362 175.856 33.3943 175.411 33.2702C174.49 32.9867 173.543 32.7961 172.61 32.5549C172.608 32.2593 172.608 31.9647 172.609 31.6701ZM179.658 32.8273C179.663 36.5531 179.647 40.2789 179.666 44.0047C180.717 43.9876 181.767 44.0087 182.818 43.9936C183.86 43.9765 184.929 43.812 185.858 43.3106C186.579 42.9262 187.184 42.3229 187.56 41.5905C188.086 40.5927 188.245 39.4426 188.25 38.3237C188.256 37.111 187.929 35.8731 187.199 34.8976C186.358 33.7585 185.016 33.0503 183.625 32.906C182.307 32.7668 180.98 32.8495 179.658 32.8273Z" fill="#002147"/>
<path d="M199.593 31.6701C202.663 31.6701 205.734 31.6701 208.804 31.6701C211.079 31.6731 213.383 31.6096 215.62 32.108C217.46 32.4893 219.218 33.3126 220.647 34.5505C223.083 36.6247 224.441 39.7866 224.659 42.9605C224.864 46.0376 224.232 49.2953 222.329 51.7731C221.217 53.2248 219.692 54.3316 218.011 55.0166C216.227 55.7178 214.3 55.9347 212.4 56.0235C208.134 56.088 203.865 56.0295 199.599 56.0558C199.59 55.7581 199.589 55.4625 199.594 55.1659C200.5 54.9389 201.415 54.7412 202.314 54.4829C202.773 54.3719 203.119 53.9482 203.081 53.4629C203.09 47.1383 203.081 40.8136 203.086 34.4879C203.084 34.1671 203.081 33.8009 202.848 33.5537C202.603 33.3015 202.25 33.2147 201.925 33.1269C201.147 32.9403 200.372 32.7416 199.593 32.5569C199.591 32.2613 199.591 31.9657 199.593 31.6701ZM206.643 32.8263C206.643 39.8067 206.644 46.7872 206.643 53.7676C206.653 54.0652 206.634 54.4022 206.825 54.6524C207.042 54.9026 207.403 54.8885 207.707 54.9016C208.906 54.8966 210.106 54.9107 211.306 54.8915C212.837 54.8471 214.403 54.6988 215.83 54.0945C217.304 53.4781 218.469 52.2573 219.228 50.86C220.131 49.1863 220.509 47.2765 220.63 45.3889C220.741 43.4468 220.629 41.4754 220.14 39.5888C219.716 37.9716 218.973 36.4068 217.81 35.1982C216.817 34.152 215.511 33.4145 214.098 33.1461C211.643 32.6578 209.127 32.8798 206.643 32.8263Z" fill="#002147"/>
<path d="M3.32446 35.6845C4.83079 35.1639 6.33013 34.6231 7.83346 34.0945C7.91942 34.3225 8.00238 34.5525 8.08435 34.7835C7.21074 35.8479 6.35612 36.9284 5.47451 37.9857C6.56902 37.5358 7.67053 37.0939 8.77504 36.6651C8.84901 36.8891 8.92797 37.11 9.00794 37.332C7.53059 37.9202 6.03826 38.47 4.56391 39.0673C4.46396 38.8372 4.377 38.6022 4.30003 38.3641C5.16764 37.3128 6.02326 36.2505 6.88688 35.1952C5.77637 35.5735 4.67486 35.9791 3.56536 36.3604C3.48439 36.1354 3.40343 35.9095 3.32446 35.6845Z" fill="#002147"/>
<path d="M46.8781 35.6522C48.3275 36.3029 49.7718 36.9667 51.2182 37.6255C50.9163 38.2712 50.7114 38.9764 50.2756 39.5485C49.7138 40.2466 48.4744 39.9974 48.1246 39.2034C48.0446 39.0238 48.0406 38.8251 48.0226 38.6334C47.21 38.8826 46.3433 38.7262 45.5067 38.7726C45.6117 38.5295 45.7176 38.2874 45.8156 38.0422C46.4393 37.9938 47.068 38.0694 47.6897 37.9938C48.1056 37.9464 48.2355 37.4883 48.3774 37.1604C47.7717 36.8961 47.176 36.6126 46.5732 36.3443C46.6752 36.1142 46.7761 35.8832 46.8781 35.6522ZM48.6303 38.5295C48.6623 39.0652 49.383 39.4052 49.7978 39.0622C50.0677 38.7898 50.1746 38.4054 50.3446 38.0694C49.8918 37.8364 49.421 37.6437 48.9602 37.4298C48.8192 37.7829 48.6093 38.135 48.6303 38.5295Z" fill="#002147"/>
<path d="M26.6771 39.6393C26.951 39.2721 27.1819 38.8705 27.4808 38.5235C27.7356 38.4438 27.8256 38.7202 27.9535 38.8776C28.3554 39.4819 28.8062 40.0529 29.188 40.6694C29.073 40.9054 28.6862 40.7985 28.4693 40.9216C28.7942 41.4018 29.085 41.9083 29.4609 42.3512C29.8967 41.9748 30.3445 41.6127 30.7683 41.2232C30.5774 41.0951 30.3675 40.9993 30.1606 40.9024C30.5644 40.4656 31.1131 40.1992 31.5749 39.831C31.7978 39.7039 31.9858 39.4395 32.2626 39.4617C31.9508 40.6835 31.485 41.8659 31.1311 43.0776C29.9876 42.7103 28.7772 42.6458 27.5867 42.6326C26.3912 42.6458 25.1778 42.7083 24.0313 43.0776C23.6774 41.9466 23.3006 40.8217 22.9378 39.6938C22.8628 39.5848 22.9218 39.3487 23.0807 39.4779C23.7594 39.9278 24.4431 40.3748 25.0938 40.8661C24.8869 40.9872 24.676 41.1002 24.4711 41.2242C24.8789 41.6056 25.2937 41.9789 25.7065 42.3542C26.0684 41.9012 26.3732 41.4058 26.6881 40.9216C26.4472 40.8429 26.1963 40.7995 25.9474 40.7602C26.1274 40.3475 26.4332 40.0126 26.6771 39.6393Z" fill="#002147"/>
<path d="M8.47516 39.9207C8.90497 39.6312 9.44173 39.4022 9.9575 39.5969C10.7731 39.8995 11.3329 40.7954 11.2729 41.6681C11.2379 42.1816 10.8261 42.5478 10.4433 42.8334C9.60866 43.4407 8.77203 44.044 7.92941 44.6392C7.78747 44.4264 7.64353 44.2155 7.4986 44.0057C8.28325 43.4478 9.0619 42.8818 9.84555 42.3218C10.1194 42.111 10.4653 41.9102 10.5492 41.546C10.6392 40.9336 10.1324 40.2446 9.49071 40.2748C9.24582 40.3021 9.03891 40.4504 8.836 40.5785C7.99838 41.1536 7.15975 41.7276 6.32112 42.2997C6.17818 42.0928 6.03525 41.885 5.89331 41.6782C6.75493 41.0951 7.60755 40.4958 8.47516 39.9207Z" fill="#002147"/>
<path d="M43.6576 41.4482C43.9965 40.9639 44.3733 40.5089 44.7401 40.0469C45.9806 41.0507 47.226 42.0495 48.4675 43.0533C47.9517 43.6728 47.5099 44.3719 46.8692 44.8703C46.2515 45.3617 45.3578 45.3566 44.6742 45.0096C43.9385 44.6343 43.3208 43.9301 43.2098 43.0856C43.1198 42.5025 43.3307 41.9204 43.6576 41.4482ZM43.9995 42.1706C43.7606 42.672 43.9115 43.2813 44.2613 43.6899C44.6981 44.2136 45.3698 44.6524 46.0765 44.493C46.7272 44.3467 47.0831 43.7232 47.4959 43.2551C46.5933 42.5206 45.6937 41.7811 44.7761 41.0679C44.4682 41.3947 44.1954 41.764 43.9995 42.1706Z" fill="#002147"/>
<path d="M26.1014 43.4962C27.3658 43.3893 28.6492 43.3943 29.9017 43.6153C30.2165 43.6869 30.5614 43.7363 30.8193 43.9472C30.9722 44.0662 30.7993 44.2317 30.6793 44.2811C30.1516 44.5233 29.5638 44.5767 28.9941 44.6393C27.7436 44.7412 26.4752 44.7321 25.2367 44.5122C24.9179 44.4365 24.562 44.386 24.3112 44.155C24.2132 43.9885 24.4081 43.8806 24.5321 43.8241C25.0288 43.6163 25.5706 43.5557 26.1014 43.4962Z" fill="#002147"/>
<path d="M24.3381 51.9184C24.7339 51.6722 25.2997 51.9849 25.3137 52.451C25.3667 52.9393 24.7919 53.3288 24.3661 53.0876C23.9023 52.8818 23.8853 52.1464 24.3381 51.9184Z" fill="#002147"/>
<path d="M31.0222 53.0089C31.459 52.7587 32.0478 53.1703 31.9728 53.6697C31.9408 54.158 31.3101 54.4395 30.9323 54.1308C30.5404 53.8675 30.5954 53.2046 31.0222 53.0089Z" fill="#002147"/>
</g>
<defs>
<clipPath id="clip0_226_595">
<rect width="225" height="67" fill="white" transform="translate(0 0.692322)"/>
</clipPath>
</defs>
</svg>
